{
.appVersion = "983";
classes = (
{
code = "a b c d e f g h";
name = "a-h";
},
{
code = "i j k l m n o p";
name = "i-p";
},
{
code = "q r s t u v w x";
name = "q-x";
},
{
code = "Y Z y z space";
name = "y-z";
},
{
code = "A B C D E F G H";
name = "A-H";
},
{
code = "I J K L M N O P";
name = "I-P";
},
{
code = "Q R S T U V W X";
name = "Q-X";
}
);
customParameters = (
{
name = description;
value = "A font fot cats.";
},
{
name = license;

glyphs = (
{
glyphname = exclam;
lastChange = "2017-05-14 03:42:20 +0000";
layers = (
{
layerId = "7DC84FEC-FE63-4092-95B6-3924847BFAB0";
paths = (
{
closed = 1;
nodes = (
"203.17 17.5 OFFCURVE",
"209 30.83 OFFCURVE",
"209 46.5 CURVE SMOOTH",
"209 62.17 OFFCURVE",
"203.17 75.5 OFFCURVE",
"191.5 86.5 CURVE SMOOTH",
"179.83 97.5 OFFCURVE",
"166.17 103 OFFCURVE",
"150.5 103 CURVE SMOOTH",
"134.83 103 OFFCURVE",
"121.17 97.33 OFFCURVE",
"109.5 86 CURVE SMOOTH",
"97.83 74.67 OFFCURVE",
"92 61.33 OFFCURVE",
"92 46 CURVE SMOOTH",
"92 30.67 OFFCURVE",
"97.83 17.5 OFFCURVE",
"109.5 6.5 CURVE SMOOTH",
"121.17 -4.5 OFFCURVE",
"134.83 -10 OFFCURVE",
"150.5 -10 CURVE SMOOTH",
"166.17 -10 OFFCURVE",
"179.83 -4.5 OFFCURVE",
"191.5 6.5 CURVE SMOOTH"
);
},
{
closed = 1;
nodes = (
"202 750 LINE",
"98 750 LINE",
"117 203 LINE",
"183 203 LINE"
);
}
);
width = 300;
}
);
note = exclam;
unicode = 0021;
},
{
glyphname = quotedbl;
lastChange = "2017-05-14 03:42:20 +0000";
layers = (
{
layerId = "7DC84FEC-FE63-4092-95B6-3924847BFAB0";
paths = (
{
closed = 1;
nodes = (
"130 750 LINE",
"44 750 LINE",
"61 498 LINE",
"112 498 LINE"
);
},
{
closed = 1;
nodes = (
"323 750 LINE",
"237 750 LINE",
"255 498 LINE",
"306 498 LINE"
);
}
);
width = 367;
}
);
note = quotedbl;
unicode = 0022;
},
{
glyphname = numbersign;
lastChange = "2017-05-14 03:42:20 +0000";
layers = (
{
layerId = "7DC84FEC-FE63-4092-95B6-3924847BFAB0";
paths = (
{
closed = 1;
nodes = (
"220 437 LINE",
"378 437 LINE",
"357 263 LINE",
"197 263 LINE"
);
},
{
closed = 1;
nodes = (
"432 437 LINE",
"539 437 LINE",
"539 488 LINE",
"437 488 LINE",
"461 680 LINE",
"409 687 LINE",
"384 488 LINE",
"225 488 LINE",
"249 680 LINE",
"197 687 LINE",
"173 488 LINE",
"61 488 LINE",
"61 437 LINE",
"167 437 LINE",
"144 263 LINE",
"33 263 LINE",
"33 212 LINE",
"136 212 LINE",
"110 5 LINE",
"163 -2 LINE",
"190 210 LINE",
"350 210 LINE",
"325 5 LINE",
"377 -2 LINE",
"403 210 LINE",
"511 210 LINE",
"511 263 LINE",
"410 263 LINE"
);
}
);
width = 569;
}
);
note = numbersign;
unicode = 0023;
},
{
glyphname = dollar;
lastChange = "2017-05-14 03:42:20 +0000";
layers = (
{
layerId = "7DC84FEC-FE63-4092-95B6-3924847BFAB0";
paths = (
{
closed = 1;
nodes = (
"284 -70 LINE",
"339 -70 LINE",
"339 -12 LINE",
"404.81 -6.02 OFFCURVE",
"456.98 11.65 OFFCURVE",
"495.5 41 CURVE SMOOTH",
"541.83 76.3 OFFCURVE",
"565 125.3 OFFCURVE",
"565 188 CURVE SMOOTH",
"565 246.94 OFFCURVE",
"541.33 291.94 OFFCURVE",
"494 323 CURVE SMOOTH",
"472.67 337 OFFCURVE",
"448.5 348.17 OFFCURVE",
"421.5 356.5 CURVE SMOOTH",
"394.5 364.83 OFFCURVE",
"367 372.33 OFFCURVE",
"339 379 CURVE",
"339 619 LINE",
"351 617 OFFCURVE",
"363.17 614.17 OFFCURVE",
"375.5 610.5 CURVE SMOOTH",
"418.91 597.6 OFFCURVE",
"444.07 572.1 OFFCURVE",
"451 534 CURVE",
"534 534 LINE",
"528.67 558.67 OFFCURVE",
"519.67 580 OFFCURVE",
"507 598 CURVE SMOOTH",
"471.59 648.32 OFFCURVE",
"415.59 677.99 OFFCURVE",
"339 687 CURVE",
"339 750 LINE",
"284 750 LINE",
"284 690 LINE",
"221.57 688.51 OFFCURVE",
"169.73 673.18 OFFCURVE",
"128.5 644 CURVE SMOOTH",
"80.83 610.27 OFFCURVE",
"57 563.6 OFFCURVE",
"57 504 CURVE SMOOTH",
"57 447.5 OFFCURVE",
"81 403.5 OFFCURVE",
"129 372 CURVE SMOOTH",
"150.33 358 OFFCURVE",
"174.5 346.67 OFFCURVE",
"201.5 338 CURVE SMOOTH",
"228.5 329.33 OFFCURVE",
"256 321.33 OFFCURVE",
"284 314 CURVE",
"284 60 LINE",
"191.71 63.42 OFFCURVE",
"139.71 99.08 OFFCURVE",
"128 167 CURVE",
"37 167 LINE",
"42.33 135.67 OFFCURVE",
"52.83 109 OFFCURVE",
"68.5 87 CURVE SMOOTH",
"112.68 24.96 OFFCURVE",
"184.51 -8.37 OFFCURVE",
"284 -13 CURVE"
);
},
{
closed = 1;
nodes = (
"284 392 LINE",
"238.06 404.25 OFFCURVE",
"203.56 418.25 OFFCURVE",
"180.5 434 CURVE SMOOTH",
"151.5 453.8 OFFCURVE",
"137 481.8 OFFCURVE",
"137 518 CURVE SMOOTH",
"137 552.35 OFFCURVE",
"152.67 578.85 OFFCURVE",
"184 597.5 CURVE SMOOTH",
"211.44 613.83 OFFCURVE",
"244.77 622 OFFCURVE",
"284 622 CURVE"
);
},
{
closed = 1;
nodes = (
"339 300 LINE",
"359 294.67 OFFCURVE",
"377.83 288.67 OFFCURVE",
"395.5 282 CURVE SMOOTH",
"455.17 259.48 OFFCURVE",
"485 225.15 OFFCURVE",
"485 179 CURVE SMOOTH",
"485 145.63 OFFCURVE",
"469.33 118.13 OFFCURVE",
"438 96.5 CURVE SMOOTH",
"410.09 77.23 OFFCURVE",
"377.09 65.39 OFFCURVE",
"339 61 CURVE"
);
}
);
width = 590;
}
);
note = dollar;
unicode = 0024;
},
{
glyphname = percent;
lastChange = "2017-05-14 03:42:20 +0000";
layers = (
{
layerId = "7DC84FEC-FE63-4092-95B6-3924847BFAB0";
paths = (
{
closed = 1;
nodes = (
"582.04 222 OFFCURVE",
"600.2 211.83 OFFCURVE",
"611.5 191.5 CURVE SMOOTH",
"616.5 182.5 OFFCURVE",
"620 172.67 OFFCURVE",
"622 162 CURVE SMOOTH",
"624 151.33 OFFCURVE",
"625 137.69 OFFCURVE",
"625 121.07 CURVE SMOOTH",
"625 104.45 OFFCURVE",
"620.17 87.76 OFFCURVE",
"610.5 71 CURVE SMOOTH",
"605.5 62.33 OFFCURVE",
"598.5 55.17 OFFCURVE",
"589.5 49.5 CURVE SMOOTH",
"580.5 43.83 OFFCURVE",
"569.5 41 OFFCURVE",
"556.5 41 CURVE SMOOTH",
"543.5 41 OFFCURVE",
"532.5 43.83 OFFCURVE",
"523.5 49.5 CURVE SMOOTH",
"500.5 63.98 OFFCURVE",
"489 91.15 OFFCURVE",
"489 131 CURVE SMOOTH",
"489 156.07 OFFCURVE",
"493.5 176.4 OFFCURVE",
"502.5 192 CURVE SMOOTH",
"514.04 212 OFFCURVE",
"532.21 222 OFFCURVE",
"557 222 CURVE SMOOTH"
);
},
{
closed = 1;
nodes = (
"216.67 623.83 OFFCURVE",
"223.5 616.67 OFFCURVE",
"228.5 608 CURVE SMOOTH",
"233.5 599.33 OFFCURVE",
"237 589.67 OFFCURVE",
"239 579 CURVE SMOOTH",
"241 568.33 OFFCURVE",
"242 554.13 OFFCURVE",
"242 536.38 CURVE SMOOTH",
"242 518.63 OFFCURVE",
"237.33 502.17 OFFCURVE",
"228 487.01 CURVE SMOOTH",
"215.69 467.01 OFFCURVE",
"197.69 457.01 OFFCURVE",
"174 457.01 CURVE SMOOTH",
"149.21 457.01 OFFCURVE",
"131.04 467.01 OFFCURVE",
"119.5 487.01 CURVE SMOOTH",
"114.5 495.68 OFFCURVE",
"111 505.34 OFFCURVE",
"109 516.01 CURVE SMOOTH",
"107 526.68 OFFCURVE",
"106 540.78 OFFCURVE",
"106 558.31 CURVE SMOOTH",
"106 575.84 OFFCURVE",
"110.5 592.41 OFFCURVE",
"119.5 608.01 CURVE SMOOTH",
"124.5 616.68 OFFCURVE",
"131.5 623.84 OFFCURVE",
"140.5 629.51 CURVE SMOOTH",
"149.5 635.18 OFFCURVE",
"160.83 638.01 OFFCURVE",
"174.5 638.01 CURVE SMOOTH",
"188.17 638.01 OFFCURVE",
"199.33 635.18 OFFCURVE",
"208 629.51 CURVE SMOOTH"
);
},
{
closed = 1;
nodes = (
"600.88 -9.99 OFFCURVE",
"634.71 6.51 OFFCURVE",
"658.5 39.51 CURVE SMOOTH",
"678.17 66.79 OFFCURVE",
"688 97.29 OFFCURVE",
"688 131.01 CURVE SMOOTH",
"688 162.97 OFFCURVE",
"678.67 192.63 OFFCURVE",
"660 220.01 CURVE SMOOTH",
"635.91 255.34 OFFCURVE",
"601.58 273.01 OFFCURVE",
"557 273.01 CURVE SMOOTH",
"511.76 273.01 OFFCURVE",
"477.09 255.34 OFFCURVE",
"453 220.01 CURVE SMOOTH",
"434.33 192.63 OFFCURVE",
"425 162.97 OFFCURVE",
"425 131.01 CURVE SMOOTH",
"425 96.88 OFFCURVE",
"435 66.38 OFFCURVE",
"455 39.51 CURVE SMOOTH",
"479.56 6.51 OFFCURVE",
"513.56 -9.99 OFFCURVE",
"557 -9.99 CURVE SMOOTH"
);
},
{
closed = 1;
nodes = (
"269 0.01 LINE",
"544 680.01 LINE",
"472 680.01 LINE",
"199 0.01 LINE"
);
},
{
closed = 1;
nodes = (
"217.44 406.01 OFFCURVE",
"251.44 422.51 OFFCURVE",
"276 455.51 CURVE SMOOTH",
"296 482.39 OFFCURVE",
"306 512.89 OFFCURVE",
"306 547.01 CURVE SMOOTH",
"306 578.97 OFFCURVE",
"296.67 608.63 OFFCURVE",
"278 636.01 CURVE SMOOTH",
"253.91 671.34 OFFCURVE",
"219.24 689.01 OFFCURVE",
"174 689.01 CURVE SMOOTH",
"129.42 689.01 OFFCURVE",
"95.09 671.34 OFFCURVE",
"71 636.01 CURVE SMOOTH",
"52.33 608.63 OFFCURVE",
"43 578.97 OFFCURVE",
"43 547.01 CURVE SMOOTH",
"43 513.29 OFFCURVE",
"52.83 482.79 OFFCURVE",
"72.5 455.51 CURVE SMOOTH",
"96.29 422.51 OFFCURVE",
"130.12 406.01 OFFCURVE",
"174 406.01 CURVE SMOOTH"
);
}
);
width = 731;
}
);
note = percent;
unicode = 0025;
},
{
glyphname = ampersand;
lastChange = "2017-05-14 03:42:20 +0000";
layers = (
{
layerId = "7DC84FEC-FE63-4092-95B6-3924847BFAB0";
paths = (
{
closed = 1;
nodes = (
"412 154 LINE",
"402 144 OFFCURVE",
"391.17 133.5 OFFCURVE",
"379.5 122.5 CURVE SMOOTH",
"335.31 80.83 OFFCURVE",
"294.81 60 OFFCURVE",
"258 60 CURVE SMOOTH",
"224.11 60 OFFCURVE",
"194.94 73.33 OFFCURVE",
"170.5 100 CURVE SMOOTH",
"146.17 126.55 OFFCURVE",
"134 156.55 OFFCURVE",
"134 190 CURVE SMOOTH",
"134 218 OFFCURVE",
"150.4 248.4 OFFCURVE",
"183.2 281.2 CURVE SMOOTH",
"198 296 OFFCURVE",
"224.6 317.27 OFFCURVE",
"263 345 CURVE"
);
},
{
closed = 1;
nodes = (
"227.67 487.06 OFFCURVE",
"213 516.94 OFFCURVE",
"213 546.17 CURVE SMOOTH",
"213 575.39 OFFCURVE",
"221.33 596.67 OFFCURVE",
"238 610 CURVE SMOOTH",
"254.67 623.33 OFFCURVE",
"273.17 629.5 OFFCURVE",
"293.5 628.5 CURVE SMOOTH",
"313.83 627.5 OFFCURVE",
"332.33 620 OFFCURVE",
"349 606 CURVE SMOOTH",
"365.67 592 OFFCURVE",
"374 572.67 OFFCURVE",
"374 548 CURVE SMOOTH",
"374 523.33 OFFCURVE",
"363.33 500.33 OFFCURVE",
"342 479 CURVE SMOOTH",
"332.67 469.67 OFFCURVE",
"322.5 461.17 OFFCURVE",
"311.5 453.5 CURVE SMOOTH",
"300.5 445.83 OFFCURVE",
"290 438.33 OFFCURVE",
"280 431 CURVE",
"272.67 439.67 OFFCURVE",
"265 448.17 OFFCURVE",
"257 456.5 CURVE SMOOTH"
);
},
{
closed = 1;
nodes = (
"538 303 LINE",
"500 255 LINE SMOOTH",
"487.33 239 OFFCURVE",
"474.33 223 OFFCURVE",
"461 207 CURVE",
"321 386 LINE",
"333.67 396 OFFCURVE",
"347 406.83 OFFCURVE",
"361 418.5 CURVE SMOOTH",
"413 461.83 OFFCURVE",
"439 505.33 OFFCURVE",
"439 549 CURVE SMOOTH",
"439 590.04 OFFCURVE",
"425.17 624.04 OFFCURVE",
"397.5 651 CURVE SMOOTH",
"370.82 677 OFFCURVE",
"336.32 690 OFFCURVE",
"294 690 CURVE SMOOTH",
"250 690 OFFCURVE",
"214.67 676.17 OFFCURVE",
"188 648.5 CURVE SMOOTH",
"161.33 620.83 OFFCURVE",
"148 585.85 OFFCURVE",
"148 543.54 CURVE SMOOTH",
"148 501.23 OFFCURVE",
"172 452.39 OFFCURVE",
"220 397 CURVE",
"200 382.33 OFFCURVE",
"180.67 368.17 OFFCURVE",
"162 354.5 CURVE SMOOTH",
"97.33 307.15 OFFCURVE",
"65 250.65 OFFCURVE",
"65 185 CURVE SMOOTH",
"65 128.33 OFFCURVE",
"83.83 81.17 OFFCURVE",
"121.5 43.5 CURVE SMOOTH",
"139.17 25.83 OFFCURVE",
"160.17 12.17 OFFCURVE",
"184.5 2.5 CURVE SMOOTH",
"208.83 -7.17 OFFCURVE",
"236.6 -12 OFFCURVE",
"267.8 -12 CURVE SMOOTH",
"299 -12 OFFCURVE",
"334.96 0.72 OFFCURVE",
"375.67 26.17 CURVE SMOOTH",
"396.11 38.95 OFFCURVE",
"422.89 61.89 OFFCURVE",
"456 95 CURVE",
"530 -2 LINE",
"622 0 LINE",
"505 153 LINE",
"555.08 213.96 OFFCURVE",
"585.08 251.3 OFFCURVE",
"595 265 CURVE"
);
}
);
width = 689;
}
);
note = ampersand;
unicode = 0026;
},
{
glyphname = quotesingle;
lastChange = "2017-05-14 03:42:20 +0000";
layers = (
{
layerId = "7DC84FEC-FE63-4092-95B6-3924847BFAB0";
paths = (
{
closed = 1;
nodes = (
"130 750 LINE",
"44 750 LINE",
"61 498 LINE",
"112 498 LINE"
);
}
);
width = 173;
}
);
note = quotesingle;
unicode = 0027;
},
{
glyphname = parenleft;
lastChange = "2017-05-14 03:42:20 +0000";
layers = (
{
layerId = "7DC84FEC-FE63-4092-95B6-3924847BFAB0";
paths = (
{
closed = 1;
nodes = (
"176 750 LINE",
"150.17 708.03 OFFCURVE",
"128.01 657.86 OFFCURVE",
"109.5 599.5 CURVE SMOOTH",
"76.5 495.42 OFFCURVE",
"60 383.26 OFFCURVE",
"60 263 CURVE SMOOTH",
"60 143.67 OFFCURVE",
"78.99 25.12 OFFCURVE",
"116.98 -92.64 CURVE SMOOTH",
"134.97 -148.4 OFFCURVE",
"154.97 -192.19 OFFCURVE",
"177 -224 CURVE",
"243 -224 LINE",
"214.09 -174.44 OFFCURVE",
"189.42 -116.61 OFFCURVE",
"169 -50.5 CURVE SMOOTH",
"156.33 -9.5 OFFCURVE",
"145.67 37.33 OFFCURVE",
"137 90 CURVE SMOOTH",
"128.33 142.67 OFFCURVE",
"124 200 OFFCURVE",
"124 262 CURVE SMOOTH",
"124 324 OFFCURVE",
"128.5 381.17 OFFCURVE",
"137.5 433.5 CURVE SMOOTH",
"159.27 560.11 OFFCURVE",
"194.77 665.61 OFFCURVE",
"244 750 CURVE"
);
}
);
width = 308;
}
);
note = parenleft;
unicode = 0028;
},
{
glyphname = parenright;
lastChange = "2017-05-14 03:42:20 +0000";
layers = (
{
layerId = "7DC84FEC-FE63-4092-95B6-3924847BFAB0";
paths = (
{
closed = 1;
nodes = (
"210.98 577.53 OFFCURVE",
"177.32 676.36 OFFCURVE",
"132 750 CURVE",
"64 750 LINE",
"92.75 700.72 OFFCURVE",
"117.41 642.22 OFFCURVE",
"138 574.5 CURVE SMOOTH",
"150.67 532.83 OFFCURVE",
"161.5 485.83 OFFCURVE",
"170.5 433.5 CURVE SMOOTH",
"179.5 381.17 OFFCURVE",
"184 324 OFFCURVE",
"184 262 CURVE SMOOTH",
"184 200 OFFCURVE",
"179.5 142.67 OFFCURVE",
"170.5 90 CURVE SMOOTH",
"149.05 -35.54 OFFCURVE",
"113.88 -140.2 OFFCURVE",
"65 -224 CURVE",
"131 -224 LINE",
"153.03 -192.18 OFFCURVE",
"175.36 -141.18 OFFCURVE",
"198 -71 CURVE SMOOTH",
"211.33 -29.67 OFFCURVE",
"223 19 OFFCURVE",
"233 75 CURVE SMOOTH",
"243 131 OFFCURVE",
"248 194 OFFCURVE",
"248 264 CURVE SMOOTH",
"248 334 OFFCURVE",
"243 397.17 OFFCURVE",
"233 453.5 CURVE SMOOTH"
);
}
);
width = 308;
}
);
note = parenright;
unicode = 0029;
},
{
glyphname = asterisk;
lastChange = "2017-05-14 03:42:20 +0000";
layers = (
{
layerId = "7DC84FEC-FE63-4092-95B6-3924847BFAB0";
paths = (
{
closed = 1;
nodes = (
"454 582 LINE",
"427 664 LINE",
"283 588 LINE",
"308 750 LINE",
"222 750 LINE",
"247 588 LINE",
"103 664 LINE",
"77 582 LINE",
"236 554 LINE",
"122 443 LINE",
"192 392 LINE",
"265 533 LINE",
"338 392 LINE",
"408 443 LINE",
"294 554 LINE"
);
}
);
width = 530;
}
);
note = asterisk;
unicode = 002A;
},
{
glyphname = plus;
lastChange = "2017-05-14 03:42:20 +0000";
layers = (
{
layerId = "7DC84FEC-FE63-4092-95B6-3924847BFAB0";
paths = (
{
closed = 1;
nodes = (
"423 194 LINE",
"423 251 LINE",
"259 251 LINE",
"259 415 LINE",
"201 415 LINE",
"201 251 LINE",
"38 251 LINE",
"38 194 LINE",
"201 194 LINE",
"201 30 LINE",
"259 30 LINE",
"259 194 LINE"
);
}
);
width = 460;
}
);
note = plus;
unicode = 002B;
},
{
glyphname = comma;
lastChange = "2017-05-14 03:42:20 +0000";
layers = (
{
layerId = "7DC84FEC-FE63-4092-95B6-3924847BFAB0";
paths = (
{
closed = 1;
nodes = (
"204 118 LINE",
"108 118 LINE",
"50 -141 LINE",
"92 -141 LINE"
);
}
);
width = 232;
}
);
note = comma;
unicode = 002C;
},
{
glyphname = hyphen;
lastChange = "2017-05-14 03:42:20 +0000";
layers = (
{
layerId = "7DC84FEC-FE63-4092-95B6-3924847BFAB0";
paths = (
{
closed = 1;
nodes = (
"373 194 LINE",
"373 251 LINE",
"38 251 LINE",
"38 194 LINE"
);
}
);
width = 410;
}
);
note = hyphen;
unicode = 002D;
},
{
glyphname = period;
lastChange = "2017-05-14 03:42:20 +0000";
layers = (
{
layerId = "7DC84FEC-FE63-4092-95B6-3924847BFAB0";
paths = (
{
closed = 1;
nodes = (
"148.33 -10 OFFCURVE",
"162 -4.5 OFFCURVE",
"174 6.5 CURVE SMOOTH",
"186 17.5 OFFCURVE",
"192 30.83 OFFCURVE",
"192 46.5 CURVE SMOOTH",
"192 62.17 OFFCURVE",
"186.17 75.5 OFFCURVE",
"174.5 86.5 CURVE SMOOTH",
"162.83 97.5 OFFCURVE",
"149 103 OFFCURVE",
"133 103 CURVE SMOOTH",
"117 103 OFFCURVE",
"103.33 97.33 OFFCURVE",
"92 86 CURVE SMOOTH",
"80.67 74.67 OFFCURVE",
"75 61.33 OFFCURVE",
"75 46 CURVE SMOOTH",
"75 30.67 OFFCURVE",
"80.83 17.5 OFFCURVE",
"92.5 6.5 CURVE SMOOTH",
"104.17 -4.5 OFFCURVE",
"117.67 -10 OFFCURVE",
"133 -10 CURVE SMOOTH"
);
}
);
width = 267;
}
);
note = period;
unicode = 002E;
},
{
glyphname = slash;
lastChange = "2017-05-14 03:42:20 +0000";
layers = (
{
layerId = "7DC84FEC-FE63-4092-95B6-3924847BFAB0";
paths = (
{
closed = 1;
nodes = (
"506 750 LINE",
"431 750 LINE",
"43 -201 LINE",
"118 -201 LINE"
);
}
);
width = 538;
}
);
note = slash;
unicode = 002F;
},
{
glyphname = zero;
lastChange = "2017-05-14 03:42:20 +0000";
layers = (
{
layerId = "7DC84FEC-FE63-4092-95B6-3924847BFAB0";
paths = (
{
closed = 1;
nodes = (
"366.28 581.55 OFFCURVE",
"389.78 550.71 OFFCURVE",
"405 508.5 CURVE SMOOTH",
"424.33 454.89 OFFCURVE",
"434 398.06 OFFCURVE",
"434 338 CURVE SMOOTH",
"434 324 OFFCURVE",
"433 307.5 OFFCURVE",
"431 288.5 CURVE SMOOTH",
"423.24 214.76 OFFCURVE",
"404.07 156.93 OFFCURVE",
"373.5 115 CURVE SMOOTH",
"347.74 79.67 OFFCURVE",
"316.24 62 OFFCURVE",
"279 62 CURVE SMOOTH",
"237.4 62 OFFCURVE",
"203.56 79.5 OFFCURVE",
"177.5 114.5 CURVE SMOOTH",
"165.83 130.17 OFFCURVE",
"156.17 147.83 OFFCURVE",
"148.5 167.5 CURVE SMOOTH",
"140.83 187.17 OFFCURVE",
"135 207.33 OFFCURVE",
"131 228 CURVE SMOOTH",
"127 248.67 OFFCURVE",
"124.17 268.67 OFFCURVE",
"122.5 288 CURVE SMOOTH",
"120.83 307.33 OFFCURVE",
"120 329.6 OFFCURVE",
"120 354.79 CURVE SMOOTH",
"120 379.98 OFFCURVE",
"123.67 411.22 OFFCURVE",
"131 448.5 CURVE SMOOTH",
"135 468.83 OFFCURVE",
"140.67 489 OFFCURVE",
"148 509 CURVE SMOOTH",
"155.33 529 OFFCURVE",
"164.83 547 OFFCURVE",
"176.5 563 CURVE SMOOTH",
"188.17 579 OFFCURVE",
"202.17 591.83 OFFCURVE",
"218.5 601.5 CURVE SMOOTH",
"234.83 611.17 OFFCURVE",
"254.17 616 OFFCURVE",
"276.5 616 CURVE SMOOTH",
"298.83 616 OFFCURVE",
"318.17 611 OFFCURVE",
"334.5 601 CURVE SMOOTH"
);
},
{
closed = 1;
nodes = (
"360.35 -9 OFFCURVE",
"420.85 30.5 OFFCURVE",
"461.5 109.5 CURVE SMOOTH",
"493.83 172.34 OFFCURVE",
"510 249.5 OFFCURVE",
"510 341 CURVE SMOOTH",
"510 432.5 OFFCURVE",
"493.83 509.66 OFFCURVE",
"461.5 572.5 CURVE SMOOTH",
"420.85 651.5 OFFCURVE",
"360.35 691 OFFCURVE",
"280 691 CURVE SMOOTH",
"199.65 691 OFFCURVE",
"139.15 651.5 OFFCURVE",
"98.5 572.5 CURVE SMOOTH",
"66.17 509.66 OFFCURVE",
"50 432.5 OFFCURVE",
"50 341 CURVE SMOOTH",
"50 249.5 OFFCURVE",
"66.17 172.34 OFFCURVE",
"98.5 109.5 CURVE SMOOTH",
"139.15 30.5 OFFCURVE",
"199.65 -9 OFFCURVE",
"280 -9 CURVE SMOOTH"
);
}
);
width = 560;
}
);
note = zero;
unicode = 0030;
},
{
glyphname = one;
lastChange = "2017-05-14 03:42:20 +0000";
layers = (
{
layerId = "7DC84FEC-FE63-4092-95B6-3924847BFAB0";
paths = (
{
closed = 1;
nodes = (
"148 0 LINE",
"218 0 LINE",
"218 688 LINE",
"50 670 LINE",
"50 609 LINE",
"148 609 LINE"
);
}
);
width = 287;
}
);
note = one;
unicode = 0031;
},
{
glyphname = two;
lastChange = "2017-05-14 03:42:20 +0000";
layers = (
{
layerId = "7DC84FEC-FE63-4092-95B6-3924847BFAB0";
paths = (
{
closed = 1;
nodes = (
"63 0 LINE",
"542 0 LINE",
"542 70 LINE",
"232 70 LINE",
"469 305 LINE SMOOTH",
"513 349 OFFCURVE",
"535 402 OFFCURVE",
"535 464 CURVE SMOOTH",
"535 527.43 OFFCURVE",
"512.5 580.93 OFFCURVE",
"467.5 624.5 CURVE SMOOTH",
"421.71 668.83 OFFCURVE",
"367.55 691 OFFCURVE",
"305 691 CURVE SMOOTH",
"239.94 691 OFFCURVE",
"184.44 667.67 OFFCURVE",
"138.5 621 CURVE SMOOTH",
"93.44 575.22 OFFCURVE",
"72.27 519.55 OFFCURVE",
"75 454 CURVE",
"146 454 LINE",
"142.16 496.25 OFFCURVE",
"156.33 534.58 OFFCURVE",
"188.5 569 CURVE SMOOTH",
"219.66 602.33 OFFCURVE",
"257.49 619 OFFCURVE",
"302 619 CURVE SMOOTH",
"345.62 619 OFFCURVE",
"382.79 604 OFFCURVE",
"413.5 574 CURVE SMOOTH",
"444.5 543.72 OFFCURVE",
"460 507.39 OFFCURVE",
"460 465 CURVE SMOOTH",
"460 421.67 OFFCURVE",
"445 385 OFFCURVE",
"415 355 CURVE SMOOTH"
);
}
);
width = 615;
}
);
note = two;
unicode = 0032;
},
{
glyphname = three;
lastChange = "2017-05-14 03:42:20 +0000";
layers = (
{
layerId = "7DC84FEC-FE63-4092-95B6-3924847BFAB0";
paths = (
{
closed = 1;
nodes = (
"384.17 19.17 OFFCURVE",
"408.5 35.17 OFFCURVE",
"429.5 55.5 CURVE SMOOTH",
"474.5 99.07 OFFCURVE",
"497 152.57 OFFCURVE",
"497 216 CURVE SMOOTH",
"497 279.45 OFFCURVE",
"474.17 333.28 OFFCURVE",
"428.5 377.5 CURVE SMOOTH",
"385.65 418.99 OFFCURVE",
"331.49 441.82 OFFCURVE",
"266 446 CURVE",
"236 428 LINE",
"449 680 LINE",
"83 680 LINE",
"83 610 LINE",
"307 610 LINE",
"101 370 LINE",
"154 327 LINE",
"186 359 OFFCURVE",
"224 375 OFFCURVE",
"268 375 CURVE SMOOTH",
"312 375 OFFCURVE",
"349.5 359.5 OFFCURVE",
"380.5 328.5 CURVE SMOOTH",
"411.5 297.5 OFFCURVE",
"427 260.33 OFFCURVE",
"427 217 CURVE SMOOTH",
"427 174.6 OFFCURVE",
"411.17 137.93 OFFCURVE",
"379.5 107 CURVE SMOOTH",
"365.17 93 OFFCURVE",
"348.33 81.83 OFFCURVE",
"329 73.5 CURVE SMOOTH",
"309.67 65.17 OFFCURVE",
"286.33 61 OFFCURVE",
"259 61 CURVE SMOOTH",
"231.67 61 OFFCURVE",
"204.33 70.17 OFFCURVE",
"177 88.5 CURVE SMOOTH",
"149.67 106.83 OFFCURVE",
"130.33 131.67 OFFCURVE",
"119 163 CURVE",
"51 140 LINE",
"66.72 95.45 OFFCURVE",
"94.89 59.29 OFFCURVE",
"135.5 31.5 CURVE SMOOTH",
"154.5 18.5 OFFCURVE",
"175.33 8.33 OFFCURVE",
"198 1 CURVE SMOOTH",
"220.67 -6.33 OFFCURVE",
"245.83 -10 OFFCURVE",
"273.5 -10 CURVE SMOOTH",
"301.17 -10 OFFCURVE",
"328.83 -4.17 OFFCURVE",
"356.5 7.5 CURVE SMOOTH"
);
}
);
width = 520;
}
);
note = three;
unicode = 0033;
},
{
glyphname = four;
lastChange = "2017-05-14 03:42:20 +0000";
layers = (
{
layerId = "7DC84FEC-FE63-4092-95B6-3924847BFAB0";
paths = (
{
closed = 1;
nodes = (
"399 604 LINE",
"399 211 LINE",
"139 211 LINE"
);
},
{
closed = 1;
nodes = (
"472 139 LINE",
"558 139 LINE",
"558 211 LINE",
"472 211 LINE",
"471 680 LINE",
"373 680 LINE",
"15 139 LINE",
"399 139 LINE",
"399 0 LINE",
"472 0 LINE"
);
}
);
width = 605;
}
);
note = four;
unicode = 0034;
},
{
glyphname = five;
lastChange = "2017-05-14 03:42:20 +0000";
layers = (
{
layerId = "7DC84FEC-FE63-4092-95B6-3924847BFAB0";
paths = (
{
closed = 1;
nodes = (
"225 610 LINE",
"471 610 LINE",
"471 680 LINE",
"172 680 LINE",
"94 375 LINE",
"170 341 LINE",
"198.67 362.33 OFFCURVE",
"233.19 373 OFFCURVE",
"273.57 373 CURVE SMOOTH",
"313.95 373 OFFCURVE",
"349.09 357.33 OFFCURVE",
"379 326 CURVE SMOOTH",
"409.67 293.87 OFFCURVE",
"425 256.87 OFFCURVE",
"425 215 CURVE SMOOTH",
"425 171.58 OFFCURVE",
"409.33 134.91 OFFCURVE",
"378 105 CURVE SMOOTH",
"363.33 91 OFFCURVE",
"346.5 79.83 OFFCURVE",
"327.5 71.5 CURVE SMOOTH",
"308.5 63.17 OFFCURVE",
"285.17 59 OFFCURVE",
"257.5 59 CURVE SMOOTH",
"229.83 59 OFFCURVE",
"202.33 68.33 OFFCURVE",
"175 87 CURVE SMOOTH",
"147.67 105.67 OFFCURVE",
"128.33 130 OFFCURVE",
"117 160 CURVE",
"49 138 LINE",
"65.36 93.02 OFFCURVE",
"93.52 56.85 OFFCURVE",
"133.5 29.5 CURVE SMOOTH",
"173.94 1.83 OFFCURVE",
"218.1 -12 OFFCURVE",
"266 -12 CURVE SMOOTH",
"330.39 -12 OFFCURVE",
"385.06 10.83 OFFCURVE",
"430 56.5 CURVE SMOOTH",
"474.67 101.89 OFFCURVE",
"497 156.39 OFFCURVE",
"497 220 CURVE SMOOTH",
"497 283.42 OFFCURVE",
"475 336.42 OFFCURVE",
"431 379 CURVE SMOOTH",
"410.33 399 OFFCURVE",
"386.33 414.83 OFFCURVE",
"359 426.5 CURVE SMOOTH",
"331.67 438.17 OFFCURVE",
"303.37 444 OFFCURVE",
"274.1 444 CURVE SMOOTH",
"244.83 444 OFFCURVE",
"213.13 438.67 OFFCURVE",
"179 428 CURVE"
);
}
);
width = 550;
}
);
note = five;
unicode = 0035;
},
{
glyphname = six;
lastChange = "2017-05-14 03:42:20 +0000";
layers = (
{
layerId = "7DC84FEC-FE63-4092-95B6-3924847BFAB0";
paths = (
{
closed = 1;
nodes = (
"300.88 371 OFFCURVE",
"337.88 355.33 OFFCURVE",
"368.5 324 CURVE SMOOTH",
"398.83 292.96 OFFCURVE",
"414 255.96 OFFCURVE",
"414 213 CURVE SMOOTH",
"414 171 OFFCURVE",
"398.67 134.67 OFFCURVE",
"368 104 CURVE SMOOTH",
"338 74 OFFCURVE",
"301 59 OFFCURVE",
"257 59 CURVE SMOOTH",
"214.05 59 OFFCURVE",
"176.72 74.5 OFFCURVE",
"145 105.5 CURVE SMOOTH",
"113.67 136.12 OFFCURVE",
"98 172.95 OFFCURVE",
"98 216 CURVE SMOOTH",
"98 258.76 OFFCURVE",
"113.67 295.09 OFFCURVE",
"145 325 CURVE SMOOTH",
"159.67 339 OFFCURVE",
"176.67 350.17 OFFCURVE",
"196 358.5 CURVE SMOOTH",
"215.33 366.83 OFFCURVE",
"235.83 371 OFFCURVE",
"257.5 371 CURVE SMOOTH"
);
},
{
closed = 1;
nodes = (
"485 283.71 OFFCURVE",
"461.67 337.71 OFFCURVE",
"415 380 CURVE SMOOTH",
"371.79 419.16 OFFCURVE",
"316.12 440.16 OFFCURVE",
"248 443 CURVE",
"228 430 LINE",
"436 680 LINE",
"344 680 LINE",
"78 359 LINE SMOOTH",
"44 318.2 OFFCURVE",
"27 270.53 OFFCURVE",
"27 216 CURVE SMOOTH",
"27 152.95 OFFCURVE",
"49.33 99.45 OFFCURVE",
"94 55.5 CURVE SMOOTH",
"139.06 11.17 OFFCURVE",
"193.06 -11 OFFCURVE",
"256 -11 CURVE SMOOTH",
"320 -11 OFFCURVE",
"374 11 OFFCURVE",
"418 55 CURVE SMOOTH",
"438.67 75.67 OFFCURVE",
"455 99.67 OFFCURVE",
"467 127 CURVE SMOOTH",
"479 154.33 OFFCURVE",
"485 184.67 OFFCURVE",
"485 218 CURVE SMOOTH"
);
}
);
width = 512;
}
);
note = six;
unicode = 0036;
},
{
glyphname = seven;
lastChange = "2017-05-14 03:42:20 +0000";
layers = (
{
layerId = "7DC84FEC-FE63-4092-95B6-3924847BFAB0";
paths = (
{
closed = 1;
nodes = (
"158 0 LINE",
"457 677 LINE",
"30 677 LINE",
"30 607 LINE",
"348 607 LINE",
"80 0 LINE"
);
}
);
width = 493;
}
);
note = seven;
unicode = 0037;
},
{
glyphname = eight;
lastChange = "2017-05-14 03:42:20 +0000";
layers = (
{
layerId = "7DC84FEC-FE63-4092-95B6-3924847BFAB0";
paths = (
{
closed = 1;
nodes = (
"303.28 346 OFFCURVE",
"337.45 332.33 OFFCURVE",
"365.5 305 CURVE SMOOTH",
"393.17 278.04 OFFCURVE",
"407 244.71 OFFCURVE",
"407 205 CURVE SMOOTH",
"407 165.77 OFFCURVE",
"393.33 131.77 OFFCURVE",
"366 103 CURVE SMOOTH",
"338.77 74.33 OFFCURVE",
"304.43 60 OFFCURVE",
"263 60 CURVE SMOOTH",
"221.57 60 OFFCURVE",
"187.23 74.33 OFFCURVE",
"160 103 CURVE SMOOTH",
"132.67 131.77 OFFCURVE",
"119 165.77 OFFCURVE",
"119 205 CURVE SMOOTH",
"119 244.71 OFFCURVE",
"132.83 278.04 OFFCURVE",
"160.5 305 CURVE SMOOTH",
"188.55 332.33 OFFCURVE",
"222.72 346 OFFCURVE",
"263 346 CURVE SMOOTH"
);
},
{
closed = 1;
nodes = (
"295.58 622 OFFCURVE",
"323.24 611.33 OFFCURVE",
"346 590 CURVE SMOOTH",
"369.33 568.13 OFFCURVE",
"381 541.13 OFFCURVE",
"381 509 CURVE SMOOTH",
"381 477.67 OFFCURVE",
"369.33 450.33 OFFCURVE",
"346 427 CURVE SMOOTH",
"323.33 404.33 OFFCURVE",
"295.67 393 OFFCURVE",
"263 393 CURVE SMOOTH",
"230.33 393 OFFCURVE",
"202.67 404.33 OFFCURVE",
"180 427 CURVE SMOOTH",
"156.67 450.33 OFFCURVE",
"145 477.67 OFFCURVE",
"145 509 CURVE SMOOTH",
"145 541.13 OFFCURVE",
"156.67 568.13 OFFCURVE",
"180 590 CURVE SMOOTH",
"202.76 611.33 OFFCURVE",
"230.42 622 OFFCURVE",
"263 622 CURVE SMOOTH"
);
},
{
closed = 1;
nodes = (
"325.42 -10 OFFCURVE",
"377.92 8.5 OFFCURVE",
"420.5 45.5 CURVE SMOOTH",
"440.83 63.17 OFFCURVE",
"456.83 84.5 OFFCURVE",
"468.5 109.5 CURVE SMOOTH",
"480.17 134.5 OFFCURVE",
"486 163.17 OFFCURVE",
"486 195.5 CURVE SMOOTH",
"486 227.83 OFFCURVE",
"476.17 259.83 OFFCURVE",
"456.5 291.5 CURVE SMOOTH",
"436.83 323.17 OFFCURVE",
"408.67 349 OFFCURVE",
"372 369 CURVE",
"426 413.67 OFFCURVE",
"453 462.16 OFFCURVE",
"453 514.47 CURVE SMOOTH",
"453 566.78 OFFCURVE",
"434.5 609.63 OFFCURVE",
"397.5 643 CURVE SMOOTH",
"362.02 675 OFFCURVE",
"317.19 691 OFFCURVE",
"263 691 CURVE SMOOTH",
"208.81 691 OFFCURVE",
"163.98 675 OFFCURVE",
"128.5 643 CURVE SMOOTH",
"91.5 609.63 OFFCURVE",
"73 566.96 OFFCURVE",
"73 515 CURVE SMOOTH",
"73 462.33 OFFCURVE",
"100 413.67 OFFCURVE",
"154 369 CURVE",
"117.33 349 OFFCURVE",
"89.17 323.17 OFFCURVE",
"69.5 291.5 CURVE SMOOTH",
"49.83 259.83 OFFCURVE",
"40 227.33 OFFCURVE",
"40 194 CURVE SMOOTH",
"40 132.94 OFFCURVE",
"61.83 83.44 OFFCURVE",
"105.5 45.5 CURVE SMOOTH",
"148.08 8.5 OFFCURVE",
"200.58 -10 OFFCURVE",
"263 -10 CURVE SMOOTH"
);
}
);
width = 526;
}
);
note = eight;
unicode = 0038;
},
{
glyphname = nine;
lastChange = "2017-05-14 03:42:20 +0000";
layers = (
{
layerId = "7DC84FEC-FE63-4092-95B6-3924847BFAB0";
paths = (
{
closed = 1;
nodes = (
"211.12 309 OFFCURVE",
"174.12 324.67 OFFCURVE",
"143.5 356 CURVE SMOOTH",
"113.17 387.04 OFFCURVE",
"98 424.04 OFFCURVE",
"98 467 CURVE SMOOTH",
"98 509 OFFCURVE",
"113.33 545.33 OFFCURVE",
"144 576 CURVE SMOOTH",
"174 606 OFFCURVE",
"211 621 OFFCURVE",
"255 621 CURVE SMOOTH",
"297.95 621 OFFCURVE",
"335.28 605.5 OFFCURVE",
"367 574.5 CURVE SMOOTH",
"398.33 543.88 OFFCURVE",
"414 507.05 OFFCURVE",
"414 464 CURVE SMOOTH",
"414 422.26 OFFCURVE",
"398.17 385.93 OFFCURVE",
"366.5 355 CURVE SMOOTH",
"352.17 341 OFFCURVE",
"335.33 329.83 OFFCURVE",
"316 321.5 CURVE SMOOTH",
"296.67 313.17 OFFCURVE",
"276.17 309 OFFCURVE",
"254.5 309 CURVE SMOOTH"
);
},
{
closed = 1;
nodes = (
"27 396.29 OFFCURVE",
"50.33 342.29 OFFCURVE",
"97 300 CURVE SMOOTH",
"140.21 260.84 OFFCURVE",
"195.88 239.84 OFFCURVE",
"264 237 CURVE",
"284 250 LINE",
"76 0 LINE",
"168 0 LINE",
"434 321 LINE SMOOTH",
"468 361.8 OFFCURVE",
"485 409.47 OFFCURVE",
"485 464 CURVE SMOOTH",
"485 527.05 OFFCURVE",
"462.67 580.55 OFFCURVE",
"418 624.5 CURVE SMOOTH",
"372.94 668.83 OFFCURVE",
"318.94 691 OFFCURVE",
"256 691 CURVE SMOOTH",
"192 691 OFFCURVE",
"138 669 OFFCURVE",
"94 625 CURVE SMOOTH",
"73.33 604.33 OFFCURVE",
"57 580.33 OFFCURVE",
"45 553 CURVE SMOOTH",
"33 525.67 OFFCURVE",
"27 495.33 OFFCURVE",
"27 462 CURVE SMOOTH"
);
}
);
width = 512;
}
);
note = nine;
unicode = 0039;
},
{
glyphname = colon;
lastChange = "2017-05-14 03:42:20 +0000";
layers = (
{
layerId = "7DC84FEC-FE63-4092-95B6-3924847BFAB0";
paths = (
{
closed = 1;
nodes = (
"148.33 -10 OFFCURVE",
"162 -4.5 OFFCURVE",
"174 6.5 CURVE SMOOTH",
"186 17.5 OFFCURVE",
"192 30.83 OFFCURVE",
"192 46.5 CURVE SMOOTH",
"192 62.17 OFFCURVE",
"186.17 75.5 OFFCURVE",
"174.5 86.5 CURVE SMOOTH",
"162.83 97.5 OFFCURVE",
"149 103 OFFCURVE",
"133 103 CURVE SMOOTH",
"117 103 OFFCURVE",
"103.33 97.33 OFFCURVE",
"92 86 CURVE SMOOTH",
"80.67 74.67 OFFCURVE",
"75 61.33 OFFCURVE",
"75 46 CURVE SMOOTH",
"75 30.67 OFFCURVE",
"80.83 17.5 OFFCURVE",
"92.5 6.5 CURVE SMOOTH",
"104.17 -4.5 OFFCURVE",
"117.67 -10 OFFCURVE",
"133 -10 CURVE SMOOTH"
);
},
{
closed = 1;
nodes = (
"148.33 377 OFFCURVE",
"162 382.5 OFFCURVE",
"174 393.5 CURVE SMOOTH",
"186 404.5 OFFCURVE",
"192 417.83 OFFCURVE",
"192 433.5 CURVE SMOOTH",
"192 449.17 OFFCURVE",
"186.17 462.5 OFFCURVE",
"174.5 473.5 CURVE SMOOTH",
"162.83 484.5 OFFCURVE",
"149 490 OFFCURVE",
"133 490 CURVE SMOOTH",
"117 490 OFFCURVE",
"103.33 484.33 OFFCURVE",
"92 473 CURVE SMOOTH",
"80.67 461.67 OFFCURVE",
"75 448.33 OFFCURVE",
"75 433 CURVE SMOOTH",
"75 417.67 OFFCURVE",
"80.83 404.5 OFFCURVE",
"92.5 393.5 CURVE SMOOTH",
"104.17 382.5 OFFCURVE",
"117.67 377 OFFCURVE",
"133 377 CURVE SMOOTH"
);
}
);
width = 267;
}
);
note = colon;
unicode = 003A;
},
{
glyphname = semicolon;
lastChange = "2017-05-14 03:42:20 +0000";
layers = (
{
layerId = "7DC84FEC-FE63-4092-95B6-3924847BFAB0";
paths = (
{
closed = 1;
nodes = (
"148.33 377 OFFCURVE",
"162 382.5 OFFCURVE",
"174 393.5 CURVE SMOOTH",
"186 404.5 OFFCURVE",
"192 417.83 OFFCURVE",
"192 433.5 CURVE SMOOTH",
"192 449.17 OFFCURVE",
"186.17 462.5 OFFCURVE",
"174.5 473.5 CURVE SMOOTH",
"162.83 484.5 OFFCURVE",
"149 490 OFFCURVE",
"133 490 CURVE SMOOTH",
"117 490 OFFCURVE",
"103.33 484.33 OFFCURVE",
"92 473 CURVE SMOOTH",
"80.67 461.67 OFFCURVE",
"75 448.33 OFFCURVE",
"75 433 CURVE SMOOTH",
"75 417.67 OFFCURVE",
"80.83 404.5 OFFCURVE",
"92.5 393.5 CURVE SMOOTH",
"104.17 382.5 OFFCURVE",
"117.67 377 OFFCURVE",
"133 377 CURVE SMOOTH"
);
},
{
closed = 1;
nodes = (
"195 118 LINE",
"99 118 LINE",
"41 -141 LINE",
"83 -141 LINE"
);
}
);
width = 267;
}
);
note = semicolon;
unicode = 003B;
},
{
glyphname = less;
lastChange = "2017-05-14 03:42:20 +0000";
layers = (
{
layerId = "7DC84FEC-FE63-4092-95B6-3924847BFAB0";
paths = (
{
closed = 1;
nodes = (
"471 -38 LINE",
"471 34 LINE",
"103 208 LINE",
"471 383 LINE",
"471 455 LINE",
"45 244 LINE",
"45 173 LINE"
);
}
);
width = 516;
}
);
note = less;
unicode = 003C;
},
{
glyphname = equal;
lastChange = "2017-05-14 03:42:20 +0000";
layers = (
{
layerId = "7DC84FEC-FE63-4092-95B6-3924847BFAB0";
paths = (
{
closed = 1;
nodes = (
"383 101 LINE",
"383 158 LINE",
"48 158 LINE",
"48 101 LINE"
);
},
{
closed = 1;
nodes = (
"383 282 LINE",
"383 339 LINE",
"48 339 LINE",
"48 282 LINE"
);
}
);
width = 460;
}
);
note = equal;
unicode = 003D;
},
{
glyphname = greater;
lastChange = "2017-05-14 03:42:20 +0000";
layers = (
{
layerId = "7DC84FEC-FE63-4092-95B6-3924847BFAB0";
paths = (
{
closed = 1;
nodes = (
"45 34 LINE",
"45 -38 LINE",
"471 173 LINE",
"471 244 LINE",
"45 455 LINE",
"45 383 LINE",
"413 208 LINE"
);
}
);
width = 516;
}
);
note = greater;
unicode = 003E;
},
{
glyphname = question;
lastChange = "2017-05-14 03:42:20 +0000";
layers = (
{
layerId = "7DC84FEC-FE63-4092-95B6-3924847BFAB0";
paths = (
{
closed = 1;
nodes = (
"309.17 17.5 OFFCURVE",
"315 30.83 OFFCURVE",
"315 46.5 CURVE SMOOTH",
"315 62.17 OFFCURVE",
"309.17 75.5 OFFCURVE",
"297.5 86.5 CURVE SMOOTH",
"285.83 97.5 OFFCURVE",
"272.17 103 OFFCURVE",
"256.5 103 CURVE SMOOTH",
"240.83 103 OFFCURVE",
"227.17 97.33 OFFCURVE",
"215.5 86 CURVE SMOOTH",
"203.83 74.67 OFFCURVE",
"198 61.33 OFFCURVE",
"198 46 CURVE SMOOTH",
"198 30.67 OFFCURVE",
"203.83 17.5 OFFCURVE",
"215.5 6.5 CURVE SMOOTH",
"227.17 -4.5 OFFCURVE",
"240.83 -10 OFFCURVE",
"256.5 -10 CURVE SMOOTH",
"272.17 -10 OFFCURVE",
"285.83 -4.5 OFFCURVE",
"297.5 6.5 CURVE SMOOTH"
);
},
{
closed = 1;
nodes = (
"298 203 LINE",
"298 377 LINE SMOOTH",
"298 401.63 OFFCURVE",
"311 425.79 OFFCURVE",
"337 449.5 CURVE SMOOTH",
"348.33 459.83 OFFCURVE",
"360.33 469.83 OFFCURVE",
"373 479.5 CURVE SMOOTH",
"385.67 489.17 OFFCURVE",
"397.67 499.5 OFFCURVE",
"409 510.5 CURVE SMOOTH",
"435 535.74 OFFCURVE",
"448 563.9 OFFCURVE",
"448 595 CURVE SMOOTH",
"448 647.83 OFFCURVE",
"428.5 689.33 OFFCURVE",
"389.5 719.5 CURVE SMOOTH",
"354.6 746.5 OFFCURVE",
"309.76 760 OFFCURVE",
"255 760 CURVE SMOOTH",
"199.15 760 OFFCURVE",
"154.65 747 OFFCURVE",
"121.5 721 CURVE SMOOTH",
"84.91 692.3 OFFCURVE",
"64.08 651.3 OFFCURVE",
"59 598 CURVE",
"142 598 LINE",
"145.33 629.33 OFFCURVE",
"157.5 652.83 OFFCURVE",
"178.5 668.5 CURVE SMOOTH",
"199.5 684.17 OFFCURVE",
"225.17 692 OFFCURVE",
"255.5 692 CURVE SMOOTH",
"285.83 692 OFFCURVE",
"311.33 684 OFFCURVE",
"332 668 CURVE SMOOTH",
"352.67 652 OFFCURVE",
"363 627.67 OFFCURVE",
"363 595 CURVE SMOOTH",
"363 579 OFFCURVE",
"358.58 564.77 OFFCURVE",
"349.73 552.3 CURVE SMOOTH",
"340.88 539.84 OFFCURVE",
"320.31 523.4 OFFCURVE",
"288 503 CURVE SMOOTH",
"238 471.42 OFFCURVE",
"213 429.75 OFFCURVE",
"213 378 CURVE SMOOTH",
"213 203 LINE"
);
}
);
width = 506;
}
);
note = question;
unicode = 003F;
},
{
glyphname = at;
lastChange = "2017-05-14 03:42:20 +0000";
layers = (
{
layerId = "7DC84FEC-FE63-4092-95B6-3924847BFAB0";
paths = (
{
closed = 1;
nodes = (
"279.83 192.83 OFFCURVE",
"275 206.5 OFFCURVE",
"275 221.5 CURVE SMOOTH",
"275 236.5 OFFCURVE",
"279.83 250.17 OFFCURVE",
"289.5 262.5 CURVE SMOOTH",
"299.17 274.83 OFFCURVE",
"313.5 281 OFFCURVE",
"332.5 281 CURVE SMOOTH",
"351.5 281 OFFCURVE",
"365.83 274.83 OFFCURVE",
"375.5 262.5 CURVE SMOOTH",
"385.17 250.17 OFFCURVE",
"390 236.5 OFFCURVE",
"390 221.5 CURVE SMOOTH",
"390 206.5 OFFCURVE",
"385.17 192.83 OFFCURVE",
"375.5 180.5 CURVE SMOOTH",
"365.83 168.17 OFFCURVE",
"351.5 162 OFFCURVE",
"332.5 162 CURVE SMOOTH",
"313.5 162 OFFCURVE",
"299.17 168.17 OFFCURVE",
"289.5 180.5 CURVE SMOOTH"
);
},
{
closed = 1;
nodes = (
"453 113 LINE",
"453 345 LINE SMOOTH",
"453 379.32 OFFCURVE",
"439.33 407.98 OFFCURVE",
"412 431 CURVE SMOOTH",
"385.08 453.67 OFFCURVE",
"350.75 465 OFFCURVE",
"309 465 CURVE SMOOTH",
"238.83 465 OFFCURVE",
"182.5 442.33 OFFCURVE",
"140 397 CURVE SMOOTH",
"98.67 352.91 OFFCURVE",
"78 296.24 OFFCURVE",
"78 227 CURVE SMOOTH",
"78 159.07 OFFCURVE",
"101 103.91 OFFCURVE",
"147 61.5 CURVE SMOOTH",
"191.47 20.5 OFFCURVE",
"248.81 0 OFFCURVE",
"319 0 CURVE SMOOTH",
"449 0 LINE",
"449 55 LINE",
"319 55 LINE SMOOTH",
"270.8 55 OFFCURVE",
"229.3 71.33 OFFCURVE",
"194.5 104 CURVE SMOOTH",
"158.17 138.11 OFFCURVE",
"140 179.11 OFFCURVE",
"140 227 CURVE SMOOTH",
"140 277.61 OFFCURVE",
"155.33 318.94 OFFCURVE",
"186 351 CURVE SMOOTH",
"200.67 366.33 OFFCURVE",
"218.5 378.17 OFFCURVE",
"239.5 386.5 CURVE SMOOTH",
"260.5 394.83 OFFCURVE",
"285 399 OFFCURVE",
"313 399 CURVE SMOOTH",
"341 399 OFFCURVE",
"362.67 391.83 OFFCURVE",
"378 377.5 CURVE SMOOTH",
"393.33 363.17 OFFCURVE",
"401 336 OFFCURVE",
"401 296 CURVE",
"381.67 325.33 OFFCURVE",
"353.67 339.33 OFFCURVE",
"317 338 CURVE",
"287.49 338 OFFCURVE",
"262.16 326.67 OFFCURVE",
"241 304 CURVE SMOOTH",
"221 282.57 OFFCURVE",
"211 256.9 OFFCURVE",
"211 227 CURVE SMOOTH",
"211 192.42 OFFCURVE",
"221.33 163.42 OFFCURVE",
"242 140 CURVE SMOOTH",
"252 128.67 OFFCURVE",
"263.83 119.67 OFFCURVE",
"277.5 113 CURVE SMOOTH",
"291.17 106.33 OFFCURVE",
"306.5 103 OFFCURVE",
"323.5 103 CURVE SMOOTH",
"340.5 103 OFFCURVE",
"356.67 107.33 OFFCURVE",
"372 116 CURVE SMOOTH",
"387.33 124.67 OFFCURVE",
"397 136.67 OFFCURVE",
"401 152 CURVE",
"401 113 LINE"
);
}
);
width = 551;
}
);
note = at;
unicode = 0040;
},
{
glyphname = A;
lastChange = "2017-05-14 03:42:20 +0000";
layers = (
{
layerId = "7DC84FEC-FE63-4092-95B6-3924847BFAB0";
paths = (
{
closed = 1;
nodes = (
"185.02 250 LINE",
"309 563 LINE",
"432.42 250 LINE"
);
},
{
closed = 1;
nodes = (
"607 0 LINE",
"309 727 LINE",
"10 0 LINE",
"86 0 LINE",
"159.28 185 LINE",
"458.05 185 LINE",
"531 0 LINE"
);
}
);
width = 617;
}
);
note = A;
unicode = 0041;
},
{
glyphname = B;
lastChange = "2017-05-14 03:42:20 +0000";
layers = (
{
layerId = "7DC84FEC-FE63-4092-95B6-3924847BFAB0";
paths = (
{
closed = 1;
nodes = (
"519 237.91 OFFCURVE",
"507.33 278.25 OFFCURVE",
"484 310.5 CURVE SMOOTH",
"460.6 342.85 OFFCURVE",
"428.93 364.35 OFFCURVE",
"389 375 CURVE",
"412.78 385.57 OFFCURVE",
"432.28 403.9 OFFCURVE",
"447.5 430 CURVE SMOOTH",
"454.5 442 OFFCURVE",
"459.83 454.5 OFFCURVE",
"463.5 467.5 CURVE SMOOTH",
"467.17 480.5 OFFCURVE",
"469 498.33 OFFCURVE",
"469 521 CURVE SMOOTH",
"469 543.67 OFFCURVE",
"463.67 566 OFFCURVE",
"453 588 CURVE SMOOTH",
"423.26 649.33 OFFCURVE",
"358.6 680 OFFCURVE",
"259 680 CURVE SMOOTH",
"75 680 LINE",
"75 0 LINE",
"283 0 LINE SMOOTH",
"352.31 0 OFFCURVE",
"407.64 15.83 OFFCURVE",
"449 47.5 CURVE SMOOTH",
"470.33 63.83 OFFCURVE",
"487.33 84.67 OFFCURVE",
"500 110 CURVE SMOOTH",
"512.67 135.33 OFFCURVE",
"519 161.83 OFFCURVE",
"519 189.5 CURVE SMOOTH"
);
},
{
closed = 1;
nodes = (
"399 473.33 OFFCURVE",
"388 446 OFFCURVE",
"366 428 CURVE SMOOTH",
"344 410 OFFCURVE",
"315 401 OFFCURVE",
"279 401 CURVE SMOOTH",
"145 401 LINE",
"145 613 LINE",
"259 613 LINE SMOOTH",
"352.33 613 OFFCURVE",
"399 578.67 OFFCURVE",
"399 510 CURVE SMOOTH"
);
},
{
closed = 1;
nodes = (
"449 162.54 OFFCURVE",
"435.17 129.54 OFFCURVE",
"407.5 104 CURVE SMOOTH",
"380.78 79.33 OFFCURVE",
"345.94 67 OFFCURVE",
"303 67 CURVE SMOOTH",
"145 67 LINE",
"145 331 LINE",
"314 331 LINE SMOOTH",
"349.8 331 OFFCURVE",
"380.96 319.17 OFFCURVE",
"407.5 295.5 CURVE SMOOTH",
"419.83 284.5 OFFCURVE",
"429.83 271.33 OFFCURVE",
"437.5 256 CURVE SMOOTH",
"445.17 240.67 OFFCURVE",
"449 223 OFFCURVE",
"449 203 CURVE SMOOTH"
);
}
);
width = 539;
}
);
note = B;
unicode = 0042;
},
{
glyphname = C;
lastChange = "2017-05-14 03:42:20 +0000";
layers = (
{
layerId = "7DC84FEC-FE63-4092-95B6-3924847BFAB0";
paths = (
{
closed = 1;
nodes = (
"622 208 LINE",
"598.67 164 OFFCURVE",
"565.83 128.67 OFFCURVE",
"523.5 102 CURVE SMOOTH",
"481.17 75.33 OFFCURVE",
"434.67 62 OFFCURVE",
"384 62 CURVE SMOOTH",
"309.48 62 OFFCURVE",
"245.65 89.67 OFFCURVE",
"192.5 145 CURVE SMOOTH",
"140.83 198.79 OFFCURVE",
"115 263.46 OFFCURVE",
"115 339 CURVE SMOOTH",
"115 415.21 OFFCURVE",
"140.83 480.21 OFFCURVE",
"192.5 534 CURVE SMOOTH",
"216.83 559.33 OFFCURVE",
"245.33 579.5 OFFCURVE",
"278 594.5 CURVE SMOOTH",
"310.67 609.5 OFFCURVE",
"342.67 617 OFFCURVE",
"374 617 CURVE SMOOTH",
"405.33 617 OFFCURVE",
"432.83 613.5 OFFCURVE",
"456.5 606.5 CURVE SMOOTH",
"529.38 584.94 OFFCURVE",
"584.21 540.44 OFFCURVE",
"621 473 CURVE",
"698 473 LINE",
"672.4 537.66 OFFCURVE",
"631.07 589.83 OFFCURVE",
"574 629.5 CURVE SMOOTH",
"516.94 669.17 OFFCURVE",
"453.6 689 OFFCURVE",
"384 689 CURVE SMOOTH",
"289.78 689 OFFCURVE",
"209.44 654.33 OFFCURVE",
"143 585 CURVE SMOOTH",
"112.33 553 OFFCURVE",
"88.33 515.83 OFFCURVE",
"71 473.5 CURVE SMOOTH",
"53.67 431.17 OFFCURVE",
"45 386.33 OFFCURVE",
"45 339 CURVE SMOOTH",
"45 243.84 OFFCURVE",
"77.67 162.17 OFFCURVE",
"143 94 CURVE SMOOTH",
"209.44 24.67 OFFCURVE",
"289.78 -10 OFFCURVE",
"384 -10 CURVE SMOOTH",
"453.31 -10 OFFCURVE",
"516.98 10.17 OFFCURVE",
"575 50.5 CURVE SMOOTH",
"632.43 90.42 OFFCURVE",
"673.77 142.92 OFFCURVE",
"699 208 CURVE"
);
}
);
width = 729;
}
);
note = C;
unicode = 0043;
},
{
glyphname = D;
lastChange = "2017-05-14 03:42:20 +0000";
layers = (
{
layerId = "7DC84FEC-FE63-4092-95B6-3924847BFAB0";
paths = (
{
closed = 1;
nodes = (
"603 389.33 OFFCURVE",
"593.83 434.83 OFFCURVE",
"575.5 476.5 CURVE SMOOTH",
"557.17 518.17 OFFCURVE",
"532.33 554 OFFCURVE",
"501 584 CURVE SMOOTH",
"469.67 614 OFFCURVE",
"432.67 637.5 OFFCURVE",
"390 654.5 CURVE SMOOTH",
"347.33 671.5 OFFCURVE",
"301.67 680 OFFCURVE",
"253 680 CURVE SMOOTH",
"75 680 LINE",
"75 0 LINE",
"253 0 LINE SMOOTH",
"301.67 0 OFFCURVE",
"347.33 8.5 OFFCURVE",
"390 25.5 CURVE SMOOTH",
"432.67 42.5 OFFCURVE",
"469.67 66 OFFCURVE",
"501 96 CURVE SMOOTH",
"532.33 126 OFFCURVE",
"557.17 161.83 OFFCURVE",
"575.5 203.5 CURVE SMOOTH",
"593.83 245.17 OFFCURVE",
"603 290.67 OFFCURVE",
"603 340 CURVE SMOOTH"
);
},
{
closed = 1;
nodes = (
"535 262.46 OFFCURVE",
"507.67 197.79 OFFCURVE",
"453 146 CURVE SMOOTH",
"399.52 95.33 OFFCURVE",
"333.52 70 OFFCURVE",
"255 70 CURVE SMOOTH",
"145 70 LINE",
"145 610 LINE",
"255 610 LINE SMOOTH",
"333.52 610 OFFCURVE",
"399.52 584.67 OFFCURVE",
"453 534 CURVE SMOOTH",
"507.67 482.21 OFFCURVE",
"535 417.54 OFFCURVE",
"535 340 CURVE SMOOTH"
);
}
);
width = 648;
}
);
note = D;
unicode = 0044;
},
{
glyphname = E;
lastChange = "2017-05-14 03:42:20 +0000";
layers = (
{
layerId = "7DC84FEC-FE63-4092-95B6-3924847BFAB0";
paths = (
{
closed = 1;
nodes = (
"479 0 LINE",
"479 65 LINE",
"145 65 LINE",
"145 307 LINE",
"469 307 LINE",
"469 373 LINE",
"145 373 LINE",
"145 615 LINE",
"479 615 LINE",
"479 680 LINE",
"75 680 LINE",
"75 0 LINE"
);
}
);
width = 554;
}
);
note = E;
unicode = 0045;
},
{
glyphname = F;
lastChange = "2017-05-14 03:42:20 +0000";
layers = (
{
layerId = "7DC84FEC-FE63-4092-95B6-3924847BFAB0";
paths = (
{
closed = 1;
nodes = (
"479 615 LINE",
"479 680 LINE",
"75 680 LINE",
"75 0 LINE",
"145 0 LINE",
"145 307 LINE",
"469 307 LINE",
"469 373 LINE",
"145 373 LINE",
"145 615 LINE"
);
}
);
width = 499;
}
);
note = F;
unicode = 0046;
},
{
glyphname = G;
lastChange = "2017-05-14 03:42:20 +0000";
layers = (
{
layerId = "7DC84FEC-FE63-4092-95B6-3924847BFAB0";
paths = (
{
closed = 1;
nodes = (
"746 318 LINE",
"392 318 LINE",
"392 257 LINE",
"668 257 LINE",
"647.89 198 OFFCURVE",
"612.77 150.75 OFFCURVE",
"562.65 115.25 CURVE SMOOTH",
"512.53 79.75 OFFCURVE",
"456.65 62 OFFCURVE",
"395 62 CURVE SMOOTH",
"317.29 62 OFFCURVE",
"251.19 89.6 OFFCURVE",
"196.71 144.79 CURVE SMOOTH",
"142.23 199.98 OFFCURVE",
"115 266.05 OFFCURVE",
"115 343 CURVE SMOOTH",
"115 420.33 OFFCURVE",
"142.33 486.33 OFFCURVE",
"197 541 CURVE SMOOTH",
"251.67 595.67 OFFCURVE",
"317.67 623 OFFCURVE",
"395 623 CURVE SMOOTH",
"453.26 623 OFFCURVE",
"506.11 606.6 OFFCURVE",
"553.58 573.79 CURVE SMOOTH",
"601.04 540.98 OFFCURVE",
"635.52 497.05 OFFCURVE",
"657 442 CURVE",
"731 442 LINE",
"708.23 517.01 OFFCURVE",
"665.72 577.6 OFFCURVE",
"603.47 623.76 CURVE SMOOTH",
"541.22 669.92 OFFCURVE",
"469.4 693 OFFCURVE",
"388 693 CURVE SMOOTH",
"344.67 693 OFFCURVE",
"301.67 683.83 OFFCURVE",
"259 665.5 CURVE SMOOTH",
"216.33 647.17 OFFCURVE",
"179.17 622.17 OFFCURVE",
"147.5 590.5 CURVE SMOOTH",
"115.83 558.83 OFFCURVE",
"90.83 521.67 OFFCURVE",
"72.5 479 CURVE SMOOTH",
"54.17 436.33 OFFCURVE",
"45 390.83 OFFCURVE",
"45 342.5 CURVE SMOOTH",
"45 294.17 OFFCURVE",
"54.17 248.67 OFFCURVE",
"72.5 206 CURVE SMOOTH",
"90.83 163.33 OFFCURVE",
"115.83 126.17 OFFCURVE",
"147.5 94.5 CURVE SMOOTH",
"179.17 62.83 OFFCURVE",
"216.33 37.83 OFFCURVE",
"259 19.5 CURVE SMOOTH",
"301.67 1.17 OFFCURVE",
"347 -8 OFFCURVE",
"395 -8 CURVE SMOOTH",
"477.45 -8 OFFCURVE",
"551.73 18.65 OFFCURVE",
"617.83 71.96 CURVE SMOOTH",
"683.93 125.27 OFFCURVE",
"724.32 193.28 OFFCURVE",
"739 276 CURVE SMOOTH"
);
}
);
width = 791;
}
);
note = G;
unicode = 0047;
},
{
glyphname = H;
lastChange = "2017-05-14 03:42:20 +0000";
layers = (
{
layerId = "7DC84FEC-FE63-4092-95B6-3924847BFAB0";
paths = (
{
closed = 1;
nodes = (
"145 0 LINE",
"145 304 LINE",
"454 304 LINE",
"454 0 LINE",
"524 0 LINE",
"524 680 LINE",
"454 680 LINE",
"454 374 LINE",
"145 374 LINE",
"145 680 LINE",
"75 680 LINE",
"75 0 LINE"
);
}
);
width = 599;
}
);
note = H;
unicode = 0048;
},
{
glyphname = I;
lastChange = "2017-05-14 03:42:20 +0000";
layers = (
{
layerId = "7DC84FEC-FE63-4092-95B6-3924847BFAB0";
paths = (
{
closed = 1;
nodes = (
"145 0 LINE",
"145 680 LINE",
"75 680 LINE",
"75 0 LINE"
);
}
);
width = 220;
}
);
note = I;
unicode = 0049;
},
{
glyphname = J;
lastChange = "2017-05-14 03:42:20 +0000";
layers = (
{
layerId = "7DC84FEC-FE63-4092-95B6-3924847BFAB0";
paths = (
{
closed = 1;
nodes = (
"305 680 LINE",
"235 680 LINE",
"235 168 LINE SMOOTH",
"235 125.38 OFFCURVE",
"218.83 95.05 OFFCURVE",
"186.5 77 CURVE SMOOTH",
"159.23 61.78 OFFCURVE",
"126.23 56.44 OFFCURVE",
"87.5 61 CURVE SMOOTH",
"51.07 65.29 OFFCURVE",
"23.57 75.29 OFFCURVE",
"5 91 CURVE",
"5 14 LINE",
"11.67 8.67 OFFCURVE",
"23.83 3.5 OFFCURVE",
"41.5 -1.5 CURVE SMOOTH",
"59.17 -6.5 OFFCURVE",
"79.17 -9.33 OFFCURVE",
"101.5 -10 CURVE SMOOTH",
"155.68 -11.62 OFFCURVE",
"200.68 -0.28 OFFCURVE",
"236.5 24 CURVE SMOOTH",
"282.17 54.96 OFFCURVE",
"305 102.96 OFFCURVE",
"305 168 CURVE SMOOTH"
);
}
);
width = 365;
}
);
note = J;
unicode = 004A;
},
{
glyphname = K;
lastChange = "2017-05-14 03:42:20 +0000";
layers = (
{
layerId = "7DC84FEC-FE63-4092-95B6-3924847BFAB0";
paths = (
{
closed = 1;
nodes = (
"145 0 LINE",
"145 319.1 LINE",
"374 0 LINE",
"464 0 LINE",
"214 340 LINE",
"464 680 LINE",
"374 680 LINE",
"145 360.9 LINE",
"145 680 LINE",
"75 680 LINE",
"75 0 LINE"
);
}
);
width = 474;
}
);
note = K;
unicode = 004B;
},
{
glyphname = L;
lastChange = "2017-05-14 03:42:20 +0000";
layers = (
{
layerId = "7DC84FEC-FE63-4092-95B6-3924847BFAB0";
paths = (
{
closed = 1;
nodes = (
"145 70 LINE",
"145 680 LINE",
"75 680 LINE",
"75 0 LINE",
"110 0 LINE",
"145 0 LINE",
"388 0 LINE",
"388 70 LINE"
);
}
);
width = 408;
}
);
note = L;
unicode = 004C;
},
{
glyphname = M;
lastChange = "2017-05-14 03:42:20 +0000";
layers = (
{
layerId = "7DC84FEC-FE63-4092-95B6-3924847BFAB0";
paths = (
{
closed = 1;
nodes = (
"702 0 LINE",
"773 0 LINE",
"615 725 LINE",
"392 143 LINE",
"169 725 LINE",
"10 0 LINE",
"82 0 LINE",
"187 484 LINE",
"392 -40 LINE",
"596 484 LINE"
);
}
);
width = 783;
}
);
note = M;
unicode = 004D;
},
{
glyphname = N;
lastChange = "2017-05-14 03:42:20 +0000";
layers = (
{
layerId = "7DC84FEC-FE63-4092-95B6-3924847BFAB0";
paths = (
{
closed = 1;
nodes = (
"145 501 LINE",
"527 -42 LINE",
"527 680 LINE",
"457 680 LINE",
"457 180 LINE",
"75 723 LINE",
"75 0 LINE",
"145 0 LINE"
);
}
);
width = 602;
}
);
note = N;
unicode = 004E;
},
{
glyphname = O;
lastChange = "2017-05-14 03:42:20 +0000";
layers = (
{
layerId = "7DC84FEC-FE63-4092-95B6-3924847BFAB0";
paths = (
{
closed = 1;
nodes = (
"674 264.67 OFFCURVE",
"646.67 198.67 OFFCURVE",
"592 144 CURVE SMOOTH",
"537.33 89.33 OFFCURVE",
"471.33 62 OFFCURVE",
"394 62 CURVE SMOOTH",
"317.33 62 OFFCURVE",
"251.67 89.33 OFFCURVE",
"197 144 CURVE SMOOTH",
"142.33 198.67 OFFCURVE",
"115 264.67 OFFCURVE",
"115 342 CURVE SMOOTH",
"115 418.67 OFFCURVE",
"142.33 484.33 OFFCURVE",
"197 539 CURVE SMOOTH",
"251.67 593.67 OFFCURVE",
"317.33 621 OFFCURVE",
"394 621 CURVE SMOOTH",
"471.33 621 OFFCURVE",
"537.33 593.67 OFFCURVE",
"592 539 CURVE SMOOTH",
"646.67 484.33 OFFCURVE",
"674 418.67 OFFCURVE",
"674 342 CURVE SMOOTH"
);
},
{
closed = 1;
nodes = (
"744 390 OFFCURVE",
"734.83 435.33 OFFCURVE",
"716.5 478 CURVE SMOOTH",
"698.17 520.67 OFFCURVE",
"673.17 557.67 OFFCURVE",
"641.5 589 CURVE SMOOTH",
"609.83 620.33 OFFCURVE",
"572.67 645.17 OFFCURVE",
"530 663.5 CURVE SMOOTH",
"487.33 681.83 OFFCURVE",
"442 691 OFFCURVE",
"394 691 CURVE SMOOTH",
"346 691 OFFCURVE",
"300.83 681.83 OFFCURVE",
"258.5 663.5 CURVE SMOOTH",
"216.17 645.17 OFFCURVE",
"179.17 620.33 OFFCURVE",
"147.5 589 CURVE SMOOTH",
"115.83 557.67 OFFCURVE",
"90.83 520.67 OFFCURVE",
"72.5 478 CURVE SMOOTH",
"54.17 435.33 OFFCURVE",
"45 390 OFFCURVE",
"45 342 CURVE SMOOTH",
"45 294 OFFCURVE",
"54.17 248.67 OFFCURVE",
"72.5 206 CURVE SMOOTH",
"90.83 163.33 OFFCURVE",
"115.83 126.17 OFFCURVE",
"147.5 94.5 CURVE SMOOTH",
"179.17 62.83 OFFCURVE",
"216.17 37.83 OFFCURVE",
"258.5 19.5 CURVE SMOOTH",
"300.83 1.17 OFFCURVE",
"346 -8 OFFCURVE",
"394 -8 CURVE SMOOTH",
"442 -8 OFFCURVE",
"487.33 1.17 OFFCURVE",
"530 19.5 CURVE SMOOTH",
"572.67 37.83 OFFCURVE",
"609.83 62.83 OFFCURVE",
"641.5 94.5 CURVE SMOOTH",
"673.17 126.17 OFFCURVE",
"698.17 163.33 OFFCURVE",
"716.5 206 CURVE SMOOTH",
"734.83 248.67 OFFCURVE",
"744 294 OFFCURVE",
"744 342 CURVE SMOOTH"
);
}
);
width = 789;
}
);
note = O;
unicode = 004F;
},
{
glyphname = P;
lastChange = "2017-05-14 03:42:20 +0000";
layers = (
{
layerId = "7DC84FEC-FE63-4092-95B6-3924847BFAB0";
paths = (
{
closed = 1;
nodes = (
"145 337.27 LINE",
"145 613.27 LINE",
"303 613.27 LINE SMOOTH",
"344.33 613.27 OFFCURVE",
"377.33 600.6 OFFCURVE",
"402 575.27 CURVE SMOOTH",
"426.67 549.94 OFFCURVE",
"439 517.2 OFFCURVE",
"439 477.06 CURVE SMOOTH",
"439 436.92 OFFCURVE",
"426 403.49 OFFCURVE",
"400 376.77 CURVE SMOOTH",
"374.38 350.44 OFFCURVE",
"342.04 337.27 OFFCURVE",
"303 337.27 CURVE SMOOTH"
);
},
{
closed = 1;
nodes = (
"509 535.19 OFFCURVE",
"487.83 584.52 OFFCURVE",
"445.5 623.27 CURVE SMOOTH",
"403.98 661.27 OFFCURVE",
"353.15 680.27 OFFCURVE",
"293 680.27 CURVE SMOOTH",
"75 680.27 LINE",
"75 0.27 LINE",
"145 0.27 LINE",
"145 269.27 LINE",
"293 269.27 LINE SMOOTH",
"353.55 269.27 OFFCURVE",
"404.38 288.44 OFFCURVE",
"445.5 326.77 CURVE SMOOTH",
"487.83 366.23 OFFCURVE",
"509 415.73 OFFCURVE",
"509 475.27 CURVE SMOOTH"
);
}
);
width = 529;
}
);
note = P;
unicode = 0050;
},
{
glyphname = Q;
lastChange = "2017-05-14 03:42:20 +0000";
layers = (
{
layerId = "7DC84FEC-FE63-4092-95B6-3924847BFAB0";
paths = (
{
closed = 1;
nodes = (
"744 387 OFFCURVE",
"734.83 432.33 OFFCURVE",
"716.5 475 CURVE SMOOTH",
"698.17 517.67 OFFCURVE",
"673.17 554.83 OFFCURVE",
"641.5 586.5 CURVE SMOOTH",
"609.83 618.17 OFFCURVE",
"572.67 643.17 OFFCURVE",
"530 661.5 CURVE SMOOTH",
"487.33 679.83 OFFCURVE",
"442 689 OFFCURVE",
"394 689 CURVE SMOOTH",
"346 689 OFFCURVE",
"300.83 679.83 OFFCURVE",
"258.5 661.5 CURVE SMOOTH",
"216.17 643.17 OFFCURVE",
"179.17 618.17 OFFCURVE",
"147.5 586.5 CURVE SMOOTH",
"115.83 554.83 OFFCURVE",
"90.83 517.67 OFFCURVE",
"72.5 475 CURVE SMOOTH",
"54.17 432.33 OFFCURVE",
"45 387 OFFCURVE",
"45 339 CURVE SMOOTH",
"45 291 OFFCURVE",
"54.17 245.83 OFFCURVE",
"72.5 203.5 CURVE SMOOTH",
"90.83 161.17 OFFCURVE",
"115.83 124.17 OFFCURVE",
"147.5 92.5 CURVE SMOOTH",
"179.17 60.83 OFFCURVE",
"216.17 35.83 OFFCURVE",
"258.5 17.5 CURVE SMOOTH",
"300.83 -0.83 OFFCURVE",
"346 -10 OFFCURVE",
"394 -10 CURVE SMOOTH",
"422.95 -10 OFFCURVE",
"450.92 -6.67 OFFCURVE",
"477.93 0 CURVE",
"754 0 LINE",
"754 57 LINE",
"652 57 LINE",
"627.5 51.51 OFFCURVE",
"601.28 45.7 OFFCURVE",
"573.36 39.55 CURVE",
"598.36 54.43 OFFCURVE",
"621.07 72.08 OFFCURVE",
"641.5 92.5 CURVE SMOOTH",
"673.17 124.17 OFFCURVE",
"698.17 161.17 OFFCURVE",
"716.5 203.5 CURVE SMOOTH",
"734.83 245.83 OFFCURVE",
"744 291 OFFCURVE",
"744 339 CURVE SMOOTH"
);
},
{
closed = 1;
nodes = (
"674 262.33 OFFCURVE",
"646.67 196.67 OFFCURVE",
"592 142 CURVE SMOOTH",
"537.33 87.33 OFFCURVE",
"471.33 60 OFFCURVE",
"394 60 CURVE SMOOTH",
"317.33 60 OFFCURVE",
"251.67 87.33 OFFCURVE",
"197 142 CURVE SMOOTH",
"142.33 196.67 OFFCURVE",
"115 262.33 OFFCURVE",
"115 339 CURVE SMOOTH",
"115 416.33 OFFCURVE",
"142.33 482.33 OFFCURVE",
"197 537 CURVE SMOOTH",
"251.67 591.67 OFFCURVE",
"317.33 619 OFFCURVE",
"394 619 CURVE SMOOTH",
"471.33 619 OFFCURVE",
"537.33 591.67 OFFCURVE",
"592 537 CURVE SMOOTH",
"646.67 482.33 OFFCURVE",
"674 416.33 OFFCURVE",
"674 339 CURVE SMOOTH"
);
}
);
width = 784;
}
);
note = Q;
unicode = 0051;
},
{
glyphname = R;
lastChange = "2017-05-14 03:42:20 +0000";
layers = (
{
layerId = "7DC84FEC-FE63-4092-95B6-3924847BFAB0";
paths = (
{
closed = 1;
nodes = (
"145 336 LINE",
"145 613 LINE",
"303 613 LINE SMOOTH",
"344.33 613 OFFCURVE",
"377.33 600.17 OFFCURVE",
"402 574.5 CURVE SMOOTH",
"426.67 548.83 OFFCURVE",
"439 516.19 OFFCURVE",
"439 476.58 CURVE SMOOTH",
"439 436.97 OFFCURVE",
"426 403.44 OFFCURVE",
"400 376 CURVE SMOOTH",
"374.74 349.33 OFFCURVE",
"342.4 336 OFFCURVE",
"303 336 CURVE SMOOTH"
);
},
{
closed = 1;
nodes = (
"509 533.87 OFFCURVE",
"487.83 583.04 OFFCURVE",
"445.5 622.5 CURVE SMOOTH",
"404.38 660.83 OFFCURVE",
"353.55 680 OFFCURVE",
"293 680 CURVE SMOOTH",
"75 680 LINE",
"75 0 LINE",
"145 0 LINE",
"145 269 LINE",
"226.63 269 LINE",
"426 0 LINE",
"520 0 LINE",
"310.66 269.56 LINE",
"363.49 272.97 OFFCURVE",
"408.44 291.95 OFFCURVE",
"445.5 326.5 CURVE SMOOTH",
"487.83 365.96 OFFCURVE",
"509 415.46 OFFCURVE",
"509 475 CURVE SMOOTH"
);
}
);
width = 544;
}
);
note = R;
unicode = 0052;
},
{
glyphname = S;
lastChange = "2017-05-14 03:42:20 +0000";
layers = (
{
layerId = "7DC84FEC-FE63-4092-95B6-3924847BFAB0";
paths = (
{
closed = 1;
nodes = (
"351.96 299.62 OFFCURVE",
"411.72 276.23 OFFCURVE",
"443.15 250.59 CURVE SMOOTH",
"465.05 232.87 OFFCURVE",
"476 209.84 OFFCURVE",
"476 181.51 CURVE SMOOTH",
"476 153.18 OFFCURVE",
"470.12 130.82 OFFCURVE",
"458.37 114.43 CURVE SMOOTH",
"428.12 72.15 OFFCURVE",
"374.99 51.01 OFFCURVE",
"298.96 51.01 CURVE SMOOTH",
"192.32 51.01 OFFCURVE",
"132.59 87.01 OFFCURVE",
"119.76 159.01 CURVE",
"37.01 159.01 LINE",
"61.01 44.34 OFFCURVE",
"148.31 -12.99 OFFCURVE",
"298.91 -12.99 CURVE SMOOTH",
"365.64 -12.99 OFFCURVE",
"421.67 1.82 OFFCURVE",
"467 31.43 CURVE SMOOTH",
"521.01 66.48 OFFCURVE",
"548.06 118.18 OFFCURVE",
"548.16 186.51 CURVE",
"548.06 242.18 OFFCURVE",
"526.3 285.29 OFFCURVE",
"482.86 315.86 CURVE SMOOTH",
"451.63 337.96 OFFCURVE",
"401.38 357.98 OFFCURVE",
"332.13 375.91 CURVE SMOOTH",
"262.87 393.85 OFFCURVE",
"217.54 408.5 OFFCURVE",
"196.14 419.86 CURVE SMOOTH",
"150.64 442.73 OFFCURVE",
"127.98 474.99 OFFCURVE",
"128.16 516.61 CURVE",
"128.06 538.87 OFFCURVE",
"132.97 557.19 OFFCURVE",
"142.88 571.57 CURVE SMOOTH",
"168.97 610.53 OFFCURVE",
"214.85 630 OFFCURVE",
"280.51 630 CURVE SMOOTH",
"373.51 630 OFFCURVE",
"426.8 600.67 OFFCURVE",
"440.37 542 CURVE",
"516.09 542 LINE",
"491.24 640.67 OFFCURVE",
"412.71 690 OFFCURVE",
"280.51 690 CURVE SMOOTH",
"220.18 690 OFFCURVE",
"167.68 674.17 OFFCURVE",
"123.01 642.5 CURVE SMOOTH",
"78.34 610.83 OFFCURVE",
"55.99 563.07 OFFCURVE",
"55.94 499.21 CURVE SMOOTH",
"55.88 412.39 OFFCURVE",
"125.2 352.9 OFFCURVE",
"263.9 320.74 CURVE SMOOTH"
);
}
);
width = 574;
}
);
note = S;
unicode = 0053;
},
{
glyphname = T;
lastChange = "2017-05-14 03:42:20 +0000";
layers = (
{
layerId = "7DC84FEC-FE63-4092-95B6-3924847BFAB0";
paths = (
{
closed = 1;
nodes = (
"20 617 LINE",
"185 617 LINE",
"185 2 LINE",
"255 2 LINE",
"255 617 LINE",
"420 617 LINE",
"420 682 LINE",
"255 682 LINE",
"185 682 LINE",
"20 682 LINE"
);
}
);
width = 440;
}
);
note = T;
unicode = 0054;
},
{
glyphname = U;
lastChange = "2017-05-14 03:42:20 +0000";
layers = (
{
layerId = "7DC84FEC-FE63-4092-95B6-3924847BFAB0";
paths = (
{
closed = 1;
nodes = (
"567 680 LINE",
"497 680 LINE",
"497 215 LINE SMOOTH",
"497 187.67 OFFCURVE",
"492 164.33 OFFCURVE",
"482 145 CURVE SMOOTH",
"453.03 89 OFFCURVE",
"397.03 61 OFFCURVE",
"314 61 CURVE SMOOTH",
"260.54 61 OFFCURVE",
"217.71 73 OFFCURVE",
"185.5 97 CURVE SMOOTH",
"148.5 124.57 OFFCURVE",
"130 163.9 OFFCURVE",
"130 215 CURVE SMOOTH",
"130 680 LINE",
"60 680 LINE",
"60 225 LINE SMOOTH",
"60 151.35 OFFCURVE",
"84 93.35 OFFCURVE",
"132 51 CURVE SMOOTH",
"177.33 11 OFFCURVE",
"238 -9 OFFCURVE",
"314 -9 CURVE SMOOTH",
"389.33 -9 OFFCURVE",
"449.67 11 OFFCURVE",
"495 51 CURVE SMOOTH",
"543 93.35 OFFCURVE",
"567 151.35 OFFCURVE",
"567 225 CURVE SMOOTH"
);
}
);
width = 627;
}
);
note = U;
unicode = 0055;
},
{
glyphname = V;
lastChange = "2017-05-14 03:42:20 +0000";
layers = (
{
layerId = "7DC84FEC-FE63-4092-95B6-3924847BFAB0";
paths = (
{
closed = 1;
nodes = (
"319 -41 LINE",
"627 680 LINE",
"551 680 LINE",
"319 132 LINE",
"86 680 LINE",
"10 680 LINE"
);
}
);
width = 637;
}
);
note = V;
unicode = 0056;
},
{
glyphname = W;
lastChange = "2017-05-14 03:42:20 +0000";
layers = (
{
layerId = "7DC84FEC-FE63-4092-95B6-3924847BFAB0";
paths = (
{
closed = 1;
nodes = (
"615 -55 LINE",
"773 680 LINE",
"702 680 LINE",
"596 186 LINE",
"392 720 LINE",
"187 186 LINE",
"82 680 LINE",
"10 680 LINE",
"169 -55 LINE",
"392 537 LINE"
);
}
);
width = 783;
}
);
note = W;
unicode = 0057;
},
{
glyphname = X;
lastChange = "2017-05-14 03:42:20 +0000";
layers = (
{
layerId = "7DC84FEC-FE63-4092-95B6-3924847BFAB0";
paths = (
{
closed = 1;
nodes = (
"499 0 LINE",
"585 0 LINE",
"346 340 LINE",
"585 680 LINE",
"499 680 LINE",
"303 390 LINE",
"107 680 LINE",
"20 680 LINE",
"260 339 LINE",
"21 0 LINE",
"107 0 LINE",
"303 290 LINE"
);
}
);
width = 606;
}
);
note = X;
unicode = 0058;
},
{
glyphname = Y;
lastChange = "2017-05-14 03:42:20 +0000";
layers = (
{
layerId = "7DC84FEC-FE63-4092-95B6-3924847BFAB0";
paths = (
{
closed = 1;
nodes = (
"338 320.02 LINE",
"595 680 LINE",
"506 680 LINE",
"303 389 LINE",
"100 680 LINE",
"10 680 LINE",
"268 319.86 LINE",
"268 0 LINE",
"338 0 LINE"
);
}
);
width = 605;
}
);
note = Y;
unicode = 0059;
},
{
glyphname = Z;
lastChange = "2017-05-14 03:42:20 +0000";
layers = (
{
layerId = "7DC84FEC-FE63-4092-95B6-3924847BFAB0";
paths = (
{
closed = 1;
nodes = (
"152 65 LINE",
"555 680 LINE",
"46 680 LINE",
"46 615 LINE",
"428 615 LINE",
"25 0 LINE",
"538 0 LINE",
"538 65 LINE"
);
}
);
width = 580;
}
);
note = Z;
unicode = 005A;
},
{
glyphname = bracketleft;
lastChange = "2017-05-14 03:42:20 +0000";
layers = (
{
layerId = "7DC84FEC-FE63-4092-95B6-3924847BFAB0";
paths = (
{
closed = 1;
nodes = (
"279 -213 LINE",
"279 -163 LINE",
"164 -163 LINE",
"164 701 LINE",
"279 701 LINE",
"279 750 LINE",
"98 750 LINE",
"98 -213 LINE"
);
}
);
width = 352;
}
);
note = bracketleft;
unicode = 005B;
},
{
glyphname = backslash;
lastChange = "2017-05-14 03:42:20 +0000";
layers = (
{
layerId = "7DC84FEC-FE63-4092-95B6-3924847BFAB0";
paths = (
{
closed = 1;
nodes = (
"506 -201 LINE",
"118 750 LINE",
"43 750 LINE",
"432 -201 LINE"
);
}
);
width = 538;
}
);
note = backslash;
unicode = 005C;
},
{
glyphname = bracketright;
lastChange = "2017-05-14 03:42:20 +0000";
layers = (
{
layerId = "7DC84FEC-FE63-4092-95B6-3924847BFAB0";
paths = (
{
closed = 1;
nodes = (
"254 -213 LINE",
"254 750 LINE",
"73 750 LINE",
"73 701 LINE",
"188 701 LINE",
"188 -163 LINE",
"73 -163 LINE",
"73 -213 LINE"
);
}
);
width = 352;
}
);
note = bracketright;
unicode = 005D;
},
{
glyphname = asciicircum;
lastChange = "2017-05-14 03:42:20 +0000";
layers = (
{
layerId = "7DC84FEC-FE63-4092-95B6-3924847BFAB0";
paths = (
{
closed = 1;
nodes = (
"527 343 LINE",
"344 679 LINE",
"241 679 LINE",
"59 343 LINE",
"136 343 LINE",
"293 634 LINE",
"450 343 LINE"
);
}
);
width = 585;
}
);
note = asciicircum;
unicode = 005E;
},
{
glyphname = underscore;
lastChange = "2017-05-14 03:42:20 +0000";
layers = (
{
layerId = "7DC84FEC-FE63-4092-95B6-3924847BFAB0";
paths = (
{
closed = 1;
nodes = (
"563 -146 LINE",
"563 -88 LINE",
"23 -88 LINE",
"23 -146 LINE"
);
}
);
width = 585;
}
);
note = underscore;
unicode = 005F;
},
{
glyphname = grave;
lastChange = "2017-05-14 03:42:20 +0000";
layers = (
{
layerId = "7DC84FEC-FE63-4092-95B6-3924847BFAB0";
paths = (
{
closed = 1;
nodes = (
"166 750 LINE",
"76 893 LINE",
"0 893 LINE",
"110 750 LINE"
);
}
);
width = 186;
}
);
note = grave;
unicode = 0060;
},
{
glyphname = a;
lastChange = "2017-05-14 03:42:20 +0000";
layers = (
{
layerId = "7DC84FEC-FE63-4092-95B6-3924847BFAB0";
paths = (
{
closed = 1;
nodes = (
"425 177.17 OFFCURVE",
"410.17 139.84 OFFCURVE",
"380.5 108 CURVE SMOOTH",
"350.68 76 OFFCURVE",
"313.85 60 OFFCURVE",
"270 60 CURVE SMOOTH",
"226.15 60 OFFCURVE",
"189.32 76 OFFCURVE",
"159.5 108 CURVE SMOOTH",
"129.83 139.84 OFFCURVE",
"115 177.17 OFFCURVE",
"115 220 CURVE SMOOTH",
"115 262.83 OFFCURVE",
"129.83 300.16 OFFCURVE",
"159.5 332 CURVE SMOOTH",
"189.32 364 OFFCURVE",
"226.15 380 OFFCURVE",
"270 380 CURVE SMOOTH",
"313.85 380 OFFCURVE",
"350.68 364 OFFCURVE",
"380.5 332 CURVE SMOOTH",
"410.17 300.16 OFFCURVE",
"425 262.83 OFFCURVE",
"425 220 CURVE SMOOTH"
);
},
{
closed = 1;
nodes = (
"495 0 LINE",
"495 440 LINE",
"425 440 LINE",
"425 364.87 LINE",
"421.07 370.01 OFFCURVE",
"416.91 375.06 OFFCURVE",
"412.5 380 CURVE SMOOTH",
"370.94 426.67 OFFCURVE",
"319.77 450 OFFCURVE",
"259 450 CURVE SMOOTH",
"198.23 450 OFFCURVE",
"147.06 426.67 OFFCURVE",
"105.5 380 CURVE SMOOTH",
"65.17 334.71 OFFCURVE",
"45 281.38 OFFCURVE",
"45 220 CURVE SMOOTH",
"45 158.62 OFFCURVE",
"65.17 105.29 OFFCURVE",
"105.5 60 CURVE SMOOTH",
"147.06 13.33 OFFCURVE",
"198.23 -10 OFFCURVE",
"259 -10 CURVE SMOOTH",
"319.77 -10 OFFCURVE",
"370.94 13.33 OFFCURVE",
"412.5 60 CURVE SMOOTH",
"416.91 64.95 OFFCURVE",
"421.07 69.99 OFFCURVE",
"425 75.13 CURVE",
"425 0 LINE"
);
}
);
width = 570;
}
);
note = a;
unicode = 0061;
},
{
glyphname = b;
lastChange = "2017-05-14 03:42:20 +0000";
layers = (
{
layerId = "7DC84FEC-FE63-4092-95B6-3924847BFAB0";
paths = (
{
closed = 1;
nodes = (
"145 0 LINE",
"145 75.13 LINE",
"148.93 69.99 OFFCURVE",
"153.09 64.94 OFFCURVE",
"157.5 60 CURVE SMOOTH",
"199.06 13.33 OFFCURVE",
"250.23 -10 OFFCURVE",
"311 -10 CURVE SMOOTH",
"371.77 -10 OFFCURVE",
"422.94 13.33 OFFCURVE",
"464.5 60 CURVE SMOOTH",
"504.83 105.29 OFFCURVE",
"525 158.62 OFFCURVE",
"525 220 CURVE SMOOTH",
"525 281.38 OFFCURVE",
"504.83 334.71 OFFCURVE",
"464.5 380 CURVE SMOOTH",
"422.94 426.67 OFFCURVE",
"371.77 450 OFFCURVE",
"311 450 CURVE SMOOTH",
"250.23 450 OFFCURVE",
"199.06 426.67 OFFCURVE",
"157.5 380 CURVE SMOOTH",
"153.09 375.05 OFFCURVE",
"148.93 370.01 OFFCURVE",
"145 364.87 CURVE",
"145 750 LINE",
"75 750 LINE",
"75 0 LINE"
);
},
{
closed = 1;
nodes = (
"455 177.17 OFFCURVE",
"440.17 139.84 OFFCURVE",
"410.5 108 CURVE SMOOTH",
"380.68 76 OFFCURVE",
"343.85 60 OFFCURVE",
"300 60 CURVE SMOOTH",
"256.15 60 OFFCURVE",
"219.32 76 OFFCURVE",
"189.5 108 CURVE SMOOTH",
"159.83 139.84 OFFCURVE",
"145 177.17 OFFCURVE",
"145 220 CURVE SMOOTH",
"145 262.83 OFFCURVE",
"159.83 300.16 OFFCURVE",
"189.5 332 CURVE SMOOTH",
"219.32 364 OFFCURVE",
"256.15 380 OFFCURVE",
"300 380 CURVE SMOOTH",
"343.85 380 OFFCURVE",
"380.68 364 OFFCURVE",
"410.5 332 CURVE SMOOTH",
"440.17 300.16 OFFCURVE",
"455 262.83 OFFCURVE",
"455 220 CURVE SMOOTH"
);
}
);
width = 570;
}
);
note = b;
unicode = 0062;
},
{
glyphname = c;
lastChange = "2017-05-14 03:42:20 +0000";
layers = (
{
layerId = "7DC84FEC-FE63-4092-95B6-3924847BFAB0";
paths = (
{
closed = 1;
nodes = (
"486 282 LINE",
"472.18 331.76 OFFCURVE",
"445.68 371.76 OFFCURVE",
"406.5 402 CURVE SMOOTH",
"365.91 433.33 OFFCURVE",
"320.41 449 OFFCURVE",
"270 449 CURVE SMOOTH",
"207.2 449 OFFCURVE",
"153.87 426.33 OFFCURVE",
"110 381 CURVE SMOOTH",
"66.67 336.22 OFFCURVE",
"45 282.56 OFFCURVE",
"45 220 CURVE SMOOTH",
"45 157.83 OFFCURVE",
"66.67 104 OFFCURVE",
"110 58.5 CURVE SMOOTH",
"130 37.5 OFFCURVE",
"153.67 20.83 OFFCURVE",
"181 8.5 CURVE SMOOTH",
"208.33 -3.83 OFFCURVE",
"236 -10 OFFCURVE",
"264 -10 CURVE SMOOTH",
"292 -10 OFFCURVE",
"317 -6.17 OFFCURVE",
"339 1.5 CURVE SMOOTH",
"409.47 26.06 OFFCURVE",
"457.14 73.56 OFFCURVE",
"482 144 CURVE",
"403 144 LINE",
"389.67 119.33 OFFCURVE",
"371.17 99.67 OFFCURVE",
"347.5 85 CURVE SMOOTH",
"323.83 70.33 OFFCURVE",
"298 63 OFFCURVE",
"270 63 CURVE SMOOTH",
"227.22 63 OFFCURVE",
"191.06 78.5 OFFCURVE",
"161.5 109.5 CURVE SMOOTH",
"131.83 140.61 OFFCURVE",
"117 177.45 OFFCURVE",
"117 220 CURVE SMOOTH",
"117 261.89 OFFCURVE",
"131.83 298.39 OFFCURVE",
"161.5 329.5 CURVE SMOOTH",
"175.17 343.83 OFFCURVE",
"191.33 355.17 OFFCURVE",
"210 363.5 CURVE SMOOTH",
"228.67 371.83 OFFCURVE",
"251 376 OFFCURVE",
"277 376 CURVE SMOOTH",
"303 376 OFFCURVE",
"328.67 367.33 OFFCURVE",
"354 350 CURVE SMOOTH",
"379.33 332.67 OFFCURVE",
"398 310 OFFCURVE",
"410 282 CURVE"
);
}
);
width = 521;
}
);
note = c;
unicode = 0063;
},
{
glyphname = d;
lastChange = "2017-05-14 03:42:20 +0000";
layers = (
{
layerId = "7DC84FEC-FE63-4092-95B6-3924847BFAB0";
paths = (
{
closed = 1;
nodes = (
"425 177.17 OFFCURVE",
"410.17 139.84 OFFCURVE",
"380.5 108 CURVE SMOOTH",
"350.68 76 OFFCURVE",
"313.85 60 OFFCURVE",
"270 60 CURVE SMOOTH",
"226.15 60 OFFCURVE",
"189.32 76 OFFCURVE",
"159.5 108 CURVE SMOOTH",
"129.83 139.84 OFFCURVE",
"115 177.17 OFFCURVE",
"115 220 CURVE SMOOTH",
"115 262.83 OFFCURVE",
"129.83 300.16 OFFCURVE",
"159.5 332 CURVE SMOOTH",
"189.32 364 OFFCURVE",
"226.15 380 OFFCURVE",
"270 380 CURVE SMOOTH",
"313.85 380 OFFCURVE",
"350.68 364 OFFCURVE",
"380.5 332 CURVE SMOOTH",
"410.17 300.16 OFFCURVE",
"425 262.83 OFFCURVE",
"425 220 CURVE SMOOTH"
);
},
{
closed = 1;
nodes = (
"495 0 LINE",
"495 750 LINE",
"425 750 LINE",
"425 364.87 LINE",
"421.07 370.01 OFFCURVE",
"416.91 375.06 OFFCURVE",
"412.5 380 CURVE SMOOTH",
"370.94 426.67 OFFCURVE",
"319.77 450 OFFCURVE",
"259 450 CURVE SMOOTH",
"198.23 450 OFFCURVE",
"147.06 426.67 OFFCURVE",
"105.5 380 CURVE SMOOTH",
"65.17 334.71 OFFCURVE",
"45 281.38 OFFCURVE",
"45 220 CURVE SMOOTH",
"45 158.62 OFFCURVE",
"65.17 105.29 OFFCURVE",
"105.5 60 CURVE SMOOTH",
"147.06 13.33 OFFCURVE",
"198.23 -10 OFFCURVE",
"259 -10 CURVE SMOOTH",
"319.77 -10 OFFCURVE",
"370.94 13.33 OFFCURVE",
"412.5 60 CURVE SMOOTH",
"416.91 64.95 OFFCURVE",
"421.07 69.99 OFFCURVE",
"425 75.13 CURVE",
"425 0 LINE"
);
}
);
width = 570;
}
);
note = d;
unicode = 0064;
},
{
glyphname = e;
lastChange = "2017-05-14 03:42:20 +0000";
layers = (
{
layerId = "7DC84FEC-FE63-4092-95B6-3924847BFAB0";
paths = (
{
closed = 1;
nodes = (
"505 230 LINE SMOOTH",
"505 290.54 OFFCURVE",
"481.83 342.87 OFFCURVE",
"435.5 387 CURVE SMOOTH",
"390 430.33 OFFCURVE",
"336.5 452 OFFCURVE",
"275 452 CURVE SMOOTH",
"211.67 452 OFFCURVE",
"157.5 429.5 OFFCURVE",
"112.5 384.5 CURVE SMOOTH",
"67.5 339.5 OFFCURVE",
"45 285.33 OFFCURVE",
"45 222 CURVE SMOOTH",
"45 158.29 OFFCURVE",
"67.5 104.29 OFFCURVE",
"112.5 60 CURVE SMOOTH",
"133.5 39.33 OFFCURVE",
"157.83 23 OFFCURVE",
"185.5 11 CURVE SMOOTH",
"213.17 -1 OFFCURVE",
"246.5 -7 OFFCURVE",
"285.5 -7 CURVE SMOOTH",
"324.5 -7 OFFCURVE",
"362.83 5.17 OFFCURVE",
"400.5 29.5 CURVE SMOOTH",
"438.17 53.83 OFFCURVE",
"466.33 87 OFFCURVE",
"485 129 CURVE",
"405 129 LINE",
"389.67 108.33 OFFCURVE",
"370.5 92.17 OFFCURVE",
"347.5 80.5 CURVE SMOOTH",
"324.5 68.83 OFFCURVE",
"300.33 63 OFFCURVE",
"275 63 CURVE SMOOTH",
"237.47 63 OFFCURVE",
"203.47 75.33 OFFCURVE",
"173 100 CURVE SMOOTH",
"143.08 124.22 OFFCURVE",
"124.75 155.22 OFFCURVE",
"118 193 CURVE",
"505 193 LINE"
);
},
{
closed = 1;
nodes = (
"119 253 LINE",
"123 271.67 OFFCURVE",
"130 288.83 OFFCURVE",
"140 304.5 CURVE SMOOTH",
"172.98 356.17 OFFCURVE",
"217.98 382 OFFCURVE",
"275 382 CURVE SMOOTH",
"312.39 382 OFFCURVE",
"345.56 370 OFFCURVE",
"374.5 346 CURVE SMOOTH",
"404.15 321.41 OFFCURVE",
"422.98 290.41 OFFCURVE",
"431 253 CURVE"
);
}
);
width = 545;
}
);
note = e;
unicode = 0065;
},
{
glyphname = f;
lastChange = "2017-05-14 03:42:20 +0000";
layers = (
{
layerId = "7DC84FEC-FE63-4092-95B6-3924847BFAB0";
paths = (
{
closed = 1;
nodes = (
"311 685 LINE",
"311 750 LINE",
"261 750 LINE SMOOTH",
"211.67 750 OFFCURVE",
"176.5 737.83 OFFCURVE",
"155.5 713.5 CURVE SMOOTH",
"134.5 689.17 OFFCURVE",
"124 654.67 OFFCURVE",
"124 610 CURVE SMOOTH",
"124 440 LINE",
"35 440 LINE",
"35 375 LINE",
"124 375 LINE",
"124 0 LINE",
"194 0 LINE",
"194 375 LINE",
"311 375 LINE",
"311 440 LINE",
"194 440 LINE",
"194 630 LINE SMOOTH",
"194 645.33 OFFCURVE",
"197.67 658.33 OFFCURVE",
"205 669 CURVE SMOOTH",
"212.33 679.67 OFFCURVE",
"227.67 685 OFFCURVE",
"251 685 CURVE SMOOTH"
);
}
);
width = 341;
}
);
note = f;
unicode = 0066;
},
{
glyphname = g;
lastChange = "2017-05-14 03:42:20 +0000";
layers = (
{
layerId = "7DC84FEC-FE63-4092-95B6-3924847BFAB0";
paths = (
{
closed = 1;
nodes = (
"431 177.17 OFFCURVE",
"416.17 139.84 OFFCURVE",
"386.5 108 CURVE SMOOTH",
"356.68 76 OFFCURVE",
"319.85 60 OFFCURVE",
"276 60 CURVE SMOOTH",
"233.21 60 OFFCURVE",
"196.55 76 OFFCURVE",
"166 108 CURVE SMOOTH",
"136 139.43 OFFCURVE",
"121 176.76 OFFCURVE",
"121 220 CURVE SMOOTH",
"121 263.24 OFFCURVE",
"136 300.57 OFFCURVE",
"166 332 CURVE SMOOTH",
"196.55 364 OFFCURVE",
"233.21 380 OFFCURVE",
"276 380 CURVE SMOOTH",
"319.85 380 OFFCURVE",
"356.68 364 OFFCURVE",
"386.5 332 CURVE SMOOTH",
"416.17 300.16 OFFCURVE",
"431 262.83 OFFCURVE",
"431 220 CURVE SMOOTH"
);
},
{
closed = 1;
nodes = (
"47.91 -60 LINE",
"55.3 -106.67 OFFCURVE",
"76.67 -147.67 OFFCURVE",
"112 -183 CURVE SMOOTH",
"156.67 -227.67 OFFCURVE",
"210.33 -250 OFFCURVE",
"273 -250 CURVE SMOOTH",
"335.67 -250 OFFCURVE",
"389.33 -227.67 OFFCURVE",
"434 -183 CURVE SMOOTH",
"478.67 -138.33 OFFCURVE",
"501 -84.67 OFFCURVE",
"501 -22 CURVE SMOOTH",
"501 440 LINE",
"431 440 LINE",
"431 366.17 LINE",
"427.67 370.73 OFFCURVE",
"423.83 375.34 OFFCURVE",
"419.5 380 CURVE SMOOTH",
"375.83 426.67 OFFCURVE",
"324.67 450 OFFCURVE",
"266 450 CURVE SMOOTH",
"204.67 450 OFFCURVE",
"153.17 426.67 OFFCURVE",
"111.5 380 CURVE SMOOTH",
"71.17 334.67 OFFCURVE",
"51 281.33 OFFCURVE",
"51 220 CURVE SMOOTH",
"51 158.67 OFFCURVE",
"71.17 105.33 OFFCURVE",
"111.5 60 CURVE SMOOTH",
"153.17 13.33 OFFCURVE",
"204.67 -10 OFFCURVE",
"266 -10 CURVE SMOOTH",
"326.67 -10 OFFCURVE",
"377.83 13.33 OFFCURVE",
"419.5 60 CURVE SMOOTH",
"423.83 64.67 OFFCURVE",
"427.67 69.28 OFFCURVE",
"431 73.83 CURVE",
"431 -22 LINE SMOOTH",
"431 -65.33 OFFCURVE",
"415.5 -102.5 OFFCURVE",
"384.5 -133.5 CURVE SMOOTH",
"353.5 -164.5 OFFCURVE",
"316.33 -180 OFFCURVE",
"273 -180 CURVE SMOOTH",
"229.67 -180 OFFCURVE",
"192.5 -164.5 OFFCURVE",
"161.5 -133.5 CURVE SMOOTH",
"139.83 -111.83 OFFCURVE",
"125.78 -87.33 OFFCURVE",
"119.34 -60 CURVE"
);
}
);
width = 576;
}
);
note = g;
unicode = 0067;
},
{
glyphname = h;
lastChange = "2017-05-14 03:42:20 +0000";
layers = (
{
layerId = "7DC84FEC-FE63-4092-95B6-3924847BFAB0";
paths = (
{
closed = 1;
nodes = (
"145 0 LINE",
"145 184 LINE SMOOTH",
"145 245.2 OFFCURVE",
"155.5 291.7 OFFCURVE",
"176.5 323.5 CURVE SMOOTH",
"188.17 341.17 OFFCURVE",
"203.33 354.83 OFFCURVE",
"222 364.5 CURVE SMOOTH",
"240.67 374.17 OFFCURVE",
"265 379 OFFCURVE",
"295 379 CURVE SMOOTH",
"325 379 OFFCURVE",
"346.5 368.83 OFFCURVE",
"359.5 348.5 CURVE SMOOTH",
"372.5 328.17 OFFCURVE",
"379 303.67 OFFCURVE",
"379 275 CURVE SMOOTH",
"379 0 LINE",
"449 0 LINE",
"449 275 LINE SMOOTH",
"449 326 OFFCURVE",
"435.67 367.17 OFFCURVE",
"409 398.5 CURVE SMOOTH",
"395.67 414.17 OFFCURVE",
"379.33 426.5 OFFCURVE",
"360 435.5 CURVE SMOOTH",
"340.67 444.5 OFFCURVE",
"315.33 449 OFFCURVE",
"284 449 CURVE SMOOTH",
"252.67 449 OFFCURVE",
"225 440.83 OFFCURVE",
"201 424.5 CURVE SMOOTH",
"178.31 409.06 OFFCURVE",
"159.65 389.02 OFFCURVE",
"145 364.38 CURVE",
"145 750 LINE",
"75 750 LINE",
"75 0 LINE"
);
}
);
width = 509;
}
);
note = h;
unicode = 0068;
},
{
glyphname = i;
lastChange = "2017-05-14 03:42:20 +0000";
layers = (
{
layerId = "7DC84FEC-FE63-4092-95B6-3924847BFAB0";
paths = (
{
closed = 1;
nodes = (
"137.33 600.67 OFFCURVE",
"126.83 605 OFFCURVE",
"114.5 605 CURVE SMOOTH",
"102.17 605 OFFCURVE",
"91.67 600.67 OFFCURVE",
"83 592 CURVE SMOOTH",
"74.33 583.33 OFFCURVE",
"70 572.83 OFFCURVE",
"70 560.5 CURVE SMOOTH",
"70 548.17 OFFCURVE",
"74.33 537.67 OFFCURVE",
"83 529 CURVE SMOOTH",
"91.67 520.33 OFFCURVE",
"102.17 516 OFFCURVE",
"114.5 516 CURVE SMOOTH",
"126.83 516 OFFCURVE",
"137.33 520.33 OFFCURVE",
"146 529 CURVE SMOOTH",
"154.67 537.67 OFFCURVE",
"159 548.17 OFFCURVE",
"159 560.5 CURVE SMOOTH",
"159 572.83 OFFCURVE",
"154.67 583.33 OFFCURVE",
"146 592 CURVE SMOOTH"
);
},
{
closed = 1;
nodes = (
"150 0 LINE",
"150 440 LINE",
"80 440 LINE",
"80 0 LINE"
);
}
);
width = 229;
}
);
note = i;
unicode = 0069;
},
{
glyphname = j;
lastChange = "2017-05-14 03:42:20 +0000";
layers = (
{
layerId = "7DC84FEC-FE63-4092-95B6-3924847BFAB0";
paths = (
{
closed = 1;
nodes = (
"165 572.67 OFFCURVE",
"160.67 583.33 OFFCURVE",
"152 592 CURVE SMOOTH",
"143.33 600.67 OFFCURVE",
"132.67 605 OFFCURVE",
"120 605 CURVE SMOOTH",
"107.33 605 OFFCURVE",
"96.67 600.67 OFFCURVE",
"88 592 CURVE SMOOTH",
"79.33 583.33 OFFCURVE",
"75 572.67 OFFCURVE",
"75 560 CURVE SMOOTH",
"75 547.33 OFFCURVE",
"79.33 536.67 OFFCURVE",
"88 528 CURVE SMOOTH",
"96.67 519.33 OFFCURVE",
"107.33 515 OFFCURVE",
"120 515 CURVE SMOOTH",
"132.67 515 OFFCURVE",
"143.33 519.33 OFFCURVE",
"152 528 CURVE SMOOTH",
"160.67 536.67 OFFCURVE",
"165 547.33 OFFCURVE",
"165 560 CURVE SMOOTH"
);
},
{
closed = 1;
nodes = (
"155 440 LINE",
"85 440 LINE",
"85 -85 LINE SMOOTH",
"85 -133.67 OFFCURVE",
"70.83 -163.67 OFFCURVE",
"42.5 -175 CURVE SMOOTH",
"30.83 -179.67 OFFCURVE",
"18.83 -180.5 OFFCURVE",
"6.5 -177.5 CURVE SMOOTH",
"-5.83 -174.5 OFFCURVE",
"-16.33 -169 OFFCURVE",
"-25 -161 CURVE",
"-25 -228 LINE",
"-11.67 -236.67 OFFCURVE",
"5.33 -241.67 OFFCURVE",
"26 -243 CURVE SMOOTH",
"46.67 -244.33 OFFCURVE",
"66.5 -240 OFFCURVE",
"85.5 -230 CURVE SMOOTH",
"104.5 -220 OFFCURVE",
"120.83 -203.5 OFFCURVE",
"134.5 -180.5 CURVE SMOOTH",
"148.17 -157.5 OFFCURVE",
"155 -125.33 OFFCURVE",
"155 -84 CURVE SMOOTH"
);
}
);
width = 235;
}
);
note = j;
unicode = 006A;
},
{
glyphname = k;
lastChange = "2017-05-14 03:42:20 +0000";
layers = (
{
layerId = "7DC84FEC-FE63-4092-95B6-3924847BFAB0";
paths = (
{
closed = 1;
nodes = (
"145 0 LINE",
"145 211.13 LINE",
"318 0 LINE",
"411 0 LINE",
"218 227 LINE",
"399 441 LINE",
"306 441 LINE",
"145 242.99 LINE",
"145 750 LINE",
"75 750 LINE",
"75 0 LINE"
);
}
);
width = 421;
}
);
note = k;
unicode = 006B;
},
{
glyphname = l;
lastChange = "2017-05-14 03:42:20 +0000";
layers = (
{
layerId = "7DC84FEC-FE63-4092-95B6-3924847BFAB0";
paths = (
{
closed = 1;
nodes = (
"145 0 LINE",
"145 750 LINE",
"75 750 LINE",
"75 0 LINE"
);
}
);
width = 220;
}
);
note = l;
unicode = 006C;
},
{
glyphname = m;
lastChange = "2017-05-14 23:40:29 +0000";
layers = (
{
layerId = "7DC84FEC-FE63-4092-95B6-3924847BFAB0";
rightMetricsKey = "=";
paths = (
{
closed = 1;
nodes = (
"633 2 LINE",
"703 2 LINE",
"703 277 LINE SMOOTH",
"703 326.77 OFFCURVE",
"690.83 367.43 OFFCURVE",
"666.5 399 CURVE SMOOTH",
"654.17 415 OFFCURVE",
"638.67 427.83 OFFCURVE",
"620 437.5 CURVE SMOOTH",
"601.33 447.17 OFFCURVE",
"576.67 452 OFFCURVE",
"546 452 CURVE SMOOTH",
"515.33 452 OFFCURVE",
"488.5 443.67 OFFCURVE",
"465.5 427 CURVE SMOOTH",
"444.71 411.93 OFFCURVE",
"427.54 392.4 OFFCURVE",
"413.99 368.4 CURVE",
"408.9 379.4 OFFCURVE",
"402.74 389.6 OFFCURVE",
"395.5 399 CURVE SMOOTH",
"383.17 415 OFFCURVE",
"367.67 427.83 OFFCURVE",
"349 437.5 CURVE SMOOTH",
"330.33 447.17 OFFCURVE",
"305.67 452 OFFCURVE",
"275 452 CURVE SMOOTH",
"244.33 452 OFFCURVE",
"217.5 443.67 OFFCURVE",
"194.5 427 CURVE SMOOTH",
"174.72 412.67 OFFCURVE",
"158.22 394.3 OFFCURVE",
"145 371.89 CURVE",
"145 442 LINE",
"75 442 LINE",
"75 2 LINE",
"145 2 LINE",
"145 227.11 LINE",
"148.74 262.75 OFFCURVE",
"157.74 293.05 OFFCURVE",
"172 318 CURVE SMOOTH",
"182.67 336.67 OFFCURVE",
"197 352 OFFCURVE",
"215 364 CURVE SMOOTH",
"233 376 OFFCURVE",
"252.33 382 OFFCURVE",
"273 382 CURVE SMOOTH",
"293.67 382 OFFCURVE",
"309 378.83 OFFCURVE",
"319 372.5 CURVE SMOOTH",
"347.67 354.34 OFFCURVE",
"362 322.51 OFFCURVE",
"362 277 CURVE SMOOTH",
"362 2 LINE",
"432 2 LINE",
"432 277 LINE SMOOTH",
"432 282.76 OFFCURVE",
"431.84 288.39 OFFCURVE",
"431.51 293.91 CURVE",
"434.86 302.43 OFFCURVE",
"438.69 310.46 OFFCURVE",
"443 318 CURVE SMOOTH",
"453.67 336.67 OFFCURVE",
"468 352 OFFCURVE",
"486 364 CURVE SMOOTH",
"504 376 OFFCURVE",
"523.33 382 OFFCURVE",
"544 382 CURVE SMOOTH",
"564.67 382 OFFCURVE",
"580 378.83 OFFCURVE",
"590 372.5 CURVE SMOOTH",
"618.67 354.34 OFFCURVE",
"633 322.51 OFFCURVE",
"633 277 CURVE SMOOTH"
);
}
);
width = 713;
}
);
leftMetricsKey = "=m";
note = m;
rightMetricsKey = "=w";
unicode = 006D;
},
{
glyphname = n;
lastChange = "2017-05-14 03:42:20 +0000";
layers = (
{
layerId = "7DC84FEC-FE63-4092-95B6-3924847BFAB0";
paths = (
{
closed = 1;
nodes = (
"379 0 LINE",
"449 0 LINE",
"449 275 LINE SMOOTH",
"449 326 OFFCURVE",
"435.67 367.17 OFFCURVE",
"409 398.5 CURVE SMOOTH",
"395.67 414.17 OFFCURVE",
"379.33 426.5 OFFCURVE",
"360 435.5 CURVE SMOOTH",
"340.67 444.5 OFFCURVE",
"315.33 449 OFFCURVE",
"284 449 CURVE SMOOTH",
"252.67 449 OFFCURVE",
"225 440.83 OFFCURVE",
"201 424.5 CURVE SMOOTH",
"178.31 409.06 OFFCURVE",
"159.65 389.02 OFFCURVE",
"145 364.38 CURVE",
"145 440 LINE",
"75 440 LINE",
"75 0 LINE",
"145 0 LINE",
"145 184 LINE SMOOTH",
"145 240 OFFCURVE",
"155.5 284.5 OFFCURVE",
"176.5 317.5 CURVE SMOOTH",
"188.17 335.83 OFFCURVE",
"203.33 350.67 OFFCURVE",
"222 362 CURVE SMOOTH",
"240.67 373.33 OFFCURVE",
"265 379 OFFCURVE",
"295 379 CURVE SMOOTH",
"325 379 OFFCURVE",
"346.5 368.83 OFFCURVE",
"359.5 348.5 CURVE SMOOTH",
"372.5 328.17 OFFCURVE",
"379 303.67 OFFCURVE",
"379 275 CURVE SMOOTH"
);
}
);
width = 509;
}
);
note = n;
unicode = 006E;
},
{
glyphname = o;
lastChange = "2017-05-14 03:42:20 +0000";
layers = (
{
layerId = "7DC84FEC-FE63-4092-95B6-3924847BFAB0";
paths = (
{
closed = 1;
nodes = (
"435 178.67 OFFCURVE",
"419.33 141.33 OFFCURVE",
"388 110 CURVE SMOOTH",
"356.67 78.67 OFFCURVE",
"319 63 OFFCURVE",
"275 63 CURVE SMOOTH",
"231 63 OFFCURVE",
"193.33 78.67 OFFCURVE",
"162 110 CURVE SMOOTH",
"130.67 141.33 OFFCURVE",
"115 178.67 OFFCURVE",
"115 222 CURVE SMOOTH",
"115 266 OFFCURVE",
"130.67 303.67 OFFCURVE",
"162 335 CURVE SMOOTH",
"193.33 366.33 OFFCURVE",
"231 382 OFFCURVE",
"275 382 CURVE SMOOTH",
"319 382 OFFCURVE",
"356.67 366.33 OFFCURVE",
"388 335 CURVE SMOOTH",
"419.33 303.67 OFFCURVE",
"435 266 OFFCURVE",
"435 222 CURVE SMOOTH"
);
},
{
closed = 1;
nodes = (
"505 285.33 OFFCURVE",
"482.5 339.5 OFFCURVE",
"437.5 384.5 CURVE SMOOTH",
"392.5 429.5 OFFCURVE",
"338.33 452 OFFCURVE",
"275 452 CURVE SMOOTH",
"211.67 452 OFFCURVE",
"157.5 429.5 OFFCURVE",
"112.5 384.5 CURVE SMOOTH",
"67.5 339.5 OFFCURVE",
"45 285.33 OFFCURVE",
"45 222 CURVE SMOOTH",
"45 158.29 OFFCURVE",
"67.5 104.29 OFFCURVE",
"112.5 60 CURVE SMOOTH",
"157.89 15.33 OFFCURVE",
"212.05 -7 OFFCURVE",
"275 -7 CURVE SMOOTH",
"337.95 -7 OFFCURVE",
"392.11 15.33 OFFCURVE",
"437.5 60 CURVE SMOOTH",
"482.5 104.29 OFFCURVE",
"505 158.29 OFFCURVE",
"505 222 CURVE SMOOTH"
);
}
);
width = 550;
}
);
note = o;
unicode = 006F;
},
{
glyphname = p;
lastChange = "2017-05-14 03:42:20 +0000";
layers = (
{
layerId = "7DC84FEC-FE63-4092-95B6-3924847BFAB0";
paths = (
{
closed = 1;
nodes = (
"145 -250 LINE",
"145 75.13 LINE",
"148.93 69.99 OFFCURVE",
"153.09 64.94 OFFCURVE",
"157.5 60 CURVE SMOOTH",
"199.06 13.33 OFFCURVE",
"250.23 -10 OFFCURVE",
"311 -10 CURVE SMOOTH",
"371.77 -10 OFFCURVE",
"422.94 13.33 OFFCURVE",
"464.5 60 CURVE SMOOTH",
"504.83 105.29 OFFCURVE",
"525 158.62 OFFCURVE",
"525 220 CURVE SMOOTH",
"525 281.38 OFFCURVE",
"504.83 334.71 OFFCURVE",
"464.5 380 CURVE SMOOTH",
"422.94 426.67 OFFCURVE",
"371.77 450 OFFCURVE",
"311 450 CURVE SMOOTH",
"250.23 450 OFFCURVE",
"199.06 426.67 OFFCURVE",
"157.5 380 CURVE SMOOTH",
"153.09 375.05 OFFCURVE",
"148.93 370.01 OFFCURVE",
"145 364.87 CURVE",
"145 440 LINE",
"75 440 LINE",
"75 -250 LINE"
);
},
{
closed = 1;
nodes = (
"455 177.17 OFFCURVE",
"440.17 139.84 OFFCURVE",
"410.5 108 CURVE SMOOTH",
"380.68 76 OFFCURVE",
"343.85 60 OFFCURVE",
"300 60 CURVE SMOOTH",
"256.15 60 OFFCURVE",
"219.32 76 OFFCURVE",
"189.5 108 CURVE SMOOTH",
"159.83 139.84 OFFCURVE",
"145 177.17 OFFCURVE",
"145 220 CURVE SMOOTH",
"145 262.83 OFFCURVE",
"159.83 300.16 OFFCURVE",
"189.5 332 CURVE SMOOTH",
"219.32 364 OFFCURVE",
"256.15 380 OFFCURVE",
"300 380 CURVE SMOOTH",
"343.85 380 OFFCURVE",
"380.68 364 OFFCURVE",
"410.5 332 CURVE SMOOTH",
"440.17 300.16 OFFCURVE",
"455 262.83 OFFCURVE",
"455 220 CURVE SMOOTH"
);
}
);
width = 570;
}
);
note = p;
unicode = 0070;
},
{
glyphname = q;
lastChange = "2017-05-14 03:42:20 +0000";
layers = (
{
layerId = "7DC84FEC-FE63-4092-95B6-3924847BFAB0";
paths = (
{
closed = 1;
nodes = (
"425 177.17 OFFCURVE",
"410.17 139.84 OFFCURVE",
"380.5 108 CURVE SMOOTH",
"350.68 76 OFFCURVE",
"313.85 60 OFFCURVE",
"270 60 CURVE SMOOTH",
"226.15 60 OFFCURVE",
"189.32 76 OFFCURVE",
"159.5 108 CURVE SMOOTH",
"129.83 139.84 OFFCURVE",
"115 177.17 OFFCURVE",
"115 220 CURVE SMOOTH",
"115 262.83 OFFCURVE",
"129.83 300.16 OFFCURVE",
"159.5 332 CURVE SMOOTH",
"189.32 364 OFFCURVE",
"226.15 380 OFFCURVE",
"270 380 CURVE SMOOTH",
"313.85 380 OFFCURVE",
"350.68 364 OFFCURVE",
"380.5 332 CURVE SMOOTH",
"410.17 300.16 OFFCURVE",
"425 262.83 OFFCURVE",
"425 220 CURVE SMOOTH"
);
},
{
closed = 1;
nodes = (
"495 -250 LINE",
"495 440 LINE",
"425 440 LINE",
"425 364.87 LINE",
"421.07 370.01 OFFCURVE",
"416.91 375.06 OFFCURVE",
"412.5 380 CURVE SMOOTH",
"370.94 426.67 OFFCURVE",
"319.77 450 OFFCURVE",
"259 450 CURVE SMOOTH",
"198.23 450 OFFCURVE",
"147.06 426.67 OFFCURVE",
"105.5 380 CURVE SMOOTH",
"65.17 334.71 OFFCURVE",
"45 281.38 OFFCURVE",
"45 220 CURVE SMOOTH",
"45 158.62 OFFCURVE",
"65.17 105.29 OFFCURVE",
"105.5 60 CURVE SMOOTH",
"147.06 13.33 OFFCURVE",
"198.23 -10 OFFCURVE",
"259 -10 CURVE SMOOTH",
"319.77 -10 OFFCURVE",
"370.94 13.33 OFFCURVE",
"412.5 60 CURVE SMOOTH",
"416.91 64.95 OFFCURVE",
"421.07 69.99 OFFCURVE",
"425 75.13 CURVE",
"425 -250 LINE"
);
}
);
width = 570;
}
);
note = q;
unicode = 0071;
},
{
glyphname = r;
lastChange = "2017-05-14 03:42:20 +0000";
layers = (
{
layerId = "7DC84FEC-FE63-4092-95B6-3924847BFAB0";
paths = (
{
closed = 1;
nodes = (
"301 440 LINE",
"287 446 OFFCURVE",
"272.33 449 OFFCURVE",
"257 449 CURVE SMOOTH",
"207.76 449 OFFCURVE",
"171.43 421.67 OFFCURVE",
"148 367 CURVE",
"145 349 LINE",
"145 440 LINE",
"75 440 LINE",
"75 0 LINE",
"145 0 LINE",
"145 220 LINE SMOOTH",
"145 256.15 OFFCURVE",
"153.33 288.65 OFFCURVE",
"170 317.5 CURVE SMOOTH",
"178.67 332.5 OFFCURVE",
"189.5 345.17 OFFCURVE",
"202.5 355.5 CURVE SMOOTH",
"215.5 365.83 OFFCURVE",
"231.13 371 OFFCURVE",
"249.4 371 CURVE SMOOTH",
"267.67 371 OFFCURVE",
"284.87 363.67 OFFCURVE",
"301 349 CURVE"
);
}
);
width = 311;
}
);
note = r;
unicode = 0072;
},
{
glyphname = s;
lastChange = "2017-05-14 03:42:20 +0000";
layers = (
{
layerId = "7DC84FEC-FE63-4092-95B6-3924847BFAB0";
paths = (
{
closed = 1;
nodes = (
"121.05 74.37 OFFCURVE",
"108.47 94.49 OFFCURVE",
"101.05 123 CURVE",
"27 123 LINE",
"42.18 32.33 OFFCURVE",
"100.78 -13 OFFCURVE",
"202.81 -13 CURVE SMOOTH",
"226.71 -13 OFFCURVE",
"248.89 -10.19 OFFCURVE",
"269.35 -4.56 CURVE SMOOTH",
"290.03 1.09 OFFCURVE",
"308.88 9.57 OFFCURVE",
"325.91 20.87 CURVE SMOOTH",
"359.85 43.39 OFFCURVE",
"376.83 78.37 OFFCURVE",
"376.83 125.81 CURVE SMOOTH",
"376.83 173.19 OFFCURVE",
"354.19 207.68 OFFCURVE",
"308.9 229.28 CURVE SMOOTH",
"289.3 238.63 OFFCURVE",
"268.27 245.81 OFFCURVE",
"245.81 250.82 CURVE SMOOTH",
"223.53 255.85 OFFCURVE",
"202.71 261.38 OFFCURVE",
"183.37 267.42 CURVE SMOOTH",
"163.96 273.48 OFFCURVE",
"147.75 281.06 OFFCURVE",
"134.75 290.17 CURVE SMOOTH",
"121.46 299.42 OFFCURVE",
"114.82 313.93 OFFCURVE",
"114.82 333.71 CURVE SMOOTH",
"114.82 353.52 OFFCURVE",
"122.82 368.22 OFFCURVE",
"138.81 377.79 CURVE SMOOTH",
"154.45 387.27 OFFCURVE",
"173.16 392 OFFCURVE",
"194.95 392 CURVE SMOOTH",
"216.72 392 OFFCURVE",
"235.2 387.96 OFFCURVE",
"250.4 379.89 CURVE SMOOTH",
"265.74 371.85 OFFCURVE",
"277.13 355.55 OFFCURVE",
"284.57 331 CURVE",
"359.6 331 LINE",
"350.17 375.45 OFFCURVE",
"331.4 406.33 OFFCURVE",
"303.31 423.65 CURVE SMOOTH",
"274.8 441.22 OFFCURVE",
"239.34 450 OFFCURVE",
"196.93 450 CURVE SMOOTH",
"154.42 450 OFFCURVE",
"117.75 438.74 OFFCURVE",
"86.93 416.21 CURVE SMOOTH",
"56.2 393.75 OFFCURVE",
"40.84 360.67 OFFCURVE",
"40.84 316.95 CURVE SMOOTH",
"40.84 295.12 OFFCURVE",
"46.49 276.16 OFFCURVE",
"57.78 260.06 CURVE SMOOTH",
"69.07 243.97 OFFCURVE",
"86.07 230.71 OFFCURVE",
"108.75 220.27 CURVE SMOOTH",
"128.35 211.25 OFFCURVE",
"149.31 204.07 OFFCURVE",
"171.61 198.73 CURVE SMOOTH",
"193.89 193.37 OFFCURVE",
"214.71 187.5 OFFCURVE",
"234.05 181.12 CURVE SMOOTH",
"279.9 166.19 OFFCURVE",
"302.83 144.77 OFFCURVE",
"302.83 116.85 CURVE SMOOTH",
"302.83 68.95 OFFCURVE",
"270.8 45 OFFCURVE",
"206.74 45 CURVE SMOOTH",
"179.04 45 OFFCURVE",
"156.39 50.89 OFFCURVE",
"138.78 62.67 CURVE SMOOTH"
);
}
);
width = 402;
}
);
note = s;
unicode = 0073;
},
{
glyphname = t;
lastChange = "2017-05-14 03:42:20 +0000";
layers = (
{
layerId = "7DC84FEC-FE63-4092-95B6-3924847BFAB0";
paths = (
{
closed = 1;
nodes = (
"20 375 LINE",
"130 375 LINE",
"130 0 LINE",
"200 0 LINE",
"200 375 LINE",
"309 375 LINE",
"309 440 LINE",
"200 440 LINE",
"200 611 LINE",
"130 611 LINE",
"130 440 LINE",
"20 440 LINE"
);
}
);
width = 329;
}
);
note = t;
unicode = 0074;
},
{
glyphname = u;
lastChange = "2017-05-14 03:42:20 +0000";
layers = (
{
layerId = "7DC84FEC-FE63-4092-95B6-3924847BFAB0";
paths = (
{
closed = 1;
nodes = (
"379 0 LINE",
"449 0 LINE",
"449 440 LINE",
"379 440 LINE",
"379 256 LINE SMOOTH",
"379 194.8 OFFCURVE",
"367.64 147 OFFCURVE",
"344.92 112.6 CURVE SMOOTH",
"322.2 78.2 OFFCURVE",
"283.56 61 OFFCURVE",
"229 61 CURVE SMOOTH",
"199 61 OFFCURVE",
"177.5 71.17 OFFCURVE",
"164.5 91.5 CURVE SMOOTH",
"151.5 111.83 OFFCURVE",
"145 136.33 OFFCURVE",
"145 165 CURVE SMOOTH",
"145 440 LINE",
"75 440 LINE",
"75 165 LINE SMOOTH",
"75 114 OFFCURVE",
"88.83 72.25 OFFCURVE",
"116.49 39.75 CURVE SMOOTH",
"144.15 7.25 OFFCURVE",
"182.65 -9 OFFCURVE",
"232 -9 CURVE SMOOTH",
"297.02 -9 OFFCURVE",
"346.02 19.13 OFFCURVE",
"379 75.4 CURVE"
);
}
);
width = 509;
}
);
note = u;
unicode = 0075;
},
{
glyphname = v;
lastChange = "2017-05-14 03:42:20 +0000";
layers = (
{
layerId = "7DC84FEC-FE63-4092-95B6-3924847BFAB0";
paths = (
{
closed = 1;
nodes = (
"213 -42 LINE",
"415 440 LINE",
"339 440 LINE",
"213 113 LINE",
"86 440 LINE",
"10 440 LINE"
);
}
);
width = 425;
}
);
note = v;
unicode = 0076;
},
{
glyphname = w;
lastChange = "2017-05-14 03:42:20 +0000";
layers = (
{
layerId = "7DC84FEC-FE63-4092-95B6-3924847BFAB0";
paths = (
{
closed = 1;
nodes = (
"505 -56 LINE",
"714 440 LINE",
"636 440 LINE",
"504 101 LINE",
"362 463 LINE",
"220 101 LINE",
"88 440 LINE",
"10 440 LINE",
"221 -56 LINE",
"362 299 LINE"
);
}
);
width = 724;
}
);
note = w;
unicode = 0077;
},
{
glyphname = x;
lastChange = "2017-05-14 03:42:20 +0000";
layers = (
{
layerId = "7DC84FEC-FE63-4092-95B6-3924847BFAB0";
paths = (
{
closed = 1;
nodes = (
"334 0 LINE",
"423 0 LINE",
"269 220 LINE",
"423 440 LINE",
"334 440 LINE",
"224 271 LINE",
"114 440 LINE",
"25 440 LINE",
"179 221 LINE",
"25 0 LINE",
"114 0 LINE",
"224 171 LINE"
);
}
);
width = 448;
}
);
note = x;
unicode = 0078;
},
{
glyphname = y;
lastChange = "2017-05-14 03:42:20 +0000";
layers = (
{
layerId = "7DC84FEC-FE63-4092-95B6-3924847BFAB0";
paths = (
{
closed = 1;
nodes = (
"131 -250 LINE",
"435 440 LINE",
"357 440 LINE",
"231 145 LINE",
"90 440 LINE",
"10 440 LINE",
"194 72 LINE",
"46 -250 LINE"
);
}
);
width = 425;
}
);
note = y;
unicode = 0079;
},
{
glyphname = z;
lastChange = "2017-05-14 03:42:20 +0000";
layers = (
{
layerId = "7DC84FEC-FE63-4092-95B6-3924847BFAB0";
paths = (
{
closed = 1;
nodes = (
"10 0 LINE",
"445 0 LINE",
"445 65 LINE",
"144 65 LINE",
"432 440 LINE",
"27 440 LINE",
"27 375 LINE",
"298 375 LINE"
);
}
);
width = 455;
}
);
note = z;
unicode = 007A;
},
{
glyphname = braceleft;
lastChange = "2017-05-14 03:42:20 +0000";
layers = (
{
layerId = "7DC84FEC-FE63-4092-95B6-3924847BFAB0";
paths = (
{
closed = 1;
nodes = (
"144 355 LINE SMOOTH",
"144 306.33 OFFCURVE",
"122.67 274 OFFCURVE",
"80 258 CURVE",
"80 190 LINE",
"96 183.33 OFFCURVE",
"110.67 173.83 OFFCURVE",
"124 161.5 CURVE SMOOTH",
"137.33 149.17 OFFCURVE",
"144 133.33 OFFCURVE",
"144 114 CURVE SMOOTH",
"144 -112 LINE SMOOTH",
"144 -154.67 OFFCURVE",
"149.17 -184.46 OFFCURVE",
"159.5 -201.39 CURVE SMOOTH",
"169.83 -218.46 OFFCURVE",
"181.67 -230.83 OFFCURVE",
"195 -238.5 CURVE SMOOTH",
"208.33 -246.17 OFFCURVE",
"222.67 -250 OFFCURVE",
"238 -250 CURVE SMOOTH",
"273.5 -250 LINE SMOOTH",
"281.83 -250 OFFCURVE",
"290.67 -249.67 OFFCURVE",
"300 -249 CURVE",
"300 -200 LINE",
"243.33 -211.93 OFFCURVE",
"215 -181.6 OFFCURVE",
"215 -109 CURVE SMOOTH",
"215 116 LINE SMOOTH",
"215 152 OFFCURVE",
"197.5 180.83 OFFCURVE",
"162.5 202.5 CURVE SMOOTH",
"152.17 208.83 OFFCURVE",
"141.33 214.67 OFFCURVE",
"130 220 CURVE",
"156.67 234.67 OFFCURVE",
"177.5 251.67 OFFCURVE",
"192.5 271 CURVE SMOOTH",
"207.5 290.33 OFFCURVE",
"215 316 OFFCURVE",
"215 348 CURVE SMOOTH",
"215 661 LINE SMOOTH",
"215 697 OFFCURVE",
"243.33 709.67 OFFCURVE",
"300 699 CURVE",
"300 749 LINE",
"291.33 749.67 OFFCURVE",
"282.83 750 OFFCURVE",
"274.5 750 CURVE SMOOTH",
"249 750 LINE SMOOTH",
"191.67 750 OFFCURVE",
"158.17 723.67 OFFCURVE",
"148.5 671 CURVE SMOOTH",
"145.5 655 OFFCURVE",
"144 637.67 OFFCURVE",
"144 619 CURVE SMOOTH"
);
}
);
width = 380;
}
);
note = braceleft;
unicode = 007B;
},
{
glyphname = bar;
lastChange = "2017-05-14 03:42:20 +0000";
layers = (
{
layerId = "7DC84FEC-FE63-4092-95B6-3924847BFAB0";
paths = (
{
closed = 1;
nodes = (
"118 -225 LINE",
"173 -225 LINE",
"173 725 LINE",
"118 725 LINE"
);
}
);
width = 290;
}
);
note = bar;
unicode = 007C;
},
{
glyphname = braceright;
lastChange = "2017-05-14 03:42:20 +0000";
layers = (
{
layerId = "7DC84FEC-FE63-4092-95B6-3924847BFAB0";
paths = (
{
closed = 1;
nodes = (
"236 619 LINE SMOOTH",
"236 637.67 OFFCURVE",
"234.5 655 OFFCURVE",
"231.5 671 CURVE SMOOTH",
"221.83 723.67 OFFCURVE",
"188.33 750 OFFCURVE",
"131 750 CURVE SMOOTH",
"105.5 750 LINE SMOOTH",
"97.17 750 OFFCURVE",
"88.67 749.67 OFFCURVE",
"80 749 CURVE",
"80 699 LINE",
"136.67 709.67 OFFCURVE",
"165 697 OFFCURVE",
"165 661 CURVE SMOOTH",
"165 348 LINE SMOOTH",
"165 316 OFFCURVE",
"172.5 290.33 OFFCURVE",
"187.5 271 CURVE SMOOTH",
"202.5 251.67 OFFCURVE",
"223.33 234.67 OFFCURVE",
"250 220 CURVE",
"238.67 214.67 OFFCURVE",
"227.83 208.83 OFFCURVE",
"217.5 202.5 CURVE SMOOTH",
"182.5 180.83 OFFCURVE",
"165 152 OFFCURVE",
"165 116 CURVE SMOOTH",
"165 -109 LINE SMOOTH",
"165 -181.6 OFFCURVE",
"136.67 -211.93 OFFCURVE",
"80 -200 CURVE",
"80 -249 LINE",
"89.33 -249.67 OFFCURVE",
"98.17 -250 OFFCURVE",
"106.5 -250 CURVE SMOOTH",
"142 -250 LINE SMOOTH",
"157.33 -250 OFFCURVE",
"171.67 -246.17 OFFCURVE",
"185 -238.5 CURVE SMOOTH",
"198.33 -230.83 OFFCURVE",
"210.17 -218.46 OFFCURVE",
"220.5 -201.39 CURVE SMOOTH",
"230.83 -184.46 OFFCURVE",
"236 -154.67 OFFCURVE",
"236 -112 CURVE SMOOTH",
"236 114 LINE SMOOTH",
"236 133.33 OFFCURVE",
"242.67 149.17 OFFCURVE",
"256 161.5 CURVE SMOOTH",
"269.33 173.83 OFFCURVE",
"284 183.33 OFFCURVE",
"300 190 CURVE",
"300 258 LINE",
"257.33 274 OFFCURVE",
"236 306.33 OFFCURVE",
"236 355 CURVE SMOOTH"
);
}
);
width = 380;
}
);
note = braceright;
unicode = 007D;
},
{
glyphname = asciitilde;
lastChange = "2017-05-14 03:42:20 +0000";
layers = (
{
layerId = "7DC84FEC-FE63-4092-95B6-3924847BFAB0";
paths = (
{
closed = 1;
nodes = (
"397 771 LINE",
"376.63 734.33 OFFCURVE",
"356.34 716 OFFCURVE",
"336.13 716 CURVE SMOOTH",
"315.92 716 OFFCURVE",
"290.38 723.5 OFFCURVE",
"259.5 738.5 CURVE SMOOTH",
"247.83 744.17 OFFCURVE",
"235.83 749.33 OFFCURVE",
"223.5 754 CURVE SMOOTH",
"211.17 758.67 OFFCURVE",
"196.5 761 OFFCURVE",
"179.5 761 CURVE SMOOTH",
"162.5 761 OFFCURVE",
"140.56 747.56 OFFCURVE",
"113.67 720.67 CURVE SMOOTH",
"99.45 706.45 OFFCURVE",
"86.89 689.23 OFFCURVE",
"76 669 CURVE",
"128 635 LINE",
"148 675 OFFCURVE",
"168 695 OFFCURVE",
"188 695 CURVE SMOOTH",
"202.67 695 OFFCURVE",
"216 692.67 OFFCURVE",
"228 688 CURVE SMOOTH",
"240 683.33 OFFCURVE",
"251.83 678.33 OFFCURVE",
"263.5 673 CURVE SMOOTH",
"275.17 667.67 OFFCURVE",
"286.83 662.67 OFFCURVE",
"298.5 658 CURVE SMOOTH",
"310.17 653.33 OFFCURVE",
"322.17 651 OFFCURVE",
"334.5 651 CURVE SMOOTH",
"346.83 651 OFFCURVE",
"358.5 654 OFFCURVE",
"369.5 660 CURVE SMOOTH",
"399.36 676.29 OFFCURVE",
"426.19 702.29 OFFCURVE",
"450 738 CURVE"
);
}
);
width = 526;
}
);
note = asciitilde;
unicode = 007E;
},
{
glyphname = Adieresis;
lastChange = "2017-05-14 03:42:20 +0000";
layers = (
{
layerId = "7DC84FEC-FE63-4092-95B6-3924847BFAB0";
paths = (
{
closed = 1;
nodes = (
"185.02 250 LINE",
"309 563 LINE",
"432.42 250 LINE"
);
},
{
closed = 1;
nodes = (
"607 0 LINE",
"309 727 LINE",
"10 0 LINE",
"86 0 LINE",
"159.28 185 LINE",
"458.05 185 LINE",
"531 0 LINE"
);
},
{
closed = 1;
nodes = (
"422.33 834.67 OFFCURVE",
"411.67 839 OFFCURVE",
"399 839 CURVE SMOOTH",
"386.33 839 OFFCURVE",
"375.83 834.67 OFFCURVE",
"367.5 826 CURVE SMOOTH",
"359.17 817.33 OFFCURVE",
"355 806.83 OFFCURVE",
"355 794.5 CURVE SMOOTH",
"355 782.17 OFFCURVE",
"359.17 771.67 OFFCURVE",
"367.5 763 CURVE SMOOTH",
"375.83 754.33 OFFCURVE",
"386.33 750 OFFCURVE",
"399 750 CURVE SMOOTH",
"411.67 750 OFFCURVE",
"422.33 754.33 OFFCURVE",
"431 763 CURVE SMOOTH",
"439.67 771.67 OFFCURVE",
"444 782.17 OFFCURVE",
"444 794.5 CURVE SMOOTH",
"444 806.83 OFFCURVE",
"439.67 817.33 OFFCURVE",
"431 826 CURVE SMOOTH"
);
},
{
closed = 1;
nodes = (
"240.33 834.67 OFFCURVE",
"229.67 839 OFFCURVE",
"217 839 CURVE SMOOTH",
"204.33 839 OFFCURVE",
"193.83 834.67 OFFCURVE",
"185.5 826 CURVE SMOOTH",
"177.17 817.33 OFFCURVE",
"173 806.83 OFFCURVE",
"173 794.5 CURVE SMOOTH",
"173 782.17 OFFCURVE",
"177.17 771.67 OFFCURVE",
"185.5 763 CURVE SMOOTH",
"193.83 754.33 OFFCURVE",
"204.33 750 OFFCURVE",
"217 750 CURVE SMOOTH",
"229.67 750 OFFCURVE",
"240.33 754.33 OFFCURVE",
"249 763 CURVE SMOOTH",
"257.67 771.67 OFFCURVE",
"262 782.17 OFFCURVE",
"262 794.5 CURVE SMOOTH",
"262 806.83 OFFCURVE",
"257.67 817.33 OFFCURVE",
"249 826 CURVE SMOOTH"
);
}
);
width = 617;
}
);
note = Adieresis;
unicode = 00C4;
},
{
glyphname = Aring;
lastChange = "2017-05-14 03:42:20 +0000";
layers = (
{
layerId = "7DC84FEC-FE63-4092-95B6-3924847BFAB0";
paths = (
{
closed = 1;
nodes = (
"185.02 250 LINE",
"309 563 LINE",
"432.42 250 LINE"
);
},
{
closed = 1;
nodes = (
"607 0 LINE",
"327.57 681.71 LINE",
"346.2 685.1 OFFCURVE",
"362.51 693.53 OFFCURVE",
"376.5 707 CURVE SMOOTH",
"396.17 725.94 OFFCURVE",
"406 748.6 OFFCURVE",
"406 775 CURVE SMOOTH",
"406 802.46 OFFCURVE",
"396.17 825.29 OFFCURVE",
"376.5 843.5 CURVE SMOOTH",
"356.7 861.83 OFFCURVE",
"333.87 871 OFFCURVE",
"308 871 CURVE SMOOTH",
"281.72 871 OFFCURVE",
"258.88 861.67 OFFCURVE",
"239.5 843 CURVE SMOOTH",
"219.83 824.06 OFFCURVE",
"210 801.4 OFFCURVE",
"210 775 CURVE SMOOTH",
"210 748.21 OFFCURVE",
"219.83 725.71 OFFCURVE",
"239.5 707.5 CURVE SMOOTH",
"254.65 693.47 OFFCURVE",
"271.58 684.81 OFFCURVE",
"290.29 681.51 CURVE",
"10 0 LINE",
"86 0 LINE",
"159.28 185 LINE",
"458.05 185 LINE",
"531 0 LINE"
);
},
{
closed = 1;
nodes = (
"285.83 812 OFFCURVE",
"296 816 OFFCURVE",
"308 816 CURVE SMOOTH",
"320 816 OFFCURVE",
"330.17 812 OFFCURVE",
"338.5 804 CURVE SMOOTH",
"346.83 796 OFFCURVE",
"351 786.5 OFFCURVE",
"351 775.5 CURVE SMOOTH",
"351 764.5 OFFCURVE",
"347 755 OFFCURVE",
"339 747 CURVE SMOOTH",
"331 739 OFFCURVE",
"320.83 735 OFFCURVE",
"308.5 735 CURVE SMOOTH",
"296.17 735 OFFCURVE",
"285.83 739 OFFCURVE",
"277.5 747 CURVE SMOOTH",
"269.17 755 OFFCURVE",
"265 764.5 OFFCURVE",
"265 775.5 CURVE SMOOTH",
"265 786.5 OFFCURVE",
"269.17 796 OFFCURVE",
"277.5 804 CURVE SMOOTH"
);
}
);
width = 617;
}
);
note = Aring;
unicode = 00C5;
},
{
glyphname = Ccedilla;
lastChange = "2017-05-14 03:42:20 +0000";
layers = (
{
layerId = "7DC84FEC-FE63-4092-95B6-3924847BFAB0";
paths = (
{
closed = 1;
nodes = (
"622 208 LINE",
"598.67 164 OFFCURVE",
"565.83 128.67 OFFCURVE",
"523.5 102 CURVE SMOOTH",
"481.17 75.33 OFFCURVE",
"434.67 62 OFFCURVE",
"384 62 CURVE SMOOTH",
"309.48 62 OFFCURVE",
"245.65 89.67 OFFCURVE",
"192.5 145 CURVE SMOOTH",
"140.83 198.79 OFFCURVE",
"115 263.46 OFFCURVE",
"115 339 CURVE SMOOTH",
"115 415.21 OFFCURVE",
"140.83 480.21 OFFCURVE",
"192.5 534 CURVE SMOOTH",
"216.83 559.33 OFFCURVE",
"245.33 579.5 OFFCURVE",
"278 594.5 CURVE SMOOTH",
"310.67 609.5 OFFCURVE",
"342.67 617 OFFCURVE",
"374 617 CURVE SMOOTH",
"405.33 617 OFFCURVE",
"432.83 613.5 OFFCURVE",
"456.5 606.5 CURVE SMOOTH",
"529.38 584.94 OFFCURVE",
"584.21 540.44 OFFCURVE",
"621 473 CURVE",
"698 473 LINE",
"672.41 537.66 OFFCURVE",
"631.07 589.83 OFFCURVE",
"574 629.5 CURVE SMOOTH",
"516.94 669.17 OFFCURVE",
"453.6 689 OFFCURVE",
"384 689 CURVE SMOOTH",
"289.78 689 OFFCURVE",
"209.44 654.33 OFFCURVE",
"143 585 CURVE SMOOTH",
"112.33 553 OFFCURVE",
"88.33 515.83 OFFCURVE",
"71 473.5 CURVE SMOOTH",
"53.67 431.17 OFFCURVE",
"45 386.33 OFFCURVE",
"45 339 CURVE SMOOTH",
"45 243.84 OFFCURVE",
"77.67 162.17 OFFCURVE",
"143 94 CURVE SMOOTH",
"198.95 35.62 OFFCURVE",
"264.75 1.81 OFFCURVE",
"340.4 -7.41 CURVE",
"297 -103 LINE",
"310.33 -101 OFFCURVE",
"324.67 -98.67 OFFCURVE",
"340 -96 CURVE SMOOTH",
"355.33 -93.33 OFFCURVE",
"370 -93 OFFCURVE",
"384 -95 CURVE SMOOTH",
"421.39 -100.54 OFFCURVE",
"437.06 -120.87 OFFCURVE",
"431 -156 CURVE",
"428.5 -177.26 OFFCURVE",
"409.67 -189.76 OFFCURVE",
"374.5 -193.5 CURVE SMOOTH",
"340.14 -197.16 OFFCURVE",
"304.3 -192.32 OFFCURVE",
"267 -179 CURVE",
"242 -231 LINE",
"289.09 -249.55 OFFCURVE",
"335.42 -255.72 OFFCURVE",
"381 -249.5 CURVE SMOOTH",
"430.38 -242.77 OFFCURVE",
"462.72 -220.93 OFFCURVE",
"478 -184 CURVE SMOOTH",
"492.25 -150.32 OFFCURVE",
"490.92 -118.49 OFFCURVE",
"474 -88.5 CURVE SMOOTH",
"466.67 -75.5 OFFCURVE",
"456.83 -65 OFFCURVE",
"444.5 -57 CURVE SMOOTH",
"432.17 -49 OFFCURVE",
"417.92 -45 OFFCURVE",
"401.75 -45 CURVE SMOOTH",
"385.58 -45 OFFCURVE",
"377 -45.33 OFFCURVE",
"376 -46 CURVE",
"393.22 -9.88 LINE",
"458.97 -8.17 OFFCURVE",
"519.56 11.96 OFFCURVE",
"575 50.5 CURVE SMOOTH",
"632.43 90.42 OFFCURVE",
"673.77 142.92 OFFCURVE",
"699 208 CURVE"
);
}
);
width = 729;
}
);
note = Ccedilla;
unicode = 00C7;
},
{
glyphname = Eacute;
lastChange = "2017-05-14 03:42:20 +0000";
layers = (
{
layerId = "7DC84FEC-FE63-4092-95B6-3924847BFAB0";
paths = (
{
closed = 1;
nodes = (
"479 0 LINE",
"479 65 LINE",
"145 65 LINE",
"145 307 LINE",
"469 307 LINE",
"469 373 LINE",
"145 373 LINE",
"145 615 LINE",
"479 615 LINE",
"479 680 LINE",
"75 680 LINE",
"75 0 LINE"
);
},
{
closed = 1;
nodes = (
"420 893 LINE",
"334 893 LINE",
"254 750 LINE",
"310 750 LINE"
);
}
);
width = 554;
}
);
note = Eacute;
unicode = 00C9;
},
{
glyphname = Ntilde;
lastChange = "2017-05-14 03:42:20 +0000";
layers = (
{
layerId = "7DC84FEC-FE63-4092-95B6-3924847BFAB0";
paths = (
{
closed = 1;
nodes = (
"145 501 LINE",
"527 -42 LINE",
"527 680 LINE",
"457 680 LINE",
"457 180 LINE",
"75 723 LINE",
"75 0 LINE",
"145 0 LINE"
);
},
{
closed = 1;
nodes = (
"187 750 LINE",
"185.67 762.67 OFFCURVE",
"186.33 774 OFFCURVE",
"189 784 CURVE SMOOTH",
"194.38 807.33 OFFCURVE",
"208.05 819 OFFCURVE",
"230 819 CURVE SMOOTH",
"243.33 819 OFFCURVE",
"254 814.83 OFFCURVE",
"262 806.5 CURVE SMOOTH",
"270 798.17 OFFCURVE",
"278.17 788.83 OFFCURVE",
"286.5 778.5 CURVE SMOOTH",
"294.83 768.17 OFFCURVE",
"305 758.83 OFFCURVE",
"317 750.5 CURVE SMOOTH",
"329 742.17 OFFCURVE",
"347.83 738 OFFCURVE",
"373.5 738 CURVE SMOOTH",
"399.17 738 OFFCURVE",
"418.83 744.5 OFFCURVE",
"432.5 757.5 CURVE SMOOTH",
"459.77 783.44 OFFCURVE",
"470.93 818.6 OFFCURVE",
"466 863 CURVE",
"417 863 LINE",
"417 837.92 OFFCURVE",
"415.33 821.42 OFFCURVE",
"412 813.5 CURVE SMOOTH",
"409.33 807.17 OFFCURVE",
"405 802.33 OFFCURVE",
"399 799 CURVE SMOOTH",
"393 795.67 OFFCURVE",
"384 794 OFFCURVE",
"372 794 CURVE SMOOTH",
"360 794 OFFCURVE",
"350.17 798.17 OFFCURVE",
"342.5 806.5 CURVE SMOOTH",
"334.83 814.83 OFFCURVE",
"326.83 824 OFFCURVE",
"318.5 834 CURVE SMOOTH",
"310.17 844 OFFCURVE",
"300 853.17 OFFCURVE",
"288 861.5 CURVE SMOOTH",
"276 869.83 OFFCURVE",
"257.67 874 OFFCURVE",
"233 874 CURVE SMOOTH",
"208.33 874 OFFCURVE",
"189.17 867.5 OFFCURVE",
"175.5 854.5 CURVE SMOOTH",
"149.22 829.51 OFFCURVE",
"136.72 794.67 OFFCURVE",
"138 750 CURVE"
);
}
);
width = 602;
}
);
note = Ntilde;
unicode = 00D1;
},
{
glyphname = Odieresis;
lastChange = "2017-05-14 03:42:20 +0000";
layers = (
{
layerId = "7DC84FEC-FE63-4092-95B6-3924847BFAB0";
paths = (
{
closed = 1;
nodes = (
"674 264.67 OFFCURVE",
"646.67 198.67 OFFCURVE",
"592 144 CURVE SMOOTH",
"537.33 89.33 OFFCURVE",
"471.33 62 OFFCURVE",
"394 62 CURVE SMOOTH",
"317.33 62 OFFCURVE",
"251.67 89.33 OFFCURVE",
"197 144 CURVE SMOOTH",
"142.33 198.67 OFFCURVE",
"115 264.67 OFFCURVE",
"115 342 CURVE SMOOTH",
"115 418.67 OFFCURVE",
"142.33 484.33 OFFCURVE",
"197 539 CURVE SMOOTH",
"251.67 593.67 OFFCURVE",
"317.33 621 OFFCURVE",
"394 621 CURVE SMOOTH",
"471.33 621 OFFCURVE",
"537.33 593.67 OFFCURVE",
"592 539 CURVE SMOOTH",
"646.67 484.33 OFFCURVE",
"674 418.67 OFFCURVE",
"674 342 CURVE SMOOTH"
);
},
{
closed = 1;
nodes = (
"744 390 OFFCURVE",
"734.83 435.33 OFFCURVE",
"716.5 478 CURVE SMOOTH",
"698.17 520.67 OFFCURVE",
"673.17 557.67 OFFCURVE",
"641.5 589 CURVE SMOOTH",
"609.83 620.33 OFFCURVE",
"572.67 645.17 OFFCURVE",
"530 663.5 CURVE SMOOTH",
"487.33 681.83 OFFCURVE",
"442 691 OFFCURVE",
"394 691 CURVE SMOOTH",
"346 691 OFFCURVE",
"300.83 681.83 OFFCURVE",
"258.5 663.5 CURVE SMOOTH",
"216.17 645.17 OFFCURVE",
"179.17 620.33 OFFCURVE",
"147.5 589 CURVE SMOOTH",
"115.83 557.67 OFFCURVE",
"90.83 520.67 OFFCURVE",
"72.5 478 CURVE SMOOTH",
"54.17 435.33 OFFCURVE",
"45 390 OFFCURVE",
"45 342 CURVE SMOOTH",
"45 294 OFFCURVE",
"54.17 248.67 OFFCURVE",
"72.5 206 CURVE SMOOTH",
"90.83 163.33 OFFCURVE",
"115.83 126.17 OFFCURVE",
"147.5 94.5 CURVE SMOOTH",
"179.17 62.83 OFFCURVE",
"216.17 37.83 OFFCURVE",
"258.5 19.5 CURVE SMOOTH",
"300.83 1.17 OFFCURVE",
"346 -8 OFFCURVE",
"394 -8 CURVE SMOOTH",
"442 -8 OFFCURVE",
"487.33 1.17 OFFCURVE",
"530 19.5 CURVE SMOOTH",
"572.67 37.83 OFFCURVE",
"609.83 62.83 OFFCURVE",
"641.5 94.5 CURVE SMOOTH",
"673.17 126.17 OFFCURVE",
"698.17 163.33 OFFCURVE",
"716.5 206 CURVE SMOOTH",
"734.83 248.67 OFFCURVE",
"744 294 OFFCURVE",
"744 342 CURVE SMOOTH"
);
},
{
closed = 1;
nodes = (
"508.33 834.67 OFFCURVE",
"497.67 839 OFFCURVE",
"485 839 CURVE SMOOTH",
"472.33 839 OFFCURVE",
"461.83 834.67 OFFCURVE",
"453.5 826 CURVE SMOOTH",
"445.17 817.33 OFFCURVE",
"441 806.83 OFFCURVE",
"441 794.5 CURVE SMOOTH",
"441 782.17 OFFCURVE",
"445.17 771.67 OFFCURVE",
"453.5 763 CURVE SMOOTH",
"461.83 754.33 OFFCURVE",
"472.33 750 OFFCURVE",
"485 750 CURVE SMOOTH",
"497.67 750 OFFCURVE",
"508.33 754.33 OFFCURVE",
"517 763 CURVE SMOOTH",
"525.67 771.67 OFFCURVE",
"530 782.17 OFFCURVE",
"530 794.5 CURVE SMOOTH",
"530 806.83 OFFCURVE",
"525.67 817.33 OFFCURVE",
"517 826 CURVE SMOOTH"
);
},
{
closed = 1;
nodes = (
"326.33 834.67 OFFCURVE",
"315.67 839 OFFCURVE",
"303 839 CURVE SMOOTH",
"290.33 839 OFFCURVE",
"279.83 834.67 OFFCURVE",
"271.5 826 CURVE SMOOTH",
"263.17 817.33 OFFCURVE",
"259 806.83 OFFCURVE",
"259 794.5 CURVE SMOOTH",
"259 782.17 OFFCURVE",
"263.17 771.67 OFFCURVE",
"271.5 763 CURVE SMOOTH",
"279.83 754.33 OFFCURVE",
"290.33 750 OFFCURVE",
"303 750 CURVE SMOOTH",
"315.67 750 OFFCURVE",
"326.33 754.33 OFFCURVE",
"335 763 CURVE SMOOTH",
"343.67 771.67 OFFCURVE",
"348 782.17 OFFCURVE",
"348 794.5 CURVE SMOOTH",
"348 806.83 OFFCURVE",
"343.67 817.33 OFFCURVE",
"335 826 CURVE SMOOTH"
);
}
);
width = 789;
}
);
note = Odieresis;
unicode = 00D6;
},
{
glyphname = Udieresis;
lastChange = "2017-05-14 03:42:20 +0000";
layers = (
{
layerId = "7DC84FEC-FE63-4092-95B6-3924847BFAB0";
paths = (
{
closed = 1;
nodes = (
"567 680 LINE",
"497 680 LINE",
"497 215 LINE SMOOTH",
"497 187.67 OFFCURVE",
"492 164.33 OFFCURVE",
"482 145 CURVE SMOOTH",
"453.03 89 OFFCURVE",
"397.03 61 OFFCURVE",
"314 61 CURVE SMOOTH",
"260.54 61 OFFCURVE",
"217.71 73 OFFCURVE",
"185.5 97 CURVE SMOOTH",
"148.5 124.57 OFFCURVE",
"130 163.9 OFFCURVE",
"130 215 CURVE SMOOTH",
"130 680 LINE",
"60 680 LINE",
"60 225 LINE SMOOTH",
"60 151.35 OFFCURVE",
"84 93.35 OFFCURVE",
"132 51 CURVE SMOOTH",
"177.33 11 OFFCURVE",
"238 -9 OFFCURVE",
"314 -9 CURVE SMOOTH",
"389.33 -9 OFFCURVE",
"449.67 11 OFFCURVE",
"495 51 CURVE SMOOTH",
"543 93.35 OFFCURVE",
"567 151.35 OFFCURVE",
"567 225 CURVE SMOOTH"
);
},
{
closed = 1;
nodes = (
"428.33 834.67 OFFCURVE",
"417.67 839 OFFCURVE",
"405 839 CURVE SMOOTH",
"392.33 839 OFFCURVE",
"381.83 834.67 OFFCURVE",
"373.5 826 CURVE SMOOTH",
"365.17 817.33 OFFCURVE",
"361 806.83 OFFCURVE",
"361 794.5 CURVE SMOOTH",
"361 782.17 OFFCURVE",
"365.17 771.67 OFFCURVE",
"373.5 763 CURVE SMOOTH",
"381.83 754.33 OFFCURVE",
"392.33 750 OFFCURVE",
"405 750 CURVE SMOOTH",
"417.67 750 OFFCURVE",
"428.33 754.33 OFFCURVE",
"437 763 CURVE SMOOTH",
"445.67 771.67 OFFCURVE",
"450 782.17 OFFCURVE",
"450 794.5 CURVE SMOOTH",
"450 806.83 OFFCURVE",
"445.67 817.33 OFFCURVE",
"437 826 CURVE SMOOTH"
);
},
{
closed = 1;
nodes = (
"246.33 834.67 OFFCURVE",
"235.67 839 OFFCURVE",
"223 839 CURVE SMOOTH",
"210.33 839 OFFCURVE",
"199.83 834.67 OFFCURVE",
"191.5 826 CURVE SMOOTH",
"183.17 817.33 OFFCURVE",
"179 806.83 OFFCURVE",
"179 794.5 CURVE SMOOTH",
"179 782.17 OFFCURVE",
"183.17 771.67 OFFCURVE",
"191.5 763 CURVE SMOOTH",
"199.83 754.33 OFFCURVE",
"210.33 750 OFFCURVE",
"223 750 CURVE SMOOTH",
"235.67 750 OFFCURVE",
"246.33 754.33 OFFCURVE",
"255 763 CURVE SMOOTH",
"263.67 771.67 OFFCURVE",
"268 782.17 OFFCURVE",
"268 794.5 CURVE SMOOTH",
"268 806.83 OFFCURVE",
"263.67 817.33 OFFCURVE",
"255 826 CURVE SMOOTH"
);
}
);
width = 627;
}
);
note = Udieresis;
unicode = 00DC;
},
{
glyphname = aacute;
lastChange = "2017-05-14 03:42:20 +0000";
layers = (
{
layerId = "7DC84FEC-FE63-4092-95B6-3924847BFAB0";
paths = (
{
closed = 1;
nodes = (
"425 177.17 OFFCURVE",
"410.17 139.84 OFFCURVE",
"380.5 108 CURVE SMOOTH",
"350.68 76 OFFCURVE",
"313.85 60 OFFCURVE",
"270 60 CURVE SMOOTH",
"226.15 60 OFFCURVE",
"189.32 76 OFFCURVE",
"159.5 108 CURVE SMOOTH",
"129.83 139.84 OFFCURVE",
"115 177.17 OFFCURVE",
"115 220 CURVE SMOOTH",
"115 262.83 OFFCURVE",
"129.83 300.16 OFFCURVE",
"159.5 332 CURVE SMOOTH",
"189.32 364 OFFCURVE",
"226.15 380 OFFCURVE",
"270 380 CURVE SMOOTH",
"313.85 380 OFFCURVE",
"350.68 364 OFFCURVE",
"380.5 332 CURVE SMOOTH",
"410.17 300.16 OFFCURVE",
"425 262.83 OFFCURVE",
"425 220 CURVE SMOOTH"
);
},
{
closed = 1;
nodes = (
"495 0 LINE",
"495 440 LINE",
"425 440 LINE",
"425 364.87 LINE",
"421.07 370.01 OFFCURVE",
"416.91 375.06 OFFCURVE",
"412.5 380 CURVE SMOOTH",
"370.94 426.67 OFFCURVE",
"319.77 450 OFFCURVE",
"259 450 CURVE SMOOTH",
"198.23 450 OFFCURVE",
"147.06 426.67 OFFCURVE",
"105.5 380 CURVE SMOOTH",
"65.17 334.71 OFFCURVE",
"45 281.38 OFFCURVE",
"45 220 CURVE SMOOTH",
"45 158.62 OFFCURVE",
"65.17 105.29 OFFCURVE",
"105.5 60 CURVE SMOOTH",
"147.06 13.33 OFFCURVE",
"198.23 -10 OFFCURVE",
"259 -10 CURVE SMOOTH",
"319.77 -10 OFFCURVE",
"370.94 13.33 OFFCURVE",
"412.5 60 CURVE SMOOTH",
"416.91 64.95 OFFCURVE",
"421.07 69.99 OFFCURVE",
"425 75.13 CURVE",
"425 0 LINE"
);
},
{
closed = 1;
nodes = (
"378 681 LINE",
"292 681 LINE",
"212 538 LINE",
"268 538 LINE"
);
}
);
width = 570;
}
);
note = aacute;
unicode = 00E1;
},
{
glyphname = agrave;
lastChange = "2017-05-14 03:42:20 +0000";
layers = (
{
layerId = "7DC84FEC-FE63-4092-95B6-3924847BFAB0";
paths = (
{
closed = 1;
nodes = (
"425 177.17 OFFCURVE",
"410.17 139.84 OFFCURVE",
"380.5 108 CURVE SMOOTH",
"350.68 76 OFFCURVE",
"313.85 60 OFFCURVE",
"270 60 CURVE SMOOTH",
"226.15 60 OFFCURVE",
"189.32 76 OFFCURVE",
"159.5 108 CURVE SMOOTH",
"129.83 139.84 OFFCURVE",
"115 177.17 OFFCURVE",
"115 220 CURVE SMOOTH",
"115 262.83 OFFCURVE",
"129.83 300.16 OFFCURVE",
"159.5 332 CURVE SMOOTH",
"189.32 364 OFFCURVE",
"226.15 380 OFFCURVE",
"270 380 CURVE SMOOTH",
"313.85 380 OFFCURVE",
"350.68 364 OFFCURVE",
"380.5 332 CURVE SMOOTH",
"410.17 300.16 OFFCURVE",
"425 262.83 OFFCURVE",
"425 220 CURVE SMOOTH"
);
},
{
closed = 1;
nodes = (
"495 0 LINE",
"495 440 LINE",
"425 440 LINE",
"425 364.87 LINE",
"421.07 370.01 OFFCURVE",
"416.91 375.06 OFFCURVE",
"412.5 380 CURVE SMOOTH",
"370.94 426.67 OFFCURVE",
"319.77 450 OFFCURVE",
"259 450 CURVE SMOOTH",
"198.23 450 OFFCURVE",
"147.06 426.67 OFFCURVE",
"105.5 380 CURVE SMOOTH",
"65.17 334.71 OFFCURVE",
"45 281.38 OFFCURVE",
"45 220 CURVE SMOOTH",
"45 158.62 OFFCURVE",
"65.17 105.29 OFFCURVE",
"105.5 60 CURVE SMOOTH",
"147.06 13.33 OFFCURVE",
"198.23 -10 OFFCURVE",
"259 -10 CURVE SMOOTH",
"319.77 -10 OFFCURVE",
"370.94 13.33 OFFCURVE",
"412.5 60 CURVE SMOOTH",
"416.91 64.95 OFFCURVE",
"421.07 69.99 OFFCURVE",
"425 75.13 CURVE",
"425 0 LINE"
);
},
{
closed = 1;
nodes = (
"304 517 LINE",
"214 660 LINE",
"138 660 LINE",
"248 517 LINE"
);
}
);
width = 570;
}
);
note = agrave;
unicode = 00E0;
},
{
glyphname = acircumflex;
lastChange = "2017-05-14 03:42:20 +0000";
layers = (
{
layerId = "7DC84FEC-FE63-4092-95B6-3924847BFAB0";
paths = (
{
closed = 1;
nodes = (
"425 177.17 OFFCURVE",
"410.17 139.84 OFFCURVE",
"380.5 108 CURVE SMOOTH",
"350.68 76 OFFCURVE",
"313.85 60 OFFCURVE",
"270 60 CURVE SMOOTH",
"226.15 60 OFFCURVE",
"189.32 76 OFFCURVE",
"159.5 108 CURVE SMOOTH",
"129.83 139.84 OFFCURVE",
"115 177.17 OFFCURVE",
"115 220 CURVE SMOOTH",
"115 262.83 OFFCURVE",
"129.83 300.16 OFFCURVE",
"159.5 332 CURVE SMOOTH",
"189.32 364 OFFCURVE",
"226.15 380 OFFCURVE",
"270 380 CURVE SMOOTH",
"313.85 380 OFFCURVE",
"350.68 364 OFFCURVE",
"380.5 332 CURVE SMOOTH",
"410.17 300.16 OFFCURVE",
"425 262.83 OFFCURVE",
"425 220 CURVE SMOOTH"
);
},
{
closed = 1;
nodes = (
"495 0 LINE",
"495 440 LINE",
"425 440 LINE",
"425 364.87 LINE",
"421.07 370.01 OFFCURVE",
"416.91 375.06 OFFCURVE",
"412.5 380 CURVE SMOOTH",
"370.94 426.67 OFFCURVE",
"319.77 450 OFFCURVE",
"259 450 CURVE SMOOTH",
"198.23 450 OFFCURVE",
"147.06 426.67 OFFCURVE",
"105.5 380 CURVE SMOOTH",
"65.17 334.71 OFFCURVE",
"45 281.38 OFFCURVE",
"45 220 CURVE SMOOTH",
"45 158.62 OFFCURVE",
"65.17 105.29 OFFCURVE",
"105.5 60 CURVE SMOOTH",
"147.06 13.33 OFFCURVE",
"198.23 -10 OFFCURVE",
"259 -10 CURVE SMOOTH",
"319.77 -10 OFFCURVE",
"370.94 13.33 OFFCURVE",
"412.5 60 CURVE SMOOTH",
"416.91 64.95 OFFCURVE",
"421.07 69.99 OFFCURVE",
"425 75.13 CURVE",
"425 0 LINE"
);
},
{
closed = 1;
nodes = (
"265 623 LINE",
"337 517 LINE",
"408 517 LINE",
"298 660 LINE",
"232 660 LINE",
"122 517 LINE",
"193 517 LINE"
);
}
);
width = 570;
}
);
note = acircumflex;
unicode = 00E2;
},
{
glyphname = adieresis;
lastChange = "2017-05-14 03:42:20 +0000";
layers = (
{
layerId = "7DC84FEC-FE63-4092-95B6-3924847BFAB0";
paths = (
{
closed = 1;
nodes = (
"425 177.17 OFFCURVE",
"410.17 139.84 OFFCURVE",
"380.5 108 CURVE SMOOTH",
"350.68 76 OFFCURVE",
"313.85 60 OFFCURVE",
"270 60 CURVE SMOOTH",
"226.15 60 OFFCURVE",
"189.32 76 OFFCURVE",
"159.5 108 CURVE SMOOTH",
"129.83 139.84 OFFCURVE",
"115 177.17 OFFCURVE",
"115 220 CURVE SMOOTH",
"115 262.83 OFFCURVE",
"129.83 300.16 OFFCURVE",
"159.5 332 CURVE SMOOTH",
"189.32 364 OFFCURVE",
"226.15 380 OFFCURVE",
"270 380 CURVE SMOOTH",
"313.85 380 OFFCURVE",
"350.68 364 OFFCURVE",
"380.5 332 CURVE SMOOTH",
"410.17 300.16 OFFCURVE",
"425 262.83 OFFCURVE",
"425 220 CURVE SMOOTH"
);
},
{
closed = 1;
nodes = (
"495 0 LINE",
"495 440 LINE",
"425 440 LINE",
"425 364.87 LINE",
"421.07 370.01 OFFCURVE",
"416.91 375.06 OFFCURVE",
"412.5 380 CURVE SMOOTH",
"370.94 426.67 OFFCURVE",
"319.77 450 OFFCURVE",
"259 450 CURVE SMOOTH",
"198.23 450 OFFCURVE",
"147.06 426.67 OFFCURVE",
"105.5 380 CURVE SMOOTH",
"65.17 334.71 OFFCURVE",
"45 281.38 OFFCURVE",
"45 220 CURVE SMOOTH",
"45 158.62 OFFCURVE",
"65.17 105.29 OFFCURVE",
"105.5 60 CURVE SMOOTH",
"147.06 13.33 OFFCURVE",
"198.23 -10 OFFCURVE",
"259 -10 CURVE SMOOTH",
"319.77 -10 OFFCURVE",
"370.94 13.33 OFFCURVE",
"412.5 60 CURVE SMOOTH",
"416.91 64.95 OFFCURVE",
"421.07 69.99 OFFCURVE",
"425 75.13 CURVE",
"425 0 LINE"
);
},
{
closed = 1;
nodes = (
"370.33 601.67 OFFCURVE",
"359.67 606 OFFCURVE",
"347 606 CURVE SMOOTH",
"334.33 606 OFFCURVE",
"323.83 601.67 OFFCURVE",
"315.5 593 CURVE SMOOTH",
"307.17 584.33 OFFCURVE",
"303 573.83 OFFCURVE",
"303 561.5 CURVE SMOOTH",
"303 549.17 OFFCURVE",
"307.17 538.67 OFFCURVE",
"315.5 530 CURVE SMOOTH",
"323.83 521.33 OFFCURVE",
"334.33 517 OFFCURVE",
"347 517 CURVE SMOOTH",
"359.67 517 OFFCURVE",
"370.33 521.33 OFFCURVE",
"379 530 CURVE SMOOTH",
"387.67 538.67 OFFCURVE",
"392 549.17 OFFCURVE",
"392 561.5 CURVE SMOOTH",
"392 573.83 OFFCURVE",
"387.67 584.33 OFFCURVE",
"379 593 CURVE SMOOTH"
);
},
{
closed = 1;
nodes = (
"188.33 601.67 OFFCURVE",
"177.67 606 OFFCURVE",
"165 606 CURVE SMOOTH",
"152.33 606 OFFCURVE",
"141.83 601.67 OFFCURVE",
"133.5 593 CURVE SMOOTH",
"125.17 584.33 OFFCURVE",
"121 573.83 OFFCURVE",
"121 561.5 CURVE SMOOTH",
"121 549.17 OFFCURVE",
"125.17 538.67 OFFCURVE",
"133.5 530 CURVE SMOOTH",
"141.83 521.33 OFFCURVE",
"152.33 517 OFFCURVE",
"165 517 CURVE SMOOTH",
"177.67 517 OFFCURVE",
"188.33 521.33 OFFCURVE",
"197 530 CURVE SMOOTH",
"205.67 538.67 OFFCURVE",
"210 549.17 OFFCURVE",
"210 561.5 CURVE SMOOTH",
"210 573.83 OFFCURVE",
"205.67 584.33 OFFCURVE",
"197 593 CURVE SMOOTH"
);
}
);
width = 570;
}
);
note = adieresis;
unicode = 00E4;
},
{
glyphname = atilde;
lastChange = "2017-05-14 03:42:20 +0000";
layers = (
{
layerId = "7DC84FEC-FE63-4092-95B6-3924847BFAB0";
paths = (
{
closed = 1;
nodes = (
"425 177.17 OFFCURVE",
"410.17 139.84 OFFCURVE",
"380.5 108 CURVE SMOOTH",
"350.68 76 OFFCURVE",
"313.85 60 OFFCURVE",
"270 60 CURVE SMOOTH",
"226.15 60 OFFCURVE",
"189.32 76 OFFCURVE",
"159.5 108 CURVE SMOOTH",
"129.83 139.84 OFFCURVE",
"115 177.17 OFFCURVE",
"115 220 CURVE SMOOTH",
"115 262.83 OFFCURVE",
"129.83 300.16 OFFCURVE",
"159.5 332 CURVE SMOOTH",
"189.32 364 OFFCURVE",
"226.15 380 OFFCURVE",
"270 380 CURVE SMOOTH",
"313.85 380 OFFCURVE",
"350.68 364 OFFCURVE",
"380.5 332 CURVE SMOOTH",
"410.17 300.16 OFFCURVE",
"425 262.83 OFFCURVE",
"425 220 CURVE SMOOTH"
);
},
{
closed = 1;
nodes = (
"495 0 LINE",
"495 440 LINE",
"425 440 LINE",
"425 364.87 LINE",
"421.07 370.01 OFFCURVE",
"416.91 375.06 OFFCURVE",
"412.5 380 CURVE SMOOTH",
"370.94 426.67 OFFCURVE",
"319.77 450 OFFCURVE",
"259 450 CURVE SMOOTH",
"198.23 450 OFFCURVE",
"147.06 426.67 OFFCURVE",
"105.5 380 CURVE SMOOTH",
"65.17 334.71 OFFCURVE",
"45 281.38 OFFCURVE",
"45 220 CURVE SMOOTH",
"45 158.62 OFFCURVE",
"65.17 105.29 OFFCURVE",
"105.5 60 CURVE SMOOTH",
"147.06 13.33 OFFCURVE",
"198.23 -10 OFFCURVE",
"259 -10 CURVE SMOOTH",
"319.77 -10 OFFCURVE",
"370.94 13.33 OFFCURVE",
"412.5 60 CURVE SMOOTH",
"416.91 64.95 OFFCURVE",
"421.07 69.99 OFFCURVE",
"425 75.13 CURVE",
"425 0 LINE"
);
},
{
closed = 1;
nodes = (
"154 518 LINE",
"152.67 530.67 OFFCURVE",
"153.33 542 OFFCURVE",
"156 552 CURVE SMOOTH",
"161.38 575.33 OFFCURVE",
"175.05 587 OFFCURVE",
"197 587 CURVE SMOOTH",
"210.33 587 OFFCURVE",
"221 582.83 OFFCURVE",
"229 574.5 CURVE SMOOTH",
"237 566.17 OFFCURVE",
"245.17 556.83 OFFCURVE",
"253.5 546.5 CURVE SMOOTH",
"261.83 536.17 OFFCURVE",
"272 526.83 OFFCURVE",
"284 518.5 CURVE SMOOTH",
"296 510.17 OFFCURVE",
"314.83 506 OFFCURVE",
"340.5 506 CURVE SMOOTH",
"366.17 506 OFFCURVE",
"385.83 512.5 OFFCURVE",
"399.5 525.5 CURVE SMOOTH",
"426.77 551.44 OFFCURVE",
"437.93 586.6 OFFCURVE",
"433 631 CURVE",
"384 631 LINE",
"384 605.92 OFFCURVE",
"382.33 589.42 OFFCURVE",
"379 581.5 CURVE SMOOTH",
"376.33 575.17 OFFCURVE",
"372 570.33 OFFCURVE",
"366 567 CURVE SMOOTH",
"360 563.67 OFFCURVE",
"351 562 OFFCURVE",
"339 562 CURVE SMOOTH",
"327 562 OFFCURVE",
"317.17 566.17 OFFCURVE",
"309.5 574.5 CURVE SMOOTH",
"301.83 582.83 OFFCURVE",
"293.83 592 OFFCURVE",
"285.5 602 CURVE SMOOTH",
"277.17 612 OFFCURVE",
"267 621.17 OFFCURVE",
"255 629.5 CURVE SMOOTH",
"243 637.83 OFFCURVE",
"224.67 642 OFFCURVE",
"200 642 CURVE SMOOTH",
"175.33 642 OFFCURVE",
"156.17 635.5 OFFCURVE",
"142.5 622.5 CURVE SMOOTH",
"116.22 597.51 OFFCURVE",
"103.72 562.67 OFFCURVE",
"105 518 CURVE"
);
}
);
width = 570;
}
);
note = atilde;
unicode = 00E3;
},
{
glyphname = aring;
lastChange = "2017-05-14 03:42:20 +0000";
layers = (
{
layerId = "7DC84FEC-FE63-4092-95B6-3924847BFAB0";
paths = (
{
closed = 1;
nodes = (
"425 177.17 OFFCURVE",
"410.17 139.84 OFFCURVE",
"380.5 108 CURVE SMOOTH",
"350.68 76 OFFCURVE",
"313.85 60 OFFCURVE",
"270 60 CURVE SMOOTH",
"226.15 60 OFFCURVE",
"189.32 76 OFFCURVE",
"159.5 108 CURVE SMOOTH",
"129.83 139.84 OFFCURVE",
"115 177.17 OFFCURVE",
"115 220 CURVE SMOOTH",
"115 262.83 OFFCURVE",
"129.83 300.16 OFFCURVE",
"159.5 332 CURVE SMOOTH",
"189.32 364 OFFCURVE",
"226.15 380 OFFCURVE",
"270 380 CURVE SMOOTH",
"313.85 380 OFFCURVE",
"350.68 364 OFFCURVE",
"380.5 332 CURVE SMOOTH",
"410.17 300.16 OFFCURVE",
"425 262.83 OFFCURVE",
"425 220 CURVE SMOOTH"
);
},
{
closed = 1;
nodes = (
"495 0 LINE",
"495 440 LINE",
"425 440 LINE",
"425 364.87 LINE",
"421.07 370.01 OFFCURVE",
"416.91 375.06 OFFCURVE",
"412.5 380 CURVE SMOOTH",
"370.94 426.67 OFFCURVE",
"319.77 450 OFFCURVE",
"259 450 CURVE SMOOTH",
"198.23 450 OFFCURVE",
"147.06 426.67 OFFCURVE",
"105.5 380 CURVE SMOOTH",
"65.17 334.71 OFFCURVE",
"45 281.38 OFFCURVE",
"45 220 CURVE SMOOTH",
"45 158.62 OFFCURVE",
"65.17 105.29 OFFCURVE",
"105.5 60 CURVE SMOOTH",
"147.06 13.33 OFFCURVE",
"198.23 -10 OFFCURVE",
"259 -10 CURVE SMOOTH",
"319.77 -10 OFFCURVE",
"370.94 13.33 OFFCURVE",
"412.5 60 CURVE SMOOTH",
"416.91 64.95 OFFCURVE",
"421.07 69.99 OFFCURVE",
"425 75.13 CURVE",
"425 0 LINE"
);
},
{
closed = 1;
nodes = (
"232.83 633 OFFCURVE",
"243 637 OFFCURVE",
"255 637 CURVE SMOOTH",
"267 637 OFFCURVE",
"277.17 633 OFFCURVE",
"285.5 625 CURVE SMOOTH",
"293.83 617 OFFCURVE",
"298 607.5 OFFCURVE",
"298 596.5 CURVE SMOOTH",
"298 585.5 OFFCURVE",
"294 576 OFFCURVE",
"286 568 CURVE SMOOTH",
"278 560 OFFCURVE",
"267.83 556 OFFCURVE",
"255.5 556 CURVE SMOOTH",
"243.17 556 OFFCURVE",
"232.83 560 OFFCURVE",
"224.5 568 CURVE SMOOTH",
"216.17 576 OFFCURVE",
"212 585.5 OFFCURVE",
"212 596.5 CURVE SMOOTH",
"212 607.5 OFFCURVE",
"216.17 617 OFFCURVE",
"224.5 625 CURVE SMOOTH"
);
},
{
closed = 1;
nodes = (
"157 569.21 OFFCURVE",
"166.83 546.71 OFFCURVE",
"186.5 528.5 CURVE SMOOTH",
"206.3 510.17 OFFCURVE",
"229.13 501 OFFCURVE",
"255 501 CURVE SMOOTH",
"281.97 501 OFFCURVE",
"304.81 510 OFFCURVE",
"323.5 528 CURVE SMOOTH",
"343.17 546.94 OFFCURVE",
"353 569.6 OFFCURVE",
"353 596 CURVE SMOOTH",
"353 623.46 OFFCURVE",
"343.17 646.29 OFFCURVE",
"323.5 664.5 CURVE SMOOTH",
"303.7 682.83 OFFCURVE",
"280.87 692 OFFCURVE",
"255 692 CURVE SMOOTH",
"228.72 692 OFFCURVE",
"205.88 682.67 OFFCURVE",
"186.5 664 CURVE SMOOTH",
"166.83 645.06 OFFCURVE",
"157 622.4 OFFCURVE",
"157 596 CURVE SMOOTH"
);
}
);
width = 570;
}
);
note = aring;
unicode = 00E5;
},
{
glyphname = ccedilla;
lastChange = "2017-05-14 03:42:20 +0000";
layers = (
{
layerId = "7DC84FEC-FE63-4092-95B6-3924847BFAB0";
paths = (
{
closed = 1;
nodes = (
"486 282 LINE",
"472.18 331.76 OFFCURVE",
"445.68 371.76 OFFCURVE",
"406.5 402 CURVE SMOOTH",
"365.91 433.33 OFFCURVE",
"320.41 449 OFFCURVE",
"270 449 CURVE SMOOTH",
"207.2 449 OFFCURVE",
"153.87 426.33 OFFCURVE",
"110 381 CURVE SMOOTH",
"66.67 336.22 OFFCURVE",
"45 282.56 OFFCURVE",
"45 220 CURVE SMOOTH",
"45 157.83 OFFCURVE",
"66.67 104 OFFCURVE",
"110 58.5 CURVE SMOOTH",
"130 37.5 OFFCURVE",
"153.67 20.83 OFFCURVE",
"181 8.5 CURVE SMOOTH",
"200.16 -0.15 OFFCURVE",
"219.48 -5.76 OFFCURVE",
"238.97 -8.35 CURVE",
"196 -103 LINE",
"209.33 -101 OFFCURVE",
"223.67 -98.67 OFFCURVE",
"239 -96 CURVE SMOOTH",
"254.33 -93.33 OFFCURVE",
"269 -93 OFFCURVE",
"283 -95 CURVE SMOOTH",
"320.39 -100.54 OFFCURVE",
"336.06 -120.87 OFFCURVE",
"330 -156 CURVE",
"327.5 -177.26 OFFCURVE",
"308.67 -189.76 OFFCURVE",
"273.5 -193.5 CURVE SMOOTH",
"239.14 -197.16 OFFCURVE",
"203.3 -192.32 OFFCURVE",
"166 -179 CURVE",
"141 -231 LINE",
"188.09 -249.55 OFFCURVE",
"234.42 -255.72 OFFCURVE",
"280 -249.5 CURVE SMOOTH",
"329.38 -242.77 OFFCURVE",
"361.72 -220.93 OFFCURVE",
"377 -184 CURVE SMOOTH",
"391.25 -150.32 OFFCURVE",
"389.92 -118.49 OFFCURVE",
"373 -88.5 CURVE SMOOTH",
"365.67 -75.5 OFFCURVE",
"355.83 -65 OFFCURVE",
"343.5 -57 CURVE SMOOTH",
"331.17 -49 OFFCURVE",
"316.92 -45 OFFCURVE",
"300.75 -45 CURVE SMOOTH",
"284.58 -45 OFFCURVE",
"276 -45.33 OFFCURVE",
"275 -46 CURVE",
"292.86 -8.53 LINE",
"309.48 -6.77 OFFCURVE",
"324.86 -3.43 OFFCURVE",
"339 1.5 CURVE SMOOTH",
"409.47 26.06 OFFCURVE",
"457.14 73.56 OFFCURVE",
"482 144 CURVE",
"403 144 LINE",
"389.67 119.33 OFFCURVE",
"371.17 99.67 OFFCURVE",
"347.5 85 CURVE SMOOTH",
"323.83 70.33 OFFCURVE",
"298 63 OFFCURVE",
"270 63 CURVE SMOOTH",
"227.22 63 OFFCURVE",
"191.06 78.5 OFFCURVE",
"161.5 109.5 CURVE SMOOTH",
"131.83 140.61 OFFCURVE",
"117 177.45 OFFCURVE",
"117 220 CURVE SMOOTH",
"117 261.89 OFFCURVE",
"131.83 298.39 OFFCURVE",
"161.5 329.5 CURVE SMOOTH",
"175.17 343.83 OFFCURVE",
"191.33 355.17 OFFCURVE",
"210 363.5 CURVE SMOOTH",
"228.67 371.83 OFFCURVE",
"251 376 OFFCURVE",
"277 376 CURVE SMOOTH",
"303 376 OFFCURVE",
"328.67 367.33 OFFCURVE",
"354 350 CURVE SMOOTH",
"379.33 332.67 OFFCURVE",
"398 310 OFFCURVE",
"410 282 CURVE"
);
}
);
width = 521;
}
);
note = ccedilla;
unicode = 00E7;
},
{
glyphname = eacute;
lastChange = "2017-05-14 03:42:20 +0000";
layers = (
{
layerId = "7DC84FEC-FE63-4092-95B6-3924847BFAB0";
paths = (
{
closed = 1;
nodes = (
"505 230 LINE SMOOTH",
"505 290.54 OFFCURVE",
"481.83 342.87 OFFCURVE",
"435.5 387 CURVE SMOOTH",
"390 430.33 OFFCURVE",
"336.5 452 OFFCURVE",
"275 452 CURVE SMOOTH",
"211.67 452 OFFCURVE",
"157.5 429.5 OFFCURVE",
"112.5 384.5 CURVE SMOOTH",
"67.5 339.5 OFFCURVE",
"45 285.33 OFFCURVE",
"45 222 CURVE SMOOTH",
"45 158.29 OFFCURVE",
"67.5 104.29 OFFCURVE",
"112.5 60 CURVE SMOOTH",
"133.5 39.33 OFFCURVE",
"157.83 23 OFFCURVE",
"185.5 11 CURVE SMOOTH",
"213.17 -1 OFFCURVE",
"246.5 -7 OFFCURVE",
"285.5 -7 CURVE SMOOTH",
"324.5 -7 OFFCURVE",
"362.83 5.17 OFFCURVE",
"400.5 29.5 CURVE SMOOTH",
"438.17 53.83 OFFCURVE",
"466.33 87 OFFCURVE",
"485 129 CURVE",
"405 129 LINE",
"389.67 108.33 OFFCURVE",
"370.5 92.17 OFFCURVE",
"347.5 80.5 CURVE SMOOTH",
"324.5 68.83 OFFCURVE",
"300.33 63 OFFCURVE",
"275 63 CURVE SMOOTH",
"237.47 63 OFFCURVE",
"203.47 75.33 OFFCURVE",
"173 100 CURVE SMOOTH",
"143.08 124.22 OFFCURVE",
"124.75 155.22 OFFCURVE",
"118 193 CURVE",
"505 193 LINE"
);
},
{
closed = 1;
nodes = (
"119 253 LINE",
"123 271.67 OFFCURVE",
"130 288.83 OFFCURVE",
"140 304.5 CURVE SMOOTH",
"172.98 356.17 OFFCURVE",
"217.98 382 OFFCURVE",
"275 382 CURVE SMOOTH",
"312.39 382 OFFCURVE",
"345.56 370 OFFCURVE",
"374.5 346 CURVE SMOOTH",
"404.15 321.41 OFFCURVE",
"422.98 290.41 OFFCURVE",
"431 253 CURVE"
);
},
{
closed = 1;
nodes = (
"408 681 LINE",
"322 681 LINE",
"242 538 LINE",
"298 538 LINE"
);
}
);
width = 550;
}
);
note = eacute;
unicode = 00E9;
},
{
glyphname = egrave;
lastChange = "2017-05-14 03:42:20 +0000";
layers = (
{
layerId = "7DC84FEC-FE63-4092-95B6-3924847BFAB0";
paths = (
{
closed = 1;
nodes = (
"505 230 LINE SMOOTH",
"505 290.54 OFFCURVE",
"481.83 342.87 OFFCURVE",
"435.5 387 CURVE SMOOTH",
"390 430.33 OFFCURVE",
"336.5 452 OFFCURVE",
"275 452 CURVE SMOOTH",
"211.67 452 OFFCURVE",
"157.5 429.5 OFFCURVE",
"112.5 384.5 CURVE SMOOTH",
"67.5 339.5 OFFCURVE",
"45 285.33 OFFCURVE",
"45 222 CURVE SMOOTH",
"45 158.29 OFFCURVE",
"67.5 104.29 OFFCURVE",
"112.5 60 CURVE SMOOTH",
"133.5 39.33 OFFCURVE",
"157.83 23 OFFCURVE",
"185.5 11 CURVE SMOOTH",
"213.17 -1 OFFCURVE",
"246.5 -7 OFFCURVE",
"285.5 -7 CURVE SMOOTH",
"324.5 -7 OFFCURVE",
"362.83 5.17 OFFCURVE",
"400.5 29.5 CURVE SMOOTH",
"438.17 53.83 OFFCURVE",
"466.33 87 OFFCURVE",
"485 129 CURVE",
"405 129 LINE",
"389.67 108.33 OFFCURVE",
"370.5 92.17 OFFCURVE",
"347.5 80.5 CURVE SMOOTH",
"324.5 68.83 OFFCURVE",
"300.33 63 OFFCURVE",
"275 63 CURVE SMOOTH",
"237.47 63 OFFCURVE",
"203.47 75.33 OFFCURVE",
"173 100 CURVE SMOOTH",
"143.08 124.22 OFFCURVE",
"124.75 155.22 OFFCURVE",
"118 193 CURVE",
"505 193 LINE"
);
},
{
closed = 1;
nodes = (
"119 253 LINE",
"123 271.67 OFFCURVE",
"130 288.83 OFFCURVE",
"140 304.5 CURVE SMOOTH",
"172.98 356.17 OFFCURVE",
"217.98 382 OFFCURVE",
"275 382 CURVE SMOOTH",
"312.39 382 OFFCURVE",
"345.56 370 OFFCURVE",
"374.5 346 CURVE SMOOTH",
"404.15 321.41 OFFCURVE",
"422.98 290.41 OFFCURVE",
"431 253 CURVE"
);
},
{
closed = 1;
nodes = (
"314 517 LINE",
"224 660 LINE",
"148 660 LINE",
"258 517 LINE"
);
}
);
width = 550;
}
);
note = egrave;
unicode = 00E8;
},
{
glyphname = ecircumflex;
lastChange = "2017-05-14 03:42:20 +0000";
layers = (
{
layerId = "7DC84FEC-FE63-4092-95B6-3924847BFAB0";
paths = (
{
closed = 1;
nodes = (
"505 230 LINE SMOOTH",
"505 290.54 OFFCURVE",
"481.83 342.87 OFFCURVE",
"435.5 387 CURVE SMOOTH",
"390 430.33 OFFCURVE",
"336.5 452 OFFCURVE",
"275 452 CURVE SMOOTH",
"211.67 452 OFFCURVE",
"157.5 429.5 OFFCURVE",
"112.5 384.5 CURVE SMOOTH",
"67.5 339.5 OFFCURVE",
"45 285.33 OFFCURVE",
"45 222 CURVE SMOOTH",
"45 158.29 OFFCURVE",
"67.5 104.29 OFFCURVE",
"112.5 60 CURVE SMOOTH",
"133.5 39.33 OFFCURVE",
"157.83 23 OFFCURVE",
"185.5 11 CURVE SMOOTH",
"213.17 -1 OFFCURVE",
"246.5 -7 OFFCURVE",
"285.5 -7 CURVE SMOOTH",
"324.5 -7 OFFCURVE",
"362.83 5.17 OFFCURVE",
"400.5 29.5 CURVE SMOOTH",
"438.17 53.83 OFFCURVE",
"466.33 87 OFFCURVE",
"485 129 CURVE",
"405 129 LINE",
"389.67 108.33 OFFCURVE",
"370.5 92.17 OFFCURVE",
"347.5 80.5 CURVE SMOOTH",
"324.5 68.83 OFFCURVE",
"300.33 63 OFFCURVE",
"275 63 CURVE SMOOTH",
"237.47 63 OFFCURVE",
"203.47 75.33 OFFCURVE",
"173 100 CURVE SMOOTH",
"143.08 124.22 OFFCURVE",
"124.75 155.22 OFFCURVE",
"118 193 CURVE",
"505 193 LINE"
);
},
{
closed = 1;
nodes = (
"119 253 LINE",
"123 271.67 OFFCURVE",
"130 288.83 OFFCURVE",
"140 304.5 CURVE SMOOTH",
"172.98 356.17 OFFCURVE",
"217.98 382 OFFCURVE",
"275 382 CURVE SMOOTH",
"312.39 382 OFFCURVE",
"345.56 370 OFFCURVE",
"374.5 346 CURVE SMOOTH",
"404.15 321.41 OFFCURVE",
"422.98 290.41 OFFCURVE",
"431 253 CURVE"
);
},
{
closed = 1;
nodes = (
"275 623 LINE",
"347 517 LINE",
"418 517 LINE",
"308 660 LINE",
"242 660 LINE",
"132 517 LINE",
"203 517 LINE"
);
}
);
width = 550;
}
);
note = ecircumflex;
unicode = 00EA;
},
{
glyphname = edieresis;
lastChange = "2017-05-14 03:42:20 +0000";
layers = (
{
layerId = "7DC84FEC-FE63-4092-95B6-3924847BFAB0";
paths = (
{
closed = 1;
nodes = (
"505 230 LINE SMOOTH",
"505 290.54 OFFCURVE",
"481.83 342.87 OFFCURVE",
"435.5 387 CURVE SMOOTH",
"390 430.33 OFFCURVE",
"336.5 452 OFFCURVE",
"275 452 CURVE SMOOTH",
"211.67 452 OFFCURVE",
"157.5 429.5 OFFCURVE",
"112.5 384.5 CURVE SMOOTH",
"67.5 339.5 OFFCURVE",
"45 285.33 OFFCURVE",
"45 222 CURVE SMOOTH",
"45 158.29 OFFCURVE",
"67.5 104.29 OFFCURVE",
"112.5 60 CURVE SMOOTH",
"133.5 39.33 OFFCURVE",
"157.83 23 OFFCURVE",
"185.5 11 CURVE SMOOTH",
"213.17 -1 OFFCURVE",
"246.5 -7 OFFCURVE",
"285.5 -7 CURVE SMOOTH",
"324.5 -7 OFFCURVE",
"362.83 5.17 OFFCURVE",
"400.5 29.5 CURVE SMOOTH",
"438.17 53.83 OFFCURVE",
"466.33 87 OFFCURVE",
"485 129 CURVE",
"405 129 LINE",
"389.67 108.33 OFFCURVE",
"370.5 92.17 OFFCURVE",
"347.5 80.5 CURVE SMOOTH",
"324.5 68.83 OFFCURVE",
"300.33 63 OFFCURVE",
"275 63 CURVE SMOOTH",
"237.47 63 OFFCURVE",
"203.47 75.33 OFFCURVE",
"173 100 CURVE SMOOTH",
"143.08 124.22 OFFCURVE",
"124.75 155.22 OFFCURVE",
"118 193 CURVE",
"505 193 LINE"
);
},
{
closed = 1;
nodes = (
"119 253 LINE",
"123 271.67 OFFCURVE",
"130 288.83 OFFCURVE",
"140 304.5 CURVE SMOOTH",
"172.98 356.17 OFFCURVE",
"217.98 382 OFFCURVE",
"275 382 CURVE SMOOTH",
"312.39 382 OFFCURVE",
"345.56 370 OFFCURVE",
"374.5 346 CURVE SMOOTH",
"404.15 321.41 OFFCURVE",
"422.98 290.41 OFFCURVE",
"431 253 CURVE"
);
},
{
closed = 1;
nodes = (
"390.33 601.67 OFFCURVE",
"379.67 606 OFFCURVE",
"367 606 CURVE SMOOTH",
"354.33 606 OFFCURVE",
"343.83 601.67 OFFCURVE",
"335.5 593 CURVE SMOOTH",
"327.17 584.33 OFFCURVE",
"323 573.83 OFFCURVE",
"323 561.5 CURVE SMOOTH",
"323 549.17 OFFCURVE",
"327.17 538.67 OFFCURVE",
"335.5 530 CURVE SMOOTH",
"343.83 521.33 OFFCURVE",
"354.33 517 OFFCURVE",
"367 517 CURVE SMOOTH",
"379.67 517 OFFCURVE",
"390.33 521.33 OFFCURVE",
"399 530 CURVE SMOOTH",
"407.67 538.67 OFFCURVE",
"412 549.17 OFFCURVE",
"412 561.5 CURVE SMOOTH",
"412 573.83 OFFCURVE",
"407.67 584.33 OFFCURVE",
"399 593 CURVE SMOOTH"
);
},
{
closed = 1;
nodes = (
"208.33 601.67 OFFCURVE",
"197.67 606 OFFCURVE",
"185 606 CURVE SMOOTH",
"172.33 606 OFFCURVE",
"161.83 601.67 OFFCURVE",
"153.5 593 CURVE SMOOTH",
"145.17 584.33 OFFCURVE",
"141 573.83 OFFCURVE",
"141 561.5 CURVE SMOOTH",
"141 549.17 OFFCURVE",
"145.17 538.67 OFFCURVE",
"153.5 530 CURVE SMOOTH",
"161.83 521.33 OFFCURVE",
"172.33 517 OFFCURVE",
"185 517 CURVE SMOOTH",
"197.67 517 OFFCURVE",
"208.33 521.33 OFFCURVE",
"217 530 CURVE SMOOTH",
"225.67 538.67 OFFCURVE",
"230 549.17 OFFCURVE",
"230 561.5 CURVE SMOOTH",
"230 573.83 OFFCURVE",
"225.67 584.33 OFFCURVE",
"217 593 CURVE SMOOTH"
);
}
);
width = 550;
}
);
note = edieresis;
unicode = 00EB;
},
{
glyphname = iacute;
lastChange = "2017-05-14 03:42:20 +0000";
layers = (
{
layerId = "7DC84FEC-FE63-4092-95B6-3924847BFAB0";
paths = (
{
closed = 1;
nodes = (
"150 0 LINE",
"150 440 LINE",
"80 440 LINE",
"80 0 LINE"
);
},
{
closed = 1;
nodes = (
"265 681 LINE",
"179 681 LINE",
"99 538 LINE",
"155 538 LINE"
);
}
);
width = 229;
}
);
note = iacute;
unicode = 00ED;
},
{
glyphname = igrave;
lastChange = "2017-05-14 03:42:20 +0000";
layers = (
{
layerId = "7DC84FEC-FE63-4092-95B6-3924847BFAB0";
paths = (
{
closed = 1;
nodes = (
"150 0 LINE",
"150 440 LINE",
"80 440 LINE",
"80 0 LINE"
);
},
{
closed = 1;
nodes = (
"144 517 LINE",
"54 660 LINE",
"-22 660 LINE",
"88 517 LINE"
);
}
);
width = 229;
}
);
note = igrave;
unicode = 00EC;
},
{
glyphname = icircumflex;
lastChange = "2017-05-14 03:42:20 +0000";
layers = (
{
layerId = "7DC84FEC-FE63-4092-95B6-3924847BFAB0";
paths = (
{
closed = 1;
nodes = (
"150 0 LINE",
"150 440 LINE",
"80 440 LINE",
"80 0 LINE"
);
},
{
closed = 1;
nodes = (
"115 623 LINE",
"187 517 LINE",
"258 517 LINE",
"148 660 LINE",
"82 660 LINE",
"-28 517 LINE",
"43 517 LINE"
);
}
);
width = 229;
}
);
note = icircumflex;
unicode = 00EE;
},
{
glyphname = idieresis;
lastChange = "2017-05-14 03:42:20 +0000";
layers = (
{
layerId = "7DC84FEC-FE63-4092-95B6-3924847BFAB0";
paths = (
{
closed = 1;
nodes = (
"150 0 LINE",
"150 440 LINE",
"80 440 LINE",
"80 0 LINE"
);
},
{
closed = 1;
nodes = (
"230.33 601.67 OFFCURVE",
"219.67 606 OFFCURVE",
"207 606 CURVE SMOOTH",
"194.33 606 OFFCURVE",
"183.83 601.67 OFFCURVE",
"175.5 593 CURVE SMOOTH",
"167.17 584.33 OFFCURVE",
"163 573.83 OFFCURVE",
"163 561.5 CURVE SMOOTH",
"163 549.17 OFFCURVE",
"167.17 538.67 OFFCURVE",
"175.5 530 CURVE SMOOTH",
"183.83 521.33 OFFCURVE",
"194.33 517 OFFCURVE",
"207 517 CURVE SMOOTH",
"219.67 517 OFFCURVE",
"230.33 521.33 OFFCURVE",
"239 530 CURVE SMOOTH",
"247.67 538.67 OFFCURVE",
"252 549.17 OFFCURVE",
"252 561.5 CURVE SMOOTH",
"252 573.83 OFFCURVE",
"247.67 584.33 OFFCURVE",
"239 593 CURVE SMOOTH"
);
},
{
closed = 1;
nodes = (
"48.33 601.67 OFFCURVE",
"37.67 606 OFFCURVE",
"25 606 CURVE SMOOTH",
"12.33 606 OFFCURVE",
"1.83 601.67 OFFCURVE",
"-6.5 593 CURVE SMOOTH",
"-14.83 584.33 OFFCURVE",
"-19 573.83 OFFCURVE",
"-19 561.5 CURVE SMOOTH",
"-19 549.17 OFFCURVE",
"-14.83 538.67 OFFCURVE",
"-6.5 530 CURVE SMOOTH",
"1.83 521.33 OFFCURVE",
"12.33 517 OFFCURVE",
"25 517 CURVE SMOOTH",
"37.67 517 OFFCURVE",
"48.33 521.33 OFFCURVE",
"57 530 CURVE SMOOTH",
"65.67 538.67 OFFCURVE",
"70 549.17 OFFCURVE",
"70 561.5 CURVE SMOOTH",
"70 573.83 OFFCURVE",
"65.67 584.33 OFFCURVE",
"57 593 CURVE SMOOTH"
);
}
);
width = 229;
}
);
note = idieresis;
unicode = 00EF;
},
{
glyphname = ntilde;
lastChange = "2017-05-14 03:42:20 +0000";
layers = (
{
layerId = "7DC84FEC-FE63-4092-95B6-3924847BFAB0";
paths = (
{
closed = 1;
nodes = (
"379 0 LINE",
"449 0 LINE",
"449 275 LINE SMOOTH",
"449 326 OFFCURVE",
"435.67 367.17 OFFCURVE",
"409 398.5 CURVE SMOOTH",
"395.67 414.17 OFFCURVE",
"379.33 426.5 OFFCURVE",
"360 435.5 CURVE SMOOTH",
"340.67 444.5 OFFCURVE",
"315.33 449 OFFCURVE",
"284 449 CURVE SMOOTH",
"252.67 449 OFFCURVE",
"225 440.83 OFFCURVE",
"201 424.5 CURVE SMOOTH",
"178.31 409.06 OFFCURVE",
"159.65 389.02 OFFCURVE",
"145 364.38 CURVE",
"145 440.01 LINE",
"75 440.01 LINE",
"75 0.01 LINE",
"145 0.01 LINE",
"145 184.01 LINE SMOOTH",
"145 240.01 OFFCURVE",
"155.5 284.51 OFFCURVE",
"176.5 317.51 CURVE SMOOTH",
"188.17 335.84 OFFCURVE",
"203.33 350.68 OFFCURVE",
"222 362.01 CURVE SMOOTH",
"240.67 373.34 OFFCURVE",
"265 379.01 OFFCURVE",
"295 379.01 CURVE SMOOTH",
"325 379.01 OFFCURVE",
"346.5 368.84 OFFCURVE",
"359.5 348.51 CURVE SMOOTH",
"372.5 328.18 OFFCURVE",
"379 303.68 OFFCURVE",
"379 275.01 CURVE SMOOTH"
);
},
{
closed = 1;
nodes = (
"139 518.01 LINE",
"137.67 530.68 OFFCURVE",
"138.33 542.01 OFFCURVE",
"141 552.01 CURVE SMOOTH",
"146.38 575.34 OFFCURVE",
"160.05 587.01 OFFCURVE",
"182 587.01 CURVE SMOOTH",
"195.33 587.01 OFFCURVE",
"206 582.84 OFFCURVE",
"214 574.51 CURVE SMOOTH",
"222 566.18 OFFCURVE",
"230.17 556.84 OFFCURVE",
"238.5 546.51 CURVE SMOOTH",
"246.83 536.18 OFFCURVE",
"257 526.84 OFFCURVE",
"269 518.51 CURVE SMOOTH",
"281 510.18 OFFCURVE",
"299.83 506.01 OFFCURVE",
"325.5 506.01 CURVE SMOOTH",
"351.17 506.01 OFFCURVE",
"370.83 512.51 OFFCURVE",
"384.5 525.51 CURVE SMOOTH",
"411.77 551.45 OFFCURVE",
"422.93 586.61 OFFCURVE",
"418 631.01 CURVE",
"369 631.01 LINE",
"369 605.93 OFFCURVE",
"367.33 589.43 OFFCURVE",
"364 581.51 CURVE SMOOTH",
"361.33 575.18 OFFCURVE",
"357 570.34 OFFCURVE",
"351 567.01 CURVE SMOOTH",
"345 563.68 OFFCURVE",
"336 562.01 OFFCURVE",
"324 562.01 CURVE SMOOTH",
"312 562.01 OFFCURVE",
"302.17 566.18 OFFCURVE",
"294.5 574.51 CURVE SMOOTH",
"286.83 582.84 OFFCURVE",
"278.83 592.01 OFFCURVE",
"270.5 602.01 CURVE SMOOTH",
"262.17 612.01 OFFCURVE",
"252 621.18 OFFCURVE",
"240 629.51 CURVE SMOOTH",
"228 637.84 OFFCURVE",
"209.67 642.01 OFFCURVE",
"185 642.01 CURVE SMOOTH",
"160.33 642.01 OFFCURVE",
"141.17 635.51 OFFCURVE",
"127.5 622.51 CURVE SMOOTH",
"101.22 597.52 OFFCURVE",
"88.72 562.68 OFFCURVE",
"90 518.01 CURVE"
);
}
);
width = 509;
}
);
note = ntilde;
unicode = 00F1;
},
{
glyphname = oacute;
lastChange = "2017-05-14 03:42:20 +0000";
layers = (
{
layerId = "7DC84FEC-FE63-4092-95B6-3924847BFAB0";
paths = (
{
closed = 1;
nodes = (
"435 178.67 OFFCURVE",
"419.33 141.33 OFFCURVE",
"388 110 CURVE SMOOTH",
"356.67 78.67 OFFCURVE",
"319 63 OFFCURVE",
"275 63 CURVE SMOOTH",
"231 63 OFFCURVE",
"193.33 78.67 OFFCURVE",
"162 110 CURVE SMOOTH",
"130.67 141.33 OFFCURVE",
"115 178.67 OFFCURVE",
"115 222 CURVE SMOOTH",
"115 266 OFFCURVE",
"130.67 303.67 OFFCURVE",
"162 335 CURVE SMOOTH",
"193.33 366.33 OFFCURVE",
"231 382 OFFCURVE",
"275 382 CURVE SMOOTH",
"319 382 OFFCURVE",
"356.67 366.33 OFFCURVE",
"388 335 CURVE SMOOTH",
"419.33 303.67 OFFCURVE",
"435 266 OFFCURVE",
"435 222 CURVE SMOOTH"
);
},
{
closed = 1;
nodes = (
"505 285.33 OFFCURVE",
"482.5 339.5 OFFCURVE",
"437.5 384.5 CURVE SMOOTH",
"392.5 429.5 OFFCURVE",
"338.33 452 OFFCURVE",
"275 452 CURVE SMOOTH",
"211.67 452 OFFCURVE",
"157.5 429.5 OFFCURVE",
"112.5 384.5 CURVE SMOOTH",
"67.5 339.5 OFFCURVE",
"45 285.33 OFFCURVE",
"45 222 CURVE SMOOTH",
"45 158.29 OFFCURVE",
"67.5 104.29 OFFCURVE",
"112.5 60 CURVE SMOOTH",
"157.89 15.33 OFFCURVE",
"212.05 -7 OFFCURVE",
"275 -7 CURVE SMOOTH",
"337.95 -7 OFFCURVE",
"392.11 15.33 OFFCURVE",
"437.5 60 CURVE SMOOTH",
"482.5 104.29 OFFCURVE",
"505 158.29 OFFCURVE",
"505 222 CURVE SMOOTH"
);
},
{
closed = 1;
nodes = (
"418 681 LINE",
"332 681 LINE",
"252 538 LINE",
"308 538 LINE"
);
}
);
width = 550;
}
);
note = oacute;
unicode = 00F3;
},
{
glyphname = ograve;
lastChange = "2017-05-14 03:42:20 +0000";
layers = (
{
layerId = "7DC84FEC-FE63-4092-95B6-3924847BFAB0";
paths = (
{
closed = 1;
nodes = (
"435 178.67 OFFCURVE",
"419.33 141.33 OFFCURVE",
"388 110 CURVE SMOOTH",
"356.67 78.67 OFFCURVE",
"319 63 OFFCURVE",
"275 63 CURVE SMOOTH",
"231 63 OFFCURVE",
"193.33 78.67 OFFCURVE",
"162 110 CURVE SMOOTH",
"130.67 141.33 OFFCURVE",
"115 178.67 OFFCURVE",
"115 222 CURVE SMOOTH",
"115 266 OFFCURVE",
"130.67 303.67 OFFCURVE",
"162 335 CURVE SMOOTH",
"193.33 366.33 OFFCURVE",
"231 382 OFFCURVE",
"275 382 CURVE SMOOTH",
"319 382 OFFCURVE",
"356.67 366.33 OFFCURVE",
"388 335 CURVE SMOOTH",
"419.33 303.67 OFFCURVE",
"435 266 OFFCURVE",
"435 222 CURVE SMOOTH"
);
},
{
closed = 1;
nodes = (
"505 285.33 OFFCURVE",
"482.5 339.5 OFFCURVE",
"437.5 384.5 CURVE SMOOTH",
"392.5 429.5 OFFCURVE",
"338.33 452 OFFCURVE",
"275 452 CURVE SMOOTH",
"211.67 452 OFFCURVE",
"157.5 429.5 OFFCURVE",
"112.5 384.5 CURVE SMOOTH",
"67.5 339.5 OFFCURVE",
"45 285.33 OFFCURVE",
"45 222 CURVE SMOOTH",
"45 158.29 OFFCURVE",
"67.5 104.29 OFFCURVE",
"112.5 60 CURVE SMOOTH",
"157.89 15.33 OFFCURVE",
"212.05 -7 OFFCURVE",
"275 -7 CURVE SMOOTH",
"337.95 -7 OFFCURVE",
"392.11 15.33 OFFCURVE",
"437.5 60 CURVE SMOOTH",
"482.5 104.29 OFFCURVE",
"505 158.29 OFFCURVE",
"505 222 CURVE SMOOTH"
);
},
{
closed = 1;
nodes = (
"313 517 LINE",
"223 660 LINE",
"147 660 LINE",
"257 517 LINE"
);
}
);
width = 550;
}
);
note = ograve;
unicode = 00F2;
},
{
glyphname = ocircumflex;
lastChange = "2017-05-14 03:42:20 +0000";
layers = (
{
layerId = "7DC84FEC-FE63-4092-95B6-3924847BFAB0";
paths = (
{
closed = 1;
nodes = (
"435 178.67 OFFCURVE",
"419.33 141.33 OFFCURVE",
"388 110 CURVE SMOOTH",
"356.67 78.67 OFFCURVE",
"319 63 OFFCURVE",
"275 63 CURVE SMOOTH",
"231 63 OFFCURVE",
"193.33 78.67 OFFCURVE",
"162 110 CURVE SMOOTH",
"130.67 141.33 OFFCURVE",
"115 178.67 OFFCURVE",
"115 222 CURVE SMOOTH",
"115 266 OFFCURVE",
"130.67 303.67 OFFCURVE",
"162 335 CURVE SMOOTH",
"193.33 366.33 OFFCURVE",
"231 382 OFFCURVE",
"275 382 CURVE SMOOTH",
"319 382 OFFCURVE",
"356.67 366.33 OFFCURVE",
"388 335 CURVE SMOOTH",
"419.33 303.67 OFFCURVE",
"435 266 OFFCURVE",
"435 222 CURVE SMOOTH"
);
},
{
closed = 1;
nodes = (
"505 285.33 OFFCURVE",
"482.5 339.5 OFFCURVE",
"437.5 384.5 CURVE SMOOTH",
"392.5 429.5 OFFCURVE",
"338.33 452 OFFCURVE",
"275 452 CURVE SMOOTH",
"211.67 452 OFFCURVE",
"157.5 429.5 OFFCURVE",
"112.5 384.5 CURVE SMOOTH",
"67.5 339.5 OFFCURVE",
"45 285.33 OFFCURVE",
"45 222 CURVE SMOOTH",
"45 158.29 OFFCURVE",
"67.5 104.29 OFFCURVE",
"112.5 60 CURVE SMOOTH",
"157.89 15.33 OFFCURVE",
"212.05 -7 OFFCURVE",
"275 -7 CURVE SMOOTH",
"337.95 -7 OFFCURVE",
"392.11 15.33 OFFCURVE",
"437.5 60 CURVE SMOOTH",
"482.5 104.29 OFFCURVE",
"505 158.29 OFFCURVE",
"505 222 CURVE SMOOTH"
);
},
{
closed = 1;
nodes = (
"275 623 LINE",
"347 517 LINE",
"418 517 LINE",
"308 660 LINE",
"242 660 LINE",
"132 517 LINE",
"203 517 LINE"
);
}
);
width = 550;
}
);
note = ocircumflex;
unicode = 00F4;
},
{
glyphname = odieresis;
lastChange = "2017-05-14 03:42:20 +0000";
layers = (
{
layerId = "7DC84FEC-FE63-4092-95B6-3924847BFAB0";
paths = (
{
closed = 1;
nodes = (
"435 178.67 OFFCURVE",
"419.33 141.33 OFFCURVE",
"388 110 CURVE SMOOTH",
"356.67 78.67 OFFCURVE",
"319 63 OFFCURVE",
"275 63 CURVE SMOOTH",
"231 63 OFFCURVE",
"193.33 78.67 OFFCURVE",
"162 110 CURVE SMOOTH",
"130.67 141.33 OFFCURVE",
"115 178.67 OFFCURVE",
"115 222 CURVE SMOOTH",
"115 266 OFFCURVE",
"130.67 303.67 OFFCURVE",
"162 335 CURVE SMOOTH",
"193.33 366.33 OFFCURVE",
"231 382 OFFCURVE",
"275 382 CURVE SMOOTH",
"319 382 OFFCURVE",
"356.67 366.33 OFFCURVE",
"388 335 CURVE SMOOTH",
"419.33 303.67 OFFCURVE",
"435 266 OFFCURVE",
"435 222 CURVE SMOOTH"
);
},
{
closed = 1;
nodes = (
"505 285.33 OFFCURVE",
"482.5 339.5 OFFCURVE",
"437.5 384.5 CURVE SMOOTH",
"392.5 429.5 OFFCURVE",
"338.33 452 OFFCURVE",
"275 452 CURVE SMOOTH",
"211.67 452 OFFCURVE",
"157.5 429.5 OFFCURVE",
"112.5 384.5 CURVE SMOOTH",
"67.5 339.5 OFFCURVE",
"45 285.33 OFFCURVE",
"45 222 CURVE SMOOTH",
"45 158.29 OFFCURVE",
"67.5 104.29 OFFCURVE",
"112.5 60 CURVE SMOOTH",
"157.89 15.33 OFFCURVE",
"212.05 -7 OFFCURVE",
"275 -7 CURVE SMOOTH",
"337.95 -7 OFFCURVE",
"392.11 15.33 OFFCURVE",
"437.5 60 CURVE SMOOTH",
"482.5 104.29 OFFCURVE",
"505 158.29 OFFCURVE",
"505 222 CURVE SMOOTH"
);
},
{
closed = 1;
nodes = (
"390.33 601.67 OFFCURVE",
"379.67 606 OFFCURVE",
"367 606 CURVE SMOOTH",
"354.33 606 OFFCURVE",
"343.83 601.67 OFFCURVE",
"335.5 593 CURVE SMOOTH",
"327.17 584.33 OFFCURVE",
"323 573.83 OFFCURVE",
"323 561.5 CURVE SMOOTH",
"323 549.17 OFFCURVE",
"327.17 538.67 OFFCURVE",
"335.5 530 CURVE SMOOTH",
"343.83 521.33 OFFCURVE",
"354.33 517 OFFCURVE",
"367 517 CURVE SMOOTH",
"379.67 517 OFFCURVE",
"390.33 521.33 OFFCURVE",
"399 530 CURVE SMOOTH",
"407.67 538.67 OFFCURVE",
"412 549.17 OFFCURVE",
"412 561.5 CURVE SMOOTH",
"412 573.83 OFFCURVE",
"407.67 584.33 OFFCURVE",
"399 593 CURVE SMOOTH"
);
},
{
closed = 1;
nodes = (
"208.33 601.67 OFFCURVE",
"197.67 606 OFFCURVE",
"185 606 CURVE SMOOTH",
"172.33 606 OFFCURVE",
"161.83 601.67 OFFCURVE",
"153.5 593 CURVE SMOOTH",
"145.17 584.33 OFFCURVE",
"141 573.83 OFFCURVE",
"141 561.5 CURVE SMOOTH",
"141 549.17 OFFCURVE",
"145.17 538.67 OFFCURVE",
"153.5 530 CURVE SMOOTH",
"161.83 521.33 OFFCURVE",
"172.33 517 OFFCURVE",
"185 517 CURVE SMOOTH",
"197.67 517 OFFCURVE",
"208.33 521.33 OFFCURVE",
"217 530 CURVE SMOOTH",
"225.67 538.67 OFFCURVE",
"230 549.17 OFFCURVE",
"230 561.5 CURVE SMOOTH",
"230 573.83 OFFCURVE",
"225.67 584.33 OFFCURVE",
"217 593 CURVE SMOOTH"
);
}
);
width = 550;
}
);
note = odieresis;
unicode = 00F6;
},
{
glyphname = otilde;
lastChange = "2017-05-14 03:42:20 +0000";
layers = (
{
layerId = "7DC84FEC-FE63-4092-95B6-3924847BFAB0";
paths = (
{
closed = 1;
nodes = (
"435 178.67 OFFCURVE",
"419.33 141.33 OFFCURVE",
"388 110 CURVE SMOOTH",
"356.67 78.67 OFFCURVE",
"319 63 OFFCURVE",
"275 63 CURVE SMOOTH",
"231 63 OFFCURVE",
"193.33 78.67 OFFCURVE",
"162 110 CURVE SMOOTH",
"130.67 141.33 OFFCURVE",
"115 178.67 OFFCURVE",
"115 222 CURVE SMOOTH",
"115 266 OFFCURVE",
"130.67 303.67 OFFCURVE",
"162 335 CURVE SMOOTH",
"193.33 366.33 OFFCURVE",
"231 382 OFFCURVE",
"275 382 CURVE SMOOTH",
"319 382 OFFCURVE",
"356.67 366.33 OFFCURVE",
"388 335 CURVE SMOOTH",
"419.33 303.67 OFFCURVE",
"435 266 OFFCURVE",
"435 222 CURVE SMOOTH"
);
},
{
closed = 1;
nodes = (
"505 285.33 OFFCURVE",
"482.5 339.5 OFFCURVE",
"437.5 384.5 CURVE SMOOTH",
"392.5 429.5 OFFCURVE",
"338.33 452 OFFCURVE",
"275 452 CURVE SMOOTH",
"211.67 452 OFFCURVE",
"157.5 429.5 OFFCURVE",
"112.5 384.5 CURVE SMOOTH",
"67.5 339.5 OFFCURVE",
"45 285.33 OFFCURVE",
"45 222 CURVE SMOOTH",
"45 158.29 OFFCURVE",
"67.5 104.29 OFFCURVE",
"112.5 60 CURVE SMOOTH",
"157.89 15.33 OFFCURVE",
"212.05 -7 OFFCURVE",
"275 -7 CURVE SMOOTH",
"337.95 -7 OFFCURVE",
"392.11 15.33 OFFCURVE",
"437.5 60 CURVE SMOOTH",
"482.5 104.29 OFFCURVE",
"505 158.29 OFFCURVE",
"505 222 CURVE SMOOTH"
);
},
{
closed = 1;
nodes = (
"159 518 LINE",
"157.67 530.67 OFFCURVE",
"158.33 542 OFFCURVE",
"161 552 CURVE SMOOTH",
"166.38 575.33 OFFCURVE",
"180.05 587 OFFCURVE",
"202 587 CURVE SMOOTH",
"215.33 587 OFFCURVE",
"226 582.83 OFFCURVE",
"234 574.5 CURVE SMOOTH",
"242 566.17 OFFCURVE",
"250.17 556.83 OFFCURVE",
"258.5 546.5 CURVE SMOOTH",
"266.83 536.17 OFFCURVE",
"277 526.83 OFFCURVE",
"289 518.5 CURVE SMOOTH",
"301 510.17 OFFCURVE",
"319.83 506 OFFCURVE",
"345.5 506 CURVE SMOOTH",
"371.17 506 OFFCURVE",
"390.83 512.5 OFFCURVE",
"404.5 525.5 CURVE SMOOTH",
"431.77 551.44 OFFCURVE",
"442.93 586.6 OFFCURVE",
"438 631 CURVE",
"389 631 LINE",
"389 605.92 OFFCURVE",
"387.33 589.42 OFFCURVE",
"384 581.5 CURVE SMOOTH",
"381.33 575.17 OFFCURVE",
"377 570.33 OFFCURVE",
"371 567 CURVE SMOOTH",
"365 563.67 OFFCURVE",
"356 562 OFFCURVE",
"344 562 CURVE SMOOTH",
"332 562 OFFCURVE",
"322.17 566.17 OFFCURVE",
"314.5 574.5 CURVE SMOOTH",
"306.83 582.83 OFFCURVE",
"298.83 592 OFFCURVE",
"290.5 602 CURVE SMOOTH",
"282.17 612 OFFCURVE",
"272 621.17 OFFCURVE",
"260 629.5 CURVE SMOOTH",
"248 637.83 OFFCURVE",
"229.67 642 OFFCURVE",
"205 642 CURVE SMOOTH",
"180.33 642 OFFCURVE",
"161.17 635.5 OFFCURVE",
"147.5 622.5 CURVE SMOOTH",
"121.22 597.51 OFFCURVE",
"108.72 562.67 OFFCURVE",
"110 518 CURVE"
);
}
);
width = 550;
}
);
note = otilde;
unicode = 00F5;
},
{
glyphname = uacute;
lastChange = "2017-05-14 03:42:20 +0000";
layers = (
{
layerId = "7DC84FEC-FE63-4092-95B6-3924847BFAB0";
paths = (
{
closed = 1;
nodes = (
"379 0 LINE",
"449 0 LINE",
"449 440 LINE",
"379 440 LINE",
"379 256 LINE SMOOTH",
"379 194.8 OFFCURVE",
"367.64 147 OFFCURVE",
"344.92 112.6 CURVE SMOOTH",
"322.2 78.2 OFFCURVE",
"283.56 61 OFFCURVE",
"229 61 CURVE SMOOTH",
"199 61 OFFCURVE",
"177.5 71.17 OFFCURVE",
"164.5 91.5 CURVE SMOOTH",
"151.5 111.83 OFFCURVE",
"145 136.33 OFFCURVE",
"145 165 CURVE SMOOTH",
"145 440 LINE",
"75 440 LINE",
"75 165 LINE SMOOTH",
"75 114 OFFCURVE",
"88.83 72.25 OFFCURVE",
"116.49 39.75 CURVE SMOOTH",
"144.15 7.25 OFFCURVE",
"182.65 -9 OFFCURVE",
"232 -9 CURVE SMOOTH",
"297.02 -9 OFFCURVE",
"346.02 19.13 OFFCURVE",
"379 75.4 CURVE"
);
},
{
closed = 1;
nodes = (
"405 681 LINE",
"319 681 LINE",
"239 538 LINE",
"295 538 LINE"
);
}
);
width = 509;
}
);
note = uacute;
unicode = 00FA;
},
{
glyphname = ugrave;
lastChange = "2017-05-14 03:42:20 +0000";
layers = (
{
layerId = "7DC84FEC-FE63-4092-95B6-3924847BFAB0";
paths = (
{
closed = 1;
nodes = (
"379 0 LINE",
"449 0 LINE",
"449 440 LINE",
"379 440 LINE",
"379 256 LINE SMOOTH",
"379 194.8 OFFCURVE",
"367.64 147 OFFCURVE",
"344.92 112.6 CURVE SMOOTH",
"322.2 78.2 OFFCURVE",
"283.56 61 OFFCURVE",
"229 61 CURVE SMOOTH",
"199 61 OFFCURVE",
"177.5 71.17 OFFCURVE",
"164.5 91.5 CURVE SMOOTH",
"151.5 111.83 OFFCURVE",
"145 136.33 OFFCURVE",
"145 165 CURVE SMOOTH",
"145 440 LINE",
"75 440 LINE",
"75 165 LINE SMOOTH",
"75 114 OFFCURVE",
"88.83 72.25 OFFCURVE",
"116.49 39.75 CURVE SMOOTH",
"144.15 7.25 OFFCURVE",
"182.65 -9 OFFCURVE",
"232 -9 CURVE SMOOTH",
"297.02 -9 OFFCURVE",
"346.02 19.13 OFFCURVE",
"379 75.4 CURVE"
);
},
{
closed = 1;
nodes = (
"293 517 LINE",
"203 660 LINE",
"127 660 LINE",
"237 517 LINE"
);
}
);
width = 509;
}
);
note = ugrave;
unicode = 00F9;
},
{
glyphname = ucircumflex;
lastChange = "2017-05-14 03:42:20 +0000";
layers = (
{
layerId = "7DC84FEC-FE63-4092-95B6-3924847BFAB0";
paths = (
{
closed = 1;
nodes = (
"379 0 LINE",
"449 0 LINE",
"449 440 LINE",
"379 440 LINE",
"379 256 LINE SMOOTH",
"379 194.8 OFFCURVE",
"367.64 147 OFFCURVE",
"344.92 112.6 CURVE SMOOTH",
"322.2 78.2 OFFCURVE",
"283.56 61 OFFCURVE",
"229 61 CURVE SMOOTH",
"199 61 OFFCURVE",
"177.5 71.17 OFFCURVE",
"164.5 91.5 CURVE SMOOTH",
"151.5 111.83 OFFCURVE",
"145 136.33 OFFCURVE",
"145 165 CURVE SMOOTH",
"145 440 LINE",
"75 440 LINE",
"75 165 LINE SMOOTH",
"75 114 OFFCURVE",
"88.83 72.25 OFFCURVE",
"116.49 39.75 CURVE SMOOTH",
"144.15 7.25 OFFCURVE",
"182.65 -9 OFFCURVE",
"232 -9 CURVE SMOOTH",
"297.02 -9 OFFCURVE",
"346.02 19.13 OFFCURVE",
"379 75.4 CURVE"
);
},
{
closed = 1;
nodes = (
"255 623 LINE",
"327 517 LINE",
"398 517 LINE",
"288 660 LINE",
"222 660 LINE",
"112 517 LINE",
"183 517 LINE"
);
}
);
width = 509;
}
);
note = ucircumflex;
unicode = 00FB;
},
{
glyphname = udieresis;
lastChange = "2017-05-14 03:42:20 +0000";
layers = (
{
layerId = "7DC84FEC-FE63-4092-95B6-3924847BFAB0";
paths = (
{
closed = 1;
nodes = (
"379 0 LINE",
"449 0 LINE",
"449 440 LINE",
"379 440 LINE",
"379 256 LINE SMOOTH",
"379 194.8 OFFCURVE",
"367.64 147 OFFCURVE",
"344.92 112.6 CURVE SMOOTH",
"322.2 78.2 OFFCURVE",
"283.56 61 OFFCURVE",
"229 61 CURVE SMOOTH",
"199 61 OFFCURVE",
"177.5 71.17 OFFCURVE",
"164.5 91.5 CURVE SMOOTH",
"151.5 111.83 OFFCURVE",
"145 136.33 OFFCURVE",
"145 165 CURVE SMOOTH",
"145 440 LINE",
"75 440 LINE",
"75 165 LINE SMOOTH",
"75 114 OFFCURVE",
"88.83 72.25 OFFCURVE",
"116.49 39.75 CURVE SMOOTH",
"144.15 7.25 OFFCURVE",
"182.65 -9 OFFCURVE",
"232 -9 CURVE SMOOTH",
"297.02 -9 OFFCURVE",
"346.02 19.13 OFFCURVE",
"379 75.4 CURVE"
);
},
{
closed = 1;
nodes = (
"370.33 601.67 OFFCURVE",
"359.67 606 OFFCURVE",
"347 606 CURVE SMOOTH",
"334.33 606 OFFCURVE",
"323.83 601.67 OFFCURVE",
"315.5 593 CURVE SMOOTH",
"307.17 584.33 OFFCURVE",
"303 573.83 OFFCURVE",
"303 561.5 CURVE SMOOTH",
"303 549.17 OFFCURVE",
"307.17 538.67 OFFCURVE",
"315.5 530 CURVE SMOOTH",
"323.83 521.33 OFFCURVE",
"334.33 517 OFFCURVE",
"347 517 CURVE SMOOTH",
"359.67 517 OFFCURVE",
"370.33 521.33 OFFCURVE",
"379 530 CURVE SMOOTH",
"387.67 538.67 OFFCURVE",
"392 549.17 OFFCURVE",
"392 561.5 CURVE SMOOTH",
"392 573.83 OFFCURVE",
"387.67 584.33 OFFCURVE",
"379 593 CURVE SMOOTH"
);
},
{
closed = 1;
nodes = (
"188.33 601.67 OFFCURVE",
"177.67 606 OFFCURVE",
"165 606 CURVE SMOOTH",
"152.33 606 OFFCURVE",
"141.83 601.67 OFFCURVE",
"133.5 593 CURVE SMOOTH",
"125.17 584.33 OFFCURVE",
"121 573.83 OFFCURVE",
"121 561.5 CURVE SMOOTH",
"121 549.17 OFFCURVE",
"125.17 538.67 OFFCURVE",
"133.5 530 CURVE SMOOTH",
"141.83 521.33 OFFCURVE",
"152.33 517 OFFCURVE",
"165 517 CURVE SMOOTH",
"177.67 517 OFFCURVE",
"188.33 521.33 OFFCURVE",
"197 530 CURVE SMOOTH",
"205.67 538.67 OFFCURVE",
"210 549.17 OFFCURVE",
"210 561.5 CURVE SMOOTH",
"210 573.83 OFFCURVE",
"205.67 584.33 OFFCURVE",
"197 593 CURVE SMOOTH"
);
}
);
width = 509;
}
);
note = udieresis;
unicode = 00FC;
},
{
glyphname = degree;
lastChange = "2017-05-14 03:42:20 +0000";
layers = (
{
layerId = "7DC84FEC-FE63-4092-95B6-3924847BFAB0";
paths = (
{
closed = 1;
nodes = (
"325 504.55 OFFCURVE",
"318.67 483.05 OFFCURVE",
"306 467.5 CURVE SMOOTH",
"298.67 458.5 OFFCURVE",
"288.83 451.33 OFFCURVE",
"276.5 446 CURVE SMOOTH",
"264.17 440.67 OFFCURVE",
"248.5 438 OFFCURVE",
"229.5 438 CURVE SMOOTH",
"210.5 438 OFFCURVE",
"195 440.67 OFFCURVE",
"183 446 CURVE SMOOTH",
"171 451.33 OFFCURVE",
"160 460.14 OFFCURVE",
"150 472.41 CURVE SMOOTH",
"140 484.68 OFFCURVE",
"135 504.55 OFFCURVE",
"135 532 CURVE SMOOTH",
"135 557.97 OFFCURVE",
"141.67 579.14 OFFCURVE",
"155 595.5 CURVE SMOOTH",
"171.57 615.83 OFFCURVE",
"196.57 626 OFFCURVE",
"230 626 CURVE SMOOTH",
"248.67 626 OFFCURVE",
"264 623.17 OFFCURVE",
"276 617.5 CURVE SMOOTH",
"308.67 602.07 OFFCURVE",
"325 573.57 OFFCURVE",
"325 532 CURVE SMOOTH"
);
},
{
closed = 1;
nodes = (
"395 576.14 OFFCURVE",
"379 612.14 OFFCURVE",
"347 640.5 CURVE SMOOTH",
"315.79 668.17 OFFCURVE",
"276.79 682 OFFCURVE",
"230 682 CURVE SMOOTH",
"183.21 682 OFFCURVE",
"144.21 668.17 OFFCURVE",
"113 640.5 CURVE SMOOTH",
"81 612.14 OFFCURVE",
"65 576.3 OFFCURVE",
"65 533 CURVE SMOOTH",
"65 488.44 OFFCURVE",
"80.67 452.27 OFFCURVE",
"112 424.5 CURVE SMOOTH",
"142.46 397.5 OFFCURVE",
"181.79 384 OFFCURVE",
"230 384 CURVE SMOOTH",
"278.21 384 OFFCURVE",
"317.54 397.5 OFFCURVE",
"348 424.5 CURVE SMOOTH",
"362.67 437.5 OFFCURVE",
"374.17 453.17 OFFCURVE",
"382.5 471.5 CURVE SMOOTH",
"390.83 489.83 OFFCURVE",
"395 510.17 OFFCURVE",
"395 532.5 CURVE SMOOTH"
);
}
);
width = 460;
}
);
note = degree;
unicode = 00B0;
},
{
glyphname = bullet;
lastChange = "2017-05-14 03:42:20 +0000";
layers = (
{
layerId = "7DC84FEC-FE63-4092-95B6-3924847BFAB0";
paths = (
{
closed = 1;
nodes = (
"264 373.33 OFFCURVE",
"252.83 400.17 OFFCURVE",
"230.5 422.5 CURVE SMOOTH",
"208.17 444.83 OFFCURVE",
"181.33 456 OFFCURVE",
"150 456 CURVE SMOOTH",
"118.67 456 OFFCURVE",
"91.83 444.83 OFFCURVE",
"69.5 422.5 CURVE SMOOTH",
"47.17 400.17 OFFCURVE",
"36 373.33 OFFCURVE",
"36 342 CURVE SMOOTH",
"36 310.67 OFFCURVE",
"47.17 283.83 OFFCURVE",
"69.5 261.5 CURVE SMOOTH",
"91.83 239.17 OFFCURVE",
"118.67 228 OFFCURVE",
"150 228 CURVE SMOOTH",
"181.33 228 OFFCURVE",
"208.17 239.17 OFFCURVE",
"230.5 261.5 CURVE SMOOTH",
"252.83 283.83 OFFCURVE",
"264 310.67 OFFCURVE",
"264 342 CURVE SMOOTH"
);
}
);
width = 300;
}
);
note = bullet;
unicode = 2022;
},
{
glyphname = paragraph;
lastChange = "2017-05-14 03:42:20 +0000";
layers = (
{
layerId = "7DC84FEC-FE63-4092-95B6-3924847BFAB0";
paths = (
{
closed = 1;
nodes = (
"412 0 LINE",
"412 655 LINE",
"274 655 LINE SMOOTH",
"211.72 655 OFFCURVE",
"158.56 633.33 OFFCURVE",
"114.5 590 CURVE SMOOTH",
"70.17 546.39 OFFCURVE",
"48 493.73 OFFCURVE",
"48 432 CURVE SMOOTH",
"48 373.71 OFFCURVE",
"68.17 324.04 OFFCURVE",
"108.5 283 CURVE SMOOTH",
"148.52 242.28 OFFCURVE",
"199.68 217.28 OFFCURVE",
"262 208 CURVE",
"262 0 LINE",
"306 0 LINE",
"306 612 LINE",
"369 612 LINE",
"369 0 LINE"
);
}
);
width = 520;
}
);
note = paragraph;
unicode = 00B6;
},
{
glyphname = germandbls;
lastChange = "2017-05-14 03:42:20 +0000";
layers = (
{
layerId = "7DC84FEC-FE63-4092-95B6-3924847BFAB0";
paths = (
{
closed = 1;
nodes = (
"235 0 LINE",
"301 0 LINE SMOOTH",
"358.45 0 OFFCURVE",
"408.45 19.5 OFFCURVE",
"451 58.5 CURVE SMOOTH",
"495 98.83 OFFCURVE",
"517 147.67 OFFCURVE",
"517 205 CURVE SMOOTH",
"517 249.67 OFFCURVE",
"503.33 287.17 OFFCURVE",
"476 317.5 CURVE SMOOTH",
"448.67 347.83 OFFCURVE",
"415 370.67 OFFCURVE",
"375 386 CURVE",
"401 399.33 OFFCURVE",
"422.5 417.5 OFFCURVE",
"439.5 440.5 CURVE SMOOTH",
"456.5 463.5 OFFCURVE",
"465 490.33 OFFCURVE",
"465 521 CURVE SMOOTH",
"465 571.18 OFFCURVE",
"445.83 612.18 OFFCURVE",
"407.5 644 CURVE SMOOTH",
"370.56 674.67 OFFCURVE",
"327.06 690 OFFCURVE",
"277 690 CURVE SMOOTH",
"201.82 690 OFFCURVE",
"148.32 666.67 OFFCURVE",
"116.5 620 CURVE SMOOTH",
"89.5 580.4 OFFCURVE",
"76 520.73 OFFCURVE",
"76 441 CURVE SMOOTH",
"76 0 LINE",
"148 0 LINE",
"148 416 LINE SMOOTH",
"148 440.67 OFFCURVE",
"148.67 465 OFFCURVE",
"150 489 CURVE SMOOTH",
"151.33 513 OFFCURVE",
"156 534.5 OFFCURVE",
"164 553.5 CURVE SMOOTH",
"172 572.5 OFFCURVE",
"184.83 587.83 OFFCURVE",
"202.5 599.5 CURVE SMOOTH",
"220.17 611.17 OFFCURVE",
"244.9 617 OFFCURVE",
"276.7 617 CURVE SMOOTH",
"308.5 617 OFFCURVE",
"335.1 607.33 OFFCURVE",
"356.5 588 CURVE SMOOTH",
"379.5 567.23 OFFCURVE",
"391 541.89 OFFCURVE",
"391 512 CURVE SMOOTH",
"391 481.44 OFFCURVE",
"379.5 455.77 OFFCURVE",
"356.5 435 CURVE SMOOTH",
"335.1 415.67 OFFCURVE",
"308.6 406 OFFCURVE",
"277 406 CURVE SMOOTH",
"267 406 LINE",
"267 344 LINE",
"301 344 LINE SMOOTH",
"339.86 344 OFFCURVE",
"373.19 331.83 OFFCURVE",
"401 307.5 CURVE SMOOTH",
"429.67 282.42 OFFCURVE",
"444 250.58 OFFCURVE",
"444 212 CURVE SMOOTH",
"444 171.62 OFFCURVE",
"429.67 137.45 OFFCURVE",
"401 109.5 CURVE SMOOTH",
"371.94 81.17 OFFCURVE",
"338.61 67 OFFCURVE",
"301 67 CURVE SMOOTH",
"232 67 LINE"
);
}
);
width = 552;
}
);
note = germandbls;
unicode = 00DF;
},
{
glyphname = registered;
lastChange = "2017-05-14 03:42:20 +0000";
layers = (
{
layerId = "7DC84FEC-FE63-4092-95B6-3924847BFAB0";
paths = (
{
closed = 1;
nodes = (
"439 426.67 OFFCURVE",
"433 414.17 OFFCURVE",
"421 404.5 CURVE SMOOTH",
"409 394.83 OFFCURVE",
"395.33 390 OFFCURVE",
"380 390 CURVE SMOOTH",
"333 390 LINE",
"333 494 LINE",
"380 494 LINE SMOOTH",
"395.33 494 OFFCURVE",
"409 489.17 OFFCURVE",
"421 479.5 CURVE SMOOTH",
"433 469.83 OFFCURVE",
"439 457.33 OFFCURVE",
"439 442 CURVE SMOOTH"
);
},
{
closed = 1;
nodes = (
"500 218 LINE",
"420 358 LINE",
"445.33 374.67 OFFCURVE",
"462.5 389.5 OFFCURVE",
"471.5 402.5 CURVE SMOOTH",
"480.5 415.5 OFFCURVE",
"485 428.67 OFFCURVE",
"485 442 CURVE SMOOTH",
"485 466.51 OFFCURVE",
"474.83 487.17 OFFCURVE",
"454.5 504 CURVE SMOOTH",
"432.75 522 OFFCURVE",
"407.92 531 OFFCURVE",
"380 531 CURVE SMOOTH",
"287 531 LINE",
"287 218 LINE",
"333 218 LINE",
"333 354 LINE",
"378 354 LINE",
"441 218 LINE"
);
},
{
closed = 1;
nodes = (
"636 303.86 OFFCURVE",
"610.33 243.69 OFFCURVE",
"559 194.5 CURVE SMOOTH",
"507.87 145.5 OFFCURVE",
"445.87 121 OFFCURVE",
"373 121 CURVE SMOOTH",
"300.42 121 OFFCURVE",
"238.92 145.5 OFFCURVE",
"188.5 194.5 CURVE SMOOTH",
"136.83 244.71 OFFCURVE",
"111 304.88 OFFCURVE",
"111 375 CURVE SMOOTH",
"111 444.46 OFFCURVE",
"136.83 504.29 OFFCURVE",
"188.5 554.5 CURVE SMOOTH",
"238.92 603.5 OFFCURVE",
"300.42 628 OFFCURVE",
"373 628 CURVE SMOOTH",
"445.87 628 OFFCURVE",
"507.87 603.5 OFFCURVE",
"559 554.5 CURVE SMOOTH",
"610.33 505.31 OFFCURVE",
"636 445.47 OFFCURVE",
"636 375 CURVE SMOOTH"
);
},
{
closed = 1;
nodes = (
"699 418.33 OFFCURVE",
"690.33 459 OFFCURVE",
"673 497 CURVE SMOOTH",
"655.67 535 OFFCURVE",
"632.33 568.33 OFFCURVE",
"603 597 CURVE SMOOTH",
"573.67 625.67 OFFCURVE",
"539.17 648.17 OFFCURVE",
"499.5 664.5 CURVE SMOOTH",
"459.83 680.83 OFFCURVE",
"417.67 689 OFFCURVE",
"373 689 CURVE SMOOTH",
"283.47 689 OFFCURVE",
"206.97 658.33 OFFCURVE",
"143.5 597 CURVE SMOOTH",
"79.83 535.48 OFFCURVE",
"48 461.48 OFFCURVE",
"48 375 CURVE SMOOTH",
"48 331.67 OFFCURVE",
"56.5 290.83 OFFCURVE",
"73.5 252.5 CURVE SMOOTH",
"90.5 214.17 OFFCURVE",
"113.83 180.67 OFFCURVE",
"143.5 152 CURVE SMOOTH",
"206.97 90.67 OFFCURVE",
"283.47 60 OFFCURVE",
"373 60 CURVE SMOOTH",
"417.67 60 OFFCURVE",
"459.83 68.17 OFFCURVE",
"499.5 84.5 CURVE SMOOTH",
"539.17 100.83 OFFCURVE",
"573.67 123.33 OFFCURVE",
"603 152 CURVE SMOOTH",
"632.33 180.67 OFFCURVE",
"655.67 214.17 OFFCURVE",
"673 252.5 CURVE SMOOTH",
"690.33 290.83 OFFCURVE",
"699 331.67 OFFCURVE",
"699 375 CURVE SMOOTH"
);
}
);
width = 747;
}
);
note = registered;
unicode = 00AE;
},
{
glyphname = copyright;
lastChange = "2017-05-14 03:42:20 +0000";
layers = (
{
layerId = "7DC84FEC-FE63-4092-95B6-3924847BFAB0";
paths = (
{
closed = 1;
nodes = (
"469 303 LINE",
"446.19 275 OFFCURVE",
"415.98 261 OFFCURVE",
"378.39 261 CURVE SMOOTH",
"340.8 261 OFFCURVE",
"310.67 272.33 OFFCURVE",
"288 295 CURVE SMOOTH",
"264.67 318.33 OFFCURVE",
"253 345.33 OFFCURVE",
"253 376 CURVE SMOOTH",
"253 407.33 OFFCURVE",
"264.67 434.67 OFFCURVE",
"288 458 CURVE SMOOTH",
"310.67 480.67 OFFCURVE",
"338.33 492 OFFCURVE",
"371 492 CURVE SMOOTH",
"412.84 492 OFFCURVE",
"445.84 477.33 OFFCURVE",
"470 448 CURVE",
"530 448 LINE",
"517.16 473.69 OFFCURVE",
"499.99 494.52 OFFCURVE",
"478.5 510.5 CURVE SMOOTH",
"447.57 533.5 OFFCURVE",
"411.74 545 OFFCURVE",
"371 545 CURVE SMOOTH",
"323.78 545 OFFCURVE",
"282.78 528.33 OFFCURVE",
"248 495 CURVE SMOOTH",
"214 462.42 OFFCURVE",
"197 422.75 OFFCURVE",
"197 376 CURVE SMOOTH",
"197 329.92 OFFCURVE",
"214 290.58 OFFCURVE",
"248 258 CURVE SMOOTH",
"282.78 224.67 OFFCURVE",
"323.78 208 OFFCURVE",
"371 208 CURVE SMOOTH",
"440.14 208 OFFCURVE",
"492.81 239.67 OFFCURVE",
"529 303 CURVE"
);
},
{
closed = 1;
nodes = (
"636 303.86 OFFCURVE",
"610.33 243.69 OFFCURVE",
"559 194.5 CURVE SMOOTH",
"507.87 145.5 OFFCURVE",
"445.87 121 OFFCURVE",
"373 121 CURVE SMOOTH",
"300.42 121 OFFCURVE",
"238.92 145.5 OFFCURVE",
"188.5 194.5 CURVE SMOOTH",
"136.83 244.71 OFFCURVE",
"111 304.88 OFFCURVE",
"111 375 CURVE SMOOTH",
"111 444.46 OFFCURVE",
"136.83 504.29 OFFCURVE",
"188.5 554.5 CURVE SMOOTH",
"238.92 603.5 OFFCURVE",
"300.42 628 OFFCURVE",
"373 628 CURVE SMOOTH",
"445.87 628 OFFCURVE",
"507.87 603.5 OFFCURVE",
"559 554.5 CURVE SMOOTH",
"610.33 505.31 OFFCURVE",
"636 445.47 OFFCURVE",
"636 375 CURVE SMOOTH"
);
},
{
closed = 1;
nodes = (
"699 418.33 OFFCURVE",
"690.33 459 OFFCURVE",
"673 497 CURVE SMOOTH",
"655.67 535 OFFCURVE",
"632.33 568.33 OFFCURVE",
"603 597 CURVE SMOOTH",
"573.67 625.67 OFFCURVE",
"539.17 648.17 OFFCURVE",
"499.5 664.5 CURVE SMOOTH",
"459.83 680.83 OFFCURVE",
"417.67 689 OFFCURVE",
"373 689 CURVE SMOOTH",
"283.47 689 OFFCURVE",
"206.97 658.33 OFFCURVE",
"143.5 597 CURVE SMOOTH",
"113.83 568.33 OFFCURVE",
"90.33 535 OFFCURVE",
"73 497 CURVE SMOOTH",
"55.67 459 OFFCURVE",
"47 418.33 OFFCURVE",
"47 375 CURVE SMOOTH",
"47 331.67 OFFCURVE",
"55.67 290.83 OFFCURVE",
"73 252.5 CURVE SMOOTH",
"90.33 214.17 OFFCURVE",
"113.83 180.67 OFFCURVE",
"143.5 152 CURVE SMOOTH",
"206.97 90.67 OFFCURVE",
"283.47 60 OFFCURVE",
"373 60 CURVE SMOOTH",
"417.67 60 OFFCURVE",
"459.83 68.17 OFFCURVE",
"499.5 84.5 CURVE SMOOTH",
"539.17 100.83 OFFCURVE",
"573.67 123.33 OFFCURVE",
"603 152 CURVE SMOOTH",
"632.33 180.67 OFFCURVE",
"655.67 214.17 OFFCURVE",
"673 252.5 CURVE SMOOTH",
"690.33 290.83 OFFCURVE",
"699 331.67 OFFCURVE",
"699 375 CURVE SMOOTH"
);
}
);
width = 747;
}
);
note = copyright;
unicode = 00A9;
},
{
glyphname = trademark;
lastChange = "2017-05-14 03:42:20 +0000";
layers = (
{
layerId = "7DC84FEC-FE63-4092-95B6-3924847BFAB0";
paths = (
{
closed = 1;
nodes = (
"289 632 LINE",
"289 680 LINE",
"24 680 LINE",
"24 632 LINE",
"128 632 LINE",
"128 338 LINE",
"184 338 LINE",
"184 632 LINE"
);
},
{
closed = 1;
nodes = (
"755 338 LINE",
"688 680 LINE",
"612 680 LINE",
"526 401 LINE",
"440 680 LINE",
"364 680 LINE",
"297 338 LINE",
"361 338 LINE",
"411 625 LINE",
"496 338 LINE",
"556 338 LINE",
"640 625 LINE",
"691 338 LINE"
);
}
);
width = 779;
}
);
note = trademark;
unicode = 2122;
},
{
glyphname = acute;
lastChange = "2017-05-14 03:42:20 +0000";
layers = (
{
layerId = "7DC84FEC-FE63-4092-95B6-3924847BFAB0";
paths = (
{
closed = 1;
nodes = (
"176 893 LINE",
"100 893 LINE",
"20 750 LINE",
"76 750 LINE"
);
}
);
width = 186;
}
);
note = acute;
unicode = 00B4;
},
{
glyphname = dieresis;
lastChange = "2017-05-14 03:42:20 +0000";
layers = (
{
layerId = "7DC84FEC-FE63-4092-95B6-3924847BFAB0";
paths = (
{
closed = 1;
nodes = (
"404.33 834.67 OFFCURVE",
"393.67 839 OFFCURVE",
"381 839 CURVE SMOOTH",
"368.33 839 OFFCURVE",
"357.83 834.67 OFFCURVE",
"349.5 826 CURVE SMOOTH",
"341.17 817.33 OFFCURVE",
"337 806.83 OFFCURVE",
"337 794.5 CURVE SMOOTH",
"337 782.17 OFFCURVE",
"341.17 771.67 OFFCURVE",
"349.5 763 CURVE SMOOTH",
"357.83 754.33 OFFCURVE",
"368.33 750 OFFCURVE",
"381 750 CURVE SMOOTH",
"393.67 750 OFFCURVE",
"404.33 754.33 OFFCURVE",
"413 763 CURVE SMOOTH",
"421.67 771.67 OFFCURVE",
"426 782.17 OFFCURVE",
"426 794.5 CURVE SMOOTH",
"426 806.83 OFFCURVE",
"421.67 817.33 OFFCURVE",
"413 826 CURVE SMOOTH"
);
},
{
closed = 1;
nodes = (
"222.33 834.67 OFFCURVE",
"211.67 839 OFFCURVE",
"199 839 CURVE SMOOTH",
"186.33 839 OFFCURVE",
"175.83 834.67 OFFCURVE",
"167.5 826 CURVE SMOOTH",
"159.17 817.33 OFFCURVE",
"155 806.83 OFFCURVE",
"155 794.5 CURVE SMOOTH",
"155 782.17 OFFCURVE",
"159.17 771.67 OFFCURVE",
"167.5 763 CURVE SMOOTH",
"175.83 754.33 OFFCURVE",
"186.33 750 OFFCURVE",
"199 750 CURVE SMOOTH",
"211.67 750 OFFCURVE",
"222.33 754.33 OFFCURVE",
"231 763 CURVE SMOOTH",
"239.67 771.67 OFFCURVE",
"244 782.17 OFFCURVE",
"244 794.5 CURVE SMOOTH",
"244 806.83 OFFCURVE",
"239.67 817.33 OFFCURVE",
"231 826 CURVE SMOOTH"
);
}
);
width = 564;
}
);
note = dieresis;
unicode = 00A8;
},
{
glyphname = AE;
lastChange = "2017-05-14 03:42:20 +0000";
layers = (
{
layerId = "7DC84FEC-FE63-4092-95B6-3924847BFAB0";
paths = (
{
closed = 1;
nodes = (
"338 582 LINE",
"338 237 LINE",
"195 237 LINE",
"332 541 LINE"
);
},
{
closed = 1;
nodes = (
"338 0 LINE",
"743 0 LINE",
"743 72 LINE",
"410 70 LINE",
"410 302 LINE",
"733 304 LINE",
"733 376 LINE",
"410 374 LINE",
"410 606 LINE",
"743 608 LINE",
"743 680 LINE",
"334 680 LINE",
"15 0 LINE",
"93 0 LINE",
"169 175 LINE",
"338 175 LINE"
);
}
);
width = 818;
}
);
note = AE;
unicode = 00C6;
},
{
glyphname = Oslash;
lastChange = "2017-05-14 03:42:20 +0000";
layers = (
{
layerId = "7DC84FEC-FE63-4092-95B6-3924847BFAB0";
paths = (
{
closed = 1;
nodes = (
"744 390 OFFCURVE",
"734.83 435.33 OFFCURVE",
"716.5 478 CURVE SMOOTH",
"702.2 511.28 OFFCURVE",
"683.84 541.12 OFFCURVE",
"661.43 567.5 CURVE",
"704 610 LINE",
"665 649 LINE",
"622.44 606.51 LINE",
"595.2 629.73 OFFCURVE",
"564.39 648.72 OFFCURVE",
"530 663.5 CURVE SMOOTH",
"487.33 681.83 OFFCURVE",
"442 691 OFFCURVE",
"394 691 CURVE SMOOTH",
"346 691 OFFCURVE",
"300.83 681.83 OFFCURVE",
"258.5 663.5 CURVE SMOOTH",
"216.17 645.17 OFFCURVE",
"179.17 620.33 OFFCURVE",
"147.5 589 CURVE SMOOTH",
"115.83 557.67 OFFCURVE",
"90.83 520.67 OFFCURVE",
"72.5 478 CURVE SMOOTH",
"54.17 435.33 OFFCURVE",
"45 390 OFFCURVE",
"45 342 CURVE SMOOTH",
"45 294 OFFCURVE",
"54.17 248.67 OFFCURVE",
"72.5 206 CURVE SMOOTH",
"87.16 171.88 OFFCURVE",
"106.08 141.28 OFFCURVE",
"129.27 114.19 CURVE",
"85 70 LINE",
"124 31 LINE",
"168.35 75.27 LINE",
"195.09 52.54 OFFCURVE",
"225.14 33.95 OFFCURVE",
"258.5 19.5 CURVE SMOOTH",
"300.83 1.17 OFFCURVE",
"346 -8 OFFCURVE",
"394 -8 CURVE SMOOTH",
"442 -8 OFFCURVE",
"487.33 1.17 OFFCURVE",
"530 19.5 CURVE SMOOTH",
"572.67 37.83 OFFCURVE",
"609.83 62.83 OFFCURVE",
"641.5 94.5 CURVE SMOOTH",
"673.17 126.17 OFFCURVE",
"698.17 163.33 OFFCURVE",
"716.5 206 CURVE SMOOTH",
"734.83 248.67 OFFCURVE",
"744 294 OFFCURVE",
"744 342 CURVE SMOOTH"
);
},
{
closed = 1;
nodes = (
"611.5 517.65 LINE",
"653.17 467.48 OFFCURVE",
"674.01 408.93 OFFCURVE",
"674.01 342 CURVE SMOOTH",
"674.01 264.67 OFFCURVE",
"646.68 198.67 OFFCURVE",
"592.01 144 CURVE SMOOTH",
"537.34 89.33 OFFCURVE",
"471.34 62 OFFCURVE",
"394.01 62 CURVE SMOOTH",
"326.91 62 OFFCURVE",
"268.23 82.94 OFFCURVE",
"217.99 124.81 CURVE"
);
},
{
closed = 1;
nodes = (
"178.89 163.71 LINE",
"136.3 214.31 OFFCURVE",
"115.01 273.74 OFFCURVE",
"115.01 341.99 CURVE SMOOTH",
"115.01 418.66 OFFCURVE",
"142.34 484.32 OFFCURVE",
"197.01 538.99 CURVE SMOOTH",
"251.68 593.66 OFFCURVE",
"317.34 620.99 OFFCURVE",
"394.01 620.99 CURVE SMOOTH",
"462.43 620.99 OFFCURVE",
"521.98 599.59 OFFCURVE",
"572.66 556.8 CURVE"
);
}
);
width = 789;
}
);
note = Oslash;
unicode = 00D8;
},
{
glyphname = ae;
lastChange = "2017-05-14 03:42:20 +0000";
layers = (
{
layerId = "7DC84FEC-FE63-4092-95B6-3924847BFAB0";
paths = (
{
closed = 1;
nodes = (
"363 99.67 OFFCURVE",
"334.83 84.5 OFFCURVE",
"302.5 73.5 CURVE SMOOTH",
"270.17 62.5 OFFCURVE",
"239.33 57 OFFCURVE",
"210 57 CURVE SMOOTH",
"180.67 57 OFFCURVE",
"157.5 63.17 OFFCURVE",
"140.5 75.5 CURVE SMOOTH",
"123.5 87.83 OFFCURVE",
"115 109.65 OFFCURVE",
"115 140.96 CURVE SMOOTH",
"115 172.26 OFFCURVE",
"131.67 196.61 OFFCURVE",
"165 214 CURVE",
"362 214 LINE",
"362 213 LINE",
"364.9 176.71 OFFCURVE",
"373.24 145.38 OFFCURVE",
"387 119 CURVE"
);
},
{
closed = 1;
nodes = (
"436 258 LINE",
"444.67 294.67 OFFCURVE",
"463.5 324.5 OFFCURVE",
"492.5 347.5 CURVE SMOOTH",
"521.5 370.5 OFFCURVE",
"554.83 382 OFFCURVE",
"592.5 382 CURVE SMOOTH",
"630.17 382 OFFCURVE",
"663.33 370.5 OFFCURVE",
"692 347.5 CURVE SMOOTH",
"720.67 324.5 OFFCURVE",
"739.33 294.67 OFFCURVE",
"748 258 CURVE"
);
},
{
closed = 1;
nodes = (
"461.69 20 OFFCURVE",
"523.36 -7 OFFCURVE",
"601 -7 CURVE SMOOTH",
"641 -7 OFFCURVE",
"679.83 5.17 OFFCURVE",
"717.5 29.5 CURVE SMOOTH",
"755.17 53.83 OFFCURVE",
"783.33 87 OFFCURVE",
"802 129 CURVE",
"722 129 LINE",
"706.67 108.33 OFFCURVE",
"687.5 92.17 OFFCURVE",
"664.5 80.5 CURVE SMOOTH",
"641.5 68.83 OFFCURVE",
"617.33 63 OFFCURVE",
"592 63 CURVE SMOOTH",
"554.47 63 OFFCURVE",
"520.47 75.33 OFFCURVE",
"490 100 CURVE SMOOTH",
"460.08 124.22 OFFCURVE",
"441.75 155.22 OFFCURVE",
"435 193 CURVE",
"822 193 LINE",
"822 230 LINE SMOOTH",
"822 290.54 OFFCURVE",
"798.83 342.87 OFFCURVE",
"752.5 387 CURVE SMOOTH",
"731.5 407 OFFCURVE",
"707 422.83 OFFCURVE",
"679 434.5 CURVE SMOOTH",
"651 446.17 OFFCURVE",
"620.83 452 OFFCURVE",
"588.5 452 CURVE SMOOTH",
"556.17 452 OFFCURVE",
"524.5 444.67 OFFCURVE",
"493.5 430 CURVE SMOOTH",
"462.5 415.33 OFFCURVE",
"436 394.67 OFFCURVE",
"414 368 CURVE",
"398 398 OFFCURVE",
"374.5 419.17 OFFCURVE",
"343.5 431.5 CURVE SMOOTH",
"312.5 443.83 OFFCURVE",
"279.5 450 OFFCURVE",
"244.5 450 CURVE SMOOTH",
"209.5 450 OFFCURVE",
"175.67 442 OFFCURVE",
"143 426 CURVE SMOOTH",
"110.33 410 OFFCURVE",
"86.33 383.67 OFFCURVE",
"71 347 CURVE",
"135 320 LINE",
"144.33 342.67 OFFCURVE",
"159.83 359.67 OFFCURVE",
"181.5 371 CURVE SMOOTH",
"203.17 382.33 OFFCURVE",
"223.5 388 OFFCURVE",
"242.5 388 CURVE SMOOTH",
"261.5 388 OFFCURVE",
"277.67 386.17 OFFCURVE",
"291 382.5 CURVE SMOOTH",
"338.33 369.48 OFFCURVE",
"362 340.32 OFFCURVE",
"362 295 CURVE SMOOTH",
"362 270 LINE",
"140 270 LINE",
"111.33 258 OFFCURVE",
"88.33 240 OFFCURVE",
"71 216 CURVE SMOOTH",
"53.67 192 OFFCURVE",
"45 164 OFFCURVE",
"45 132 CURVE SMOOTH",
"45 88.21 OFFCURVE",
"58.83 53.54 OFFCURVE",
"86.5 28 CURVE SMOOTH",
"99.5 16 OFFCURVE",
"115.17 6.67 OFFCURVE",
"133.5 0 CURVE SMOOTH",
"151.83 -6.67 OFFCURVE",
"170.83 -10 OFFCURVE",
"190.5 -10 CURVE SMOOTH",
"210.17 -10 OFFCURVE",
"230.33 -7.83 OFFCURVE",
"251 -3.5 CURVE SMOOTH",
"319.57 10.88 OFFCURVE",
"374.57 36.71 OFFCURVE",
"416 74 CURVE"
);
}
);
width = 867;
}
);
note = ae;
unicode = 00E6;
},
{
glyphname = oslash;
lastChange = "2017-05-14 03:42:20 +0000";
layers = (
{
layerId = "7DC84FEC-FE63-4092-95B6-3924847BFAB0";
paths = (
{
closed = 1;
nodes = (
"505 275.71 OFFCURVE",
"488.82 322.82 OFFCURVE",
"456.46 363.34 CURVE",
"506 413 LINE",
"467 452 LINE",
"417.58 402.47 LINE",
"376.78 435.49 OFFCURVE",
"329.25 452 OFFCURVE",
"275 452 CURVE SMOOTH",
"211.67 452 OFFCURVE",
"157.5 429.5 OFFCURVE",
"112.5 384.5 CURVE SMOOTH",
"67.5 339.5 OFFCURVE",
"45 285.33 OFFCURVE",
"45 222 CURVE SMOOTH",
"45 167.17 OFFCURVE",
"61.66 119.54 OFFCURVE",
"94.98 79.1 CURVE",
"43 27 LINE",
"82 -12 LINE",
"134.51 40.63 LINE",
"175.1 8.88 OFFCURVE",
"221.93 -7 OFFCURVE",
"275 -7 CURVE SMOOTH",
"337.95 -7 OFFCURVE",
"392.11 15.33 OFFCURVE",
"437.5 60 CURVE SMOOTH",
"482.5 104.29 OFFCURVE",
"505 158.29 OFFCURVE",
"505 222 CURVE SMOOTH"
);
},
{
closed = 1;
nodes = (
"406.5 313.27 LINE",
"425.5 286.69 OFFCURVE",
"435 256.27 OFFCURVE",
"435 222 CURVE SMOOTH",
"435 178.67 OFFCURVE",
"419.33 141.33 OFFCURVE",
"388 110 CURVE SMOOTH",
"356.67 78.67 OFFCURVE",
"319 63 OFFCURVE",
"275 63 CURVE SMOOTH",
"241.12 63 OFFCURVE",
"210.99 72.29 OFFCURVE",
"184.62 90.87 CURVE"
);
},
{
closed = 1;
nodes = (
"145.16 129.41 LINE",
"125.05 156.42 OFFCURVE",
"115 187.29 OFFCURVE",
"115 222 CURVE SMOOTH",
"115 266 OFFCURVE",
"130.67 303.67 OFFCURVE",
"162 335 CURVE SMOOTH",
"193.33 366.33 OFFCURVE",
"231 382 OFFCURVE",
"275 382 CURVE SMOOTH",
"309.88 382 OFFCURVE",
"340.78 372.16 OFFCURVE",
"367.7 352.47 CURVE"
);
}
);
width = 550;
}
);
note = oslash;
unicode = 00F8;
},
{
glyphname = ellipsis;
lastChange = "2017-05-14 03:42:20 +0000";
layers = (
{
layerId = "7DC84FEC-FE63-4092-95B6-3924847BFAB0";
paths = (
{
closed = 1;
nodes = (
"148.33 -10 OFFCURVE",
"162 -4.5 OFFCURVE",
"174 6.5 CURVE SMOOTH",
"186 17.5 OFFCURVE",
"192 30.83 OFFCURVE",
"192 46.5 CURVE SMOOTH",
"192 62.17 OFFCURVE",
"186.17 75.5 OFFCURVE",
"174.5 86.5 CURVE SMOOTH",
"162.83 97.5 OFFCURVE",
"149 103 OFFCURVE",
"133 103 CURVE SMOOTH",
"117 103 OFFCURVE",
"103.33 97.33 OFFCURVE",
"92 86 CURVE SMOOTH",
"80.67 74.67 OFFCURVE",
"75 61.33 OFFCURVE",
"75 46 CURVE SMOOTH",
"75 30.67 OFFCURVE",
"80.83 17.5 OFFCURVE",
"92.5 6.5 CURVE SMOOTH",
"104.17 -4.5 OFFCURVE",
"117.67 -10 OFFCURVE",
"133 -10 CURVE SMOOTH"
);
},
{
closed = 1;
nodes = (
"348.33 -10 OFFCURVE",
"362 -4.5 OFFCURVE",
"374 6.5 CURVE SMOOTH",
"386 17.5 OFFCURVE",
"392 30.83 OFFCURVE",
"392 46.5 CURVE SMOOTH",
"392 62.17 OFFCURVE",
"386.17 75.5 OFFCURVE",
"374.5 86.5 CURVE SMOOTH",
"362.83 97.5 OFFCURVE",
"349 103 OFFCURVE",
"333 103 CURVE SMOOTH",
"317 103 OFFCURVE",
"303.33 97.33 OFFCURVE",
"292 86 CURVE SMOOTH",
"280.67 74.67 OFFCURVE",
"275 61.33 OFFCURVE",
"275 46 CURVE SMOOTH",
"275 30.67 OFFCURVE",
"280.83 17.5 OFFCURVE",
"292.5 6.5 CURVE SMOOTH",
"304.17 -4.5 OFFCURVE",
"317.67 -10 OFFCURVE",
"333 -10 CURVE SMOOTH"
);
},
{
closed = 1;
nodes = (
"548.33 -10 OFFCURVE",
"562 -4.5 OFFCURVE",
"574 6.5 CURVE SMOOTH",
"586 17.5 OFFCURVE",
"592 30.83 OFFCURVE",
"592 46.5 CURVE SMOOTH",
"592 62.17 OFFCURVE",
"586.17 75.5 OFFCURVE",
"574.5 86.5 CURVE SMOOTH",
"562.83 97.5 OFFCURVE",
"549 103 OFFCURVE",
"533 103 CURVE SMOOTH",
"517 103 OFFCURVE",
"503.33 97.33 OFFCURVE",
"492 86 CURVE SMOOTH",
"480.67 74.67 OFFCURVE",
"475 61.33 OFFCURVE",
"475 46 CURVE SMOOTH",
"475 30.67 OFFCURVE",
"480.83 17.5 OFFCURVE",
"492.5 6.5 CURVE SMOOTH",
"504.17 -4.5 OFFCURVE",
"517.67 -10 OFFCURVE",
"533 -10 CURVE SMOOTH"
);
}
);
width = 667;
}
);
note = ellipsis;
unicode = 2026;
},
{
glyphname = Agrave;
lastChange = "2017-05-14 03:42:20 +0000";
layers = (
{
layerId = "7DC84FEC-FE63-4092-95B6-3924847BFAB0";
paths = (
{
closed = 1;
nodes = (
"185.02 250 LINE",
"309 563 LINE",
"432.42 250 LINE"
);
},
{
closed = 1;
nodes = (
"607 0 LINE",
"309 727 LINE",
"10 0 LINE",
"86 0 LINE",
"159.28 185 LINE",
"458.05 185 LINE",
"531 0 LINE"
);
},
{
closed = 1;
nodes = (
"346 750 LINE",
"256 893 LINE",
"180 893 LINE",
"290 750 LINE"
);
}
);
width = 617;
}
);
note = Agrave;
unicode = 00C0;
},
{
glyphname = Atilde;
lastChange = "2017-05-14 03:42:20 +0000";
layers = (
{
layerId = "7DC84FEC-FE63-4092-95B6-3924847BFAB0";
paths = (
{
closed = 1;
nodes = (
"185.02 250 LINE",
"309 563 LINE",
"432.42 250 LINE"
);
},
{
closed = 1;
nodes = (
"607 0 LINE",
"309 727 LINE",
"10 0 LINE",
"86 0 LINE",
"159.28 185 LINE",
"458.05 185 LINE",
"531 0 LINE"
);
},
{
closed = 1;
nodes = (
"193 750 LINE",
"191.67 762.67 OFFCURVE",
"192.33 774 OFFCURVE",
"195 784 CURVE SMOOTH",
"200.38 807.33 OFFCURVE",
"214.05 819 OFFCURVE",
"236 819 CURVE SMOOTH",
"249.33 819 OFFCURVE",
"260 814.83 OFFCURVE",
"268 806.5 CURVE SMOOTH",
"276 798.17 OFFCURVE",
"284.17 788.83 OFFCURVE",
"292.5 778.5 CURVE SMOOTH",
"300.83 768.17 OFFCURVE",
"311 758.83 OFFCURVE",
"323 750.5 CURVE SMOOTH",
"335 742.17 OFFCURVE",
"353.83 738 OFFCURVE",
"379.5 738 CURVE SMOOTH",
"405.17 738 OFFCURVE",
"424.83 744.5 OFFCURVE",
"438.5 757.5 CURVE SMOOTH",
"465.77 783.44 OFFCURVE",
"476.93 818.6 OFFCURVE",
"472 863 CURVE",
"423 863 LINE",
"423 837.92 OFFCURVE",
"421.33 821.42 OFFCURVE",
"418 813.5 CURVE SMOOTH",
"415.33 807.17 OFFCURVE",
"411 802.33 OFFCURVE",
"405 799 CURVE SMOOTH",
"399 795.67 OFFCURVE",
"390 794 OFFCURVE",
"378 794 CURVE SMOOTH",
"366 794 OFFCURVE",
"356.17 798.17 OFFCURVE",
"348.5 806.5 CURVE SMOOTH",
"340.83 814.83 OFFCURVE",
"332.83 824 OFFCURVE",
"324.5 834 CURVE SMOOTH",
"316.17 844 OFFCURVE",
"306 853.17 OFFCURVE",
"294 861.5 CURVE SMOOTH",
"282 869.83 OFFCURVE",
"263.67 874 OFFCURVE",
"239 874 CURVE SMOOTH",
"214.33 874 OFFCURVE",
"195.17 867.5 OFFCURVE",
"181.5 854.5 CURVE SMOOTH",
"155.22 829.51 OFFCURVE",
"142.72 794.67 OFFCURVE",
"144 750 CURVE"
);
}
);
width = 617;
}
);
note = Atilde;
unicode = 00C3;
},
{
glyphname = Otilde;
lastChange = "2017-05-14 03:42:20 +0000";
layers = (
{
layerId = "7DC84FEC-FE63-4092-95B6-3924847BFAB0";
paths = (
{
closed = 1;
nodes = (
"674 264.67 OFFCURVE",
"646.67 198.67 OFFCURVE",
"592 144 CURVE SMOOTH",
"537.33 89.33 OFFCURVE",
"471.33 62 OFFCURVE",
"394 62 CURVE SMOOTH",
"317.33 62 OFFCURVE",
"251.67 89.33 OFFCURVE",
"197 144 CURVE SMOOTH",
"142.33 198.67 OFFCURVE",
"115 264.67 OFFCURVE",
"115 342 CURVE SMOOTH",
"115 418.67 OFFCURVE",
"142.33 484.33 OFFCURVE",
"197 539 CURVE SMOOTH",
"251.67 593.67 OFFCURVE",
"317.33 621 OFFCURVE",
"394 621 CURVE SMOOTH",
"471.33 621 OFFCURVE",
"537.33 593.67 OFFCURVE",
"592 539 CURVE SMOOTH",
"646.67 484.33 OFFCURVE",
"674 418.67 OFFCURVE",
"674 342 CURVE SMOOTH"
);
},
{
closed = 1;
nodes = (
"744 390 OFFCURVE",
"734.83 435.33 OFFCURVE",
"716.5 478 CURVE SMOOTH",
"698.17 520.67 OFFCURVE",
"673.17 557.67 OFFCURVE",
"641.5 589 CURVE SMOOTH",
"609.83 620.33 OFFCURVE",
"572.67 645.17 OFFCURVE",
"530 663.5 CURVE SMOOTH",
"487.33 681.83 OFFCURVE",
"442 691 OFFCURVE",
"394 691 CURVE SMOOTH",
"346 691 OFFCURVE",
"300.83 681.83 OFFCURVE",
"258.5 663.5 CURVE SMOOTH",
"216.17 645.17 OFFCURVE",
"179.17 620.33 OFFCURVE",
"147.5 589 CURVE SMOOTH",
"115.83 557.67 OFFCURVE",
"90.83 520.67 OFFCURVE",
"72.5 478 CURVE SMOOTH",
"54.17 435.33 OFFCURVE",
"45 390 OFFCURVE",
"45 342 CURVE SMOOTH",
"45 294 OFFCURVE",
"54.17 248.67 OFFCURVE",
"72.5 206 CURVE SMOOTH",
"90.83 163.33 OFFCURVE",
"115.83 126.17 OFFCURVE",
"147.5 94.5 CURVE SMOOTH",
"179.17 62.83 OFFCURVE",
"216.17 37.83 OFFCURVE",
"258.5 19.5 CURVE SMOOTH",
"300.83 1.17 OFFCURVE",
"346 -8 OFFCURVE",
"394 -8 CURVE SMOOTH",
"442 -8 OFFCURVE",
"487.33 1.17 OFFCURVE",
"530 19.5 CURVE SMOOTH",
"572.67 37.83 OFFCURVE",
"609.83 62.83 OFFCURVE",
"641.5 94.5 CURVE SMOOTH",
"673.17 126.17 OFFCURVE",
"698.17 163.33 OFFCURVE",
"716.5 206 CURVE SMOOTH",
"734.83 248.67 OFFCURVE",
"744 294 OFFCURVE",
"744 342 CURVE SMOOTH"
);
},
{
closed = 1;
nodes = (
"279 750 LINE",
"277.67 762.67 OFFCURVE",
"278.33 774 OFFCURVE",
"281 784 CURVE SMOOTH",
"286.38 807.33 OFFCURVE",
"300.05 819 OFFCURVE",
"322 819 CURVE SMOOTH",
"335.33 819 OFFCURVE",
"346 814.83 OFFCURVE",
"354 806.5 CURVE SMOOTH",
"362 798.17 OFFCURVE",
"370.17 788.83 OFFCURVE",
"378.5 778.5 CURVE SMOOTH",
"386.83 768.17 OFFCURVE",
"397 758.83 OFFCURVE",
"409 750.5 CURVE SMOOTH",
"421 742.17 OFFCURVE",
"439.83 738 OFFCURVE",
"465.5 738 CURVE SMOOTH",
"491.17 738 OFFCURVE",
"510.83 744.5 OFFCURVE",
"524.5 757.5 CURVE SMOOTH",
"551.77 783.44 OFFCURVE",
"562.93 818.6 OFFCURVE",
"558 863 CURVE",
"509 863 LINE",
"509 837.92 OFFCURVE",
"507.33 821.42 OFFCURVE",
"504 813.5 CURVE SMOOTH",
"501.33 807.17 OFFCURVE",
"497 802.33 OFFCURVE",
"491 799 CURVE SMOOTH",
"485 795.67 OFFCURVE",
"476 794 OFFCURVE",
"464 794 CURVE SMOOTH",
"452 794 OFFCURVE",
"442.17 798.17 OFFCURVE",
"434.5 806.5 CURVE SMOOTH",
"426.83 814.83 OFFCURVE",
"418.83 824 OFFCURVE",
"410.5 834 CURVE SMOOTH",
"402.17 844 OFFCURVE",
"392 853.17 OFFCURVE",
"380 861.5 CURVE SMOOTH",
"368 869.83 OFFCURVE",
"349.67 874 OFFCURVE",
"325 874 CURVE SMOOTH",
"300.33 874 OFFCURVE",
"281.17 867.5 OFFCURVE",
"267.5 854.5 CURVE SMOOTH",
"241.22 829.51 OFFCURVE",
"228.72 794.67 OFFCURVE",
"230 750 CURVE"
);
}
);
width = 789;
}
);
note = Otilde;
unicode = 00D5;
},
{
glyphname = OE;
lastChange = "2017-05-14 03:42:20 +0000";
layers = (
{
layerId = "7DC84FEC-FE63-4092-95B6-3924847BFAB0";
paths = (
{
closed = 1;
nodes = (
"143 417.54 OFFCURVE",
"170.33 482.21 OFFCURVE",
"225 534 CURVE SMOOTH",
"278.48 584.67 OFFCURVE",
"344.48 610 OFFCURVE",
"423 610 CURVE SMOOTH",
"533 610 LINE",
"533 70 LINE",
"423 70 LINE SMOOTH",
"344.48 70 OFFCURVE",
"278.48 95.33 OFFCURVE",
"225 146 CURVE SMOOTH",
"170.33 197.79 OFFCURVE",
"143 262.46 OFFCURVE",
"143 340 CURVE SMOOTH"
);
},
{
closed = 1;
nodes = (
"75 290.67 OFFCURVE",
"84.17 245.17 OFFCURVE",
"102.5 203.5 CURVE SMOOTH",
"120.83 161.83 OFFCURVE",
"145.67 126 OFFCURVE",
"177 96 CURVE SMOOTH",
"208.33 66 OFFCURVE",
"245.33 42.5 OFFCURVE",
"288 25.5 CURVE SMOOTH",
"330.67 8.5 OFFCURVE",
"376.33 0 OFFCURVE",
"425 0 CURVE SMOOTH",
"603 0 LINE",
"603 0.38 LINE",
"937 0.38 LINE",
"937 65.38 LINE",
"603 65.38 LINE",
"603 307.38 LINE",
"927 307.38 LINE",
"927 373.38 LINE",
"603 373.38 LINE",
"603 615.38 LINE",
"937 615.38 LINE",
"937 680.38 LINE",
"425 680 LINE SMOOTH",
"376.33 680 OFFCURVE",
"330.67 671.5 OFFCURVE",
"288 654.5 CURVE SMOOTH",
"245.33 637.5 OFFCURVE",
"208.33 614 OFFCURVE",
"177 584 CURVE SMOOTH",
"145.67 554 OFFCURVE",
"120.83 518.17 OFFCURVE",
"102.5 476.5 CURVE SMOOTH",
"84.17 434.83 OFFCURVE",
"75 389.33 OFFCURVE",
"75 340 CURVE SMOOTH"
);
}
);
width = 998;
}
);
note = OE;
unicode = 0152;
},
{
glyphname = oe;
lastChange = "2017-05-14 03:42:20 +0000";
layers = (
{
layerId = "7DC84FEC-FE63-4092-95B6-3924847BFAB0";
paths = (
{
closed = 1;
nodes = (
"435 178.67 OFFCURVE",
"419.33 141.33 OFFCURVE",
"388 110 CURVE SMOOTH",
"356.67 78.67 OFFCURVE",
"319 63 OFFCURVE",
"275 63 CURVE SMOOTH",
"231 63 OFFCURVE",
"193.33 78.67 OFFCURVE",
"162 110 CURVE SMOOTH",
"130.67 141.33 OFFCURVE",
"115 178.67 OFFCURVE",
"115 222 CURVE SMOOTH",
"115 266 OFFCURVE",
"130.67 303.67 OFFCURVE",
"162 335 CURVE SMOOTH",
"193.33 366.33 OFFCURVE",
"231 382 OFFCURVE",
"275 382 CURVE SMOOTH",
"319 382 OFFCURVE",
"356.67 366.33 OFFCURVE",
"388 335 CURVE SMOOTH",
"419.33 303.67 OFFCURVE",
"435 266 OFFCURVE",
"435 222 CURVE SMOOTH"
);
},
{
closed = 1;
nodes = (
"509 258 LINE",
"517.17 294.75 OFFCURVE",
"535.83 324.58 OFFCURVE",
"565 347.5 CURVE SMOOTH",
"594.27 370.5 OFFCURVE",
"627.61 382 OFFCURVE",
"665 382 CURVE SMOOTH",
"703 382 OFFCURVE",
"736.17 370.5 OFFCURVE",
"764.5 347.5 CURVE SMOOTH",
"792.83 324.5 OFFCURVE",
"811.67 294.67 OFFCURVE",
"821 258 CURVE"
);
},
{
closed = 1;
nodes = (
"491.33 66 OFFCURVE",
"519.17 39.67 OFFCURVE",
"553.5 21 CURVE SMOOTH",
"587.83 2.33 OFFCURVE",
"626.33 -7 OFFCURVE",
"669 -7 CURVE SMOOTH",
"711.67 -7 OFFCURVE",
"752 5.17 OFFCURVE",
"790 29.5 CURVE SMOOTH",
"828 53.83 OFFCURVE",
"856.33 87 OFFCURVE",
"875 129 CURVE",
"795 129 LINE",
"779.67 108.33 OFFCURVE",
"760.5 92.17 OFFCURVE",
"737.5 80.5 CURVE SMOOTH",
"714.5 68.83 OFFCURVE",
"690.33 63 OFFCURVE",
"665 63 CURVE SMOOTH",
"626.8 63 OFFCURVE",
"592.47 75.33 OFFCURVE",
"562 100 CURVE SMOOTH",
"532.08 124.22 OFFCURVE",
"513.75 155.22 OFFCURVE",
"507 193 CURVE",
"894 193 LINE",
"894 230 LINE SMOOTH",
"894 291.17 OFFCURVE",
"871.17 343.51 OFFCURVE",
"825.5 387 CURVE SMOOTH",
"804.5 407 OFFCURVE",
"780 422.83 OFFCURVE",
"752 434.5 CURVE SMOOTH",
"724 446.17 OFFCURVE",
"692.5 452 OFFCURVE",
"657.5 452 CURVE SMOOTH",
"622.5 452 OFFCURVE",
"587.83 442.67 OFFCURVE",
"553.5 424 CURVE SMOOTH",
"519.17 405.33 OFFCURVE",
"491.33 379 OFFCURVE",
"470 345 CURVE",
"448.67 378.33 OFFCURVE",
"420.83 404.5 OFFCURVE",
"386.5 423.5 CURVE SMOOTH",
"352.17 442.5 OFFCURVE",
"315 452 OFFCURVE",
"275 452 CURVE SMOOTH",
"211.67 452 OFFCURVE",
"157.5 429.5 OFFCURVE",
"112.5 384.5 CURVE SMOOTH",
"67.5 339.5 OFFCURVE",
"45 285.33 OFFCURVE",
"45 222 CURVE SMOOTH",
"45 158.29 OFFCURVE",
"67.5 104.29 OFFCURVE",
"112.5 60 CURVE SMOOTH",
"133.5 39.33 OFFCURVE",
"157.83 23 OFFCURVE",
"185.5 11 CURVE SMOOTH",
"213.17 -1 OFFCURVE",
"245 -7 OFFCURVE",
"281 -7 CURVE SMOOTH",
"317 -7 OFFCURVE",
"352.17 2.5 OFFCURVE",
"386.5 21.5 CURVE SMOOTH",
"420.83 40.5 OFFCURVE",
"448.67 66.67 OFFCURVE",
"470 100 CURVE"
);
}
);
width = 939;
}
);
note = oe;
unicode = 0153;
},
{
glyphname = endash;
lastChange = "2017-05-14 03:42:20 +0000";
layers = (
{
layerId = "7DC84FEC-FE63-4092-95B6-3924847BFAB0";
paths = (
{
closed = 1;
nodes = (
"368 180 LINE",
"368 238 LINE",
"23 238 LINE",
"23 180 LINE"
);
}
);
width = 390;
}
);
note = endash;
unicode = 2013;
},
{
glyphname = emdash;
lastChange = "2017-05-14 03:42:20 +0000";
layers = (
{
layerId = "7DC84FEC-FE63-4092-95B6-3924847BFAB0";
paths = (
{
closed = 1;
nodes = (
"667 180 LINE",
"667 238 LINE",
"23 238 LINE",
"23 180 LINE"
);
}
);
width = 689;
}
);
note = emdash;
unicode = 2014;
},
{
glyphname = quotedblleft;
lastChange = "2017-05-14 03:42:20 +0000";
layers = (
{
layerId = "7DC84FEC-FE63-4092-95B6-3924847BFAB0";
paths = (
{
closed = 1;
nodes = (
"182 491 LINE",
"278 491 LINE",
"336 750 LINE",
"294 750 LINE"
);
},
{
closed = 1;
nodes = (
"25 491 LINE",
"121 491 LINE",
"179 750 LINE",
"137 750 LINE"
);
}
);
width = 361;
}
);
note = quotedblleft;
unicode = 201C;
},
{
glyphname = quotedblright;
lastChange = "2017-05-14 03:42:20 +0000";
layers = (
{
layerId = "7DC84FEC-FE63-4092-95B6-3924847BFAB0";
paths = (
{
closed = 1;
nodes = (
"179 750 LINE",
"83 750 LINE",
"25 491 LINE",
"67 491 LINE"
);
},
{
closed = 1;
nodes = (
"336 750 LINE",
"240 750 LINE",
"182 491 LINE",
"224 491 LINE"
);
}
);
width = 361;
}
);
note = quotedblright;
unicode = 201D;
},
{
glyphname = quoteleft;
lastChange = "2017-05-14 03:42:20 +0000";
layers = (
{
layerId = "7DC84FEC-FE63-4092-95B6-3924847BFAB0";
paths = (
{
closed = 1;
nodes = (
"25 491 LINE",
"121 491 LINE",
"179 750 LINE",
"137 750 LINE"
);
}
);
width = 204;
}
);
note = quoteleft;
unicode = 2018;
},
{
glyphname = quoteright;
lastChange = "2017-05-14 03:42:20 +0000";
layers = (
{
layerId = "7DC84FEC-FE63-4092-95B6-3924847BFAB0";
paths = (
{
closed = 1;
nodes = (
"179 750 LINE",
"83 750 LINE",
"25 491 LINE",
"67 491 LINE"
);
}
);
width = 204;
}
);
note = quoteright;
unicode = 2019;
},
{
glyphname = divide;
lastChange = "2017-05-14 03:42:20 +0000";
layers = (
{
layerId = "7DC84FEC-FE63-4092-95B6-3924847BFAB0";
paths = (
{
closed = 1;
nodes = (
"268 72.33 OFFCURVE",
"262.5 85.5 OFFCURVE",
"251.5 96.5 CURVE SMOOTH",
"240.5 107.5 OFFCURVE",
"227.33 113 OFFCURVE",
"212 113 CURVE SMOOTH",
"196.67 113 OFFCURVE",
"183.67 107.5 OFFCURVE",
"173 96.5 CURVE SMOOTH",
"162.33 85.5 OFFCURVE",
"157 72.33 OFFCURVE",
"157 57 CURVE SMOOTH",
"157 41.67 OFFCURVE",
"162.33 28.67 OFFCURVE",
"173 18 CURVE SMOOTH",
"183.67 7.33 OFFCURVE",
"196.67 2 OFFCURVE",
"212 2 CURVE SMOOTH",
"227.33 2 OFFCURVE",
"240.5 7.33 OFFCURVE",
"251.5 18 CURVE SMOOTH",
"262.5 28.67 OFFCURVE",
"268 41.67 OFFCURVE",
"268 57 CURVE SMOOTH"
);
},
{
closed = 1;
nodes = (
"373 194 LINE",
"373 251 LINE",
"38 251 LINE",
"38 194 LINE"
);
},
{
closed = 1;
nodes = (
"268 396.33 OFFCURVE",
"262.5 409.5 OFFCURVE",
"251.5 420.5 CURVE SMOOTH",
"240.5 431.5 OFFCURVE",
"227.33 437 OFFCURVE",
"212 437 CURVE SMOOTH",
"196.67 437 OFFCURVE",
"183.67 431.5 OFFCURVE",
"173 420.5 CURVE SMOOTH",
"162.33 409.5 OFFCURVE",
"157 396.33 OFFCURVE",
"157 381 CURVE SMOOTH",
"157 365.67 OFFCURVE",
"162.33 352.67 OFFCURVE",
"173 342 CURVE SMOOTH",
"183.67 331.33 OFFCURVE",
"196.67 326 OFFCURVE",
"212 326 CURVE SMOOTH",
"227.33 326 OFFCURVE",
"240.5 331.33 OFFCURVE",
"251.5 342 CURVE SMOOTH",
"262.5 352.67 OFFCURVE",
"268 365.67 OFFCURVE",
"268 381 CURVE SMOOTH"
);
}
);
width = 410;
}
);
note = divide;
unicode = 00F7;
},
{
glyphname = ydieresis;
lastChange = "2017-05-14 03:42:20 +0000";
layers = (
{
layerId = "7DC84FEC-FE63-4092-95B6-3924847BFAB0";
paths = (
{
closed = 1;
nodes = (
"131 -250 LINE",
"435 440 LINE",
"357 440 LINE",
"231 145 LINE",
"90 440 LINE",
"10 440 LINE",
"194 72 LINE",
"46 -250 LINE"
);
},
{
closed = 1;
nodes = (
"328.33 601.67 OFFCURVE",
"317.67 606 OFFCURVE",
"305 606 CURVE SMOOTH",
"292.33 606 OFFCURVE",
"281.83 601.67 OFFCURVE",
"273.5 593 CURVE SMOOTH",
"265.17 584.33 OFFCURVE",
"261 573.83 OFFCURVE",
"261 561.5 CURVE SMOOTH",
"261 549.17 OFFCURVE",
"265.17 538.67 OFFCURVE",
"273.5 530 CURVE SMOOTH",
"281.83 521.33 OFFCURVE",
"292.33 517 OFFCURVE",
"305 517 CURVE SMOOTH",
"317.67 517 OFFCURVE",
"328.33 521.33 OFFCURVE",
"337 530 CURVE SMOOTH",
"345.67 538.67 OFFCURVE",
"350 549.17 OFFCURVE",
"350 561.5 CURVE SMOOTH",
"350 573.83 OFFCURVE",
"345.67 584.33 OFFCURVE",
"337 593 CURVE SMOOTH"
);
},
{
closed = 1;
nodes = (
"146.33 601.67 OFFCURVE",
"135.67 606 OFFCURVE",
"123 606 CURVE SMOOTH",
"110.33 606 OFFCURVE",
"99.83 601.67 OFFCURVE",
"91.5 593 CURVE SMOOTH",
"83.17 584.33 OFFCURVE",
"79 573.83 OFFCURVE",
"79 561.5 CURVE SMOOTH",
"79 549.17 OFFCURVE",
"83.17 538.67 OFFCURVE",
"91.5 530 CURVE SMOOTH",
"99.83 521.33 OFFCURVE",
"110.33 517 OFFCURVE",
"123 517 CURVE SMOOTH",
"135.67 517 OFFCURVE",
"146.33 521.33 OFFCURVE",
"155 530 CURVE SMOOTH",
"163.67 538.67 OFFCURVE",
"168 549.17 OFFCURVE",
"168 561.5 CURVE SMOOTH",
"168 573.83 OFFCURVE",
"163.67 584.33 OFFCURVE",
"155 593 CURVE SMOOTH"
);
}
);
width = 425;
}
);
note = ydieresis;
unicode = 00FF;
},
{
glyphname = fraction;
lastChange = "2017-05-14 03:42:20 +0000";
layers = (
{
layerId = "7DC84FEC-FE63-4092-95B6-3924847BFAB0";
paths = (
{
closed = 1;
nodes = (
"399 679 LINE",
"331 679 LINE",
"45 0 LINE",
"112 0 LINE"
);
}
);
width = 444;
}
);
note = fraction;
unicode = 2044;
},
{
glyphname = Acircumflex;
lastChange = "2017-05-14 03:42:20 +0000";
layers = (
{
layerId = "7DC84FEC-FE63-4092-95B6-3924847BFAB0";
paths = (
{
closed = 1;
nodes = (
"185.02 250 LINE",
"309 563 LINE",
"432.42 250 LINE"
);
},
{
closed = 1;
nodes = (
"607 0 LINE",
"309 727 LINE",
"10 0 LINE",
"86 0 LINE",
"159.28 185 LINE",
"458.05 185 LINE",
"531 0 LINE"
);
},
{
closed = 1;
nodes = (
"308 856 LINE",
"380 750 LINE",
"451 750 LINE",
"341 893 LINE",
"275 893 LINE",
"165 750 LINE",
"236 750 LINE"
);
}
);
width = 617;
}
);
note = Acircumflex;
unicode = 00C2;
},
{
glyphname = Ecircumflex;
lastChange = "2017-05-14 03:42:20 +0000";
layers = (
{
layerId = "7DC84FEC-FE63-4092-95B6-3924847BFAB0";
paths = (
{
closed = 1;
nodes = (
"479 0 LINE",
"479 65 LINE",
"145 65 LINE",
"145 307 LINE",
"469 307 LINE",
"469 373 LINE",
"145 373 LINE",
"145 615 LINE",
"479 615 LINE",
"479 680 LINE",
"75 680 LINE",
"75 0 LINE"
);
},
{
closed = 1;
nodes = (
"277 856 LINE",
"349 750 LINE",
"420 750 LINE",
"310 893 LINE",
"244 893 LINE",
"134 750 LINE",
"205 750 LINE"
);
}
);
width = 554;
}
);
note = Ecircumflex;
unicode = 00CA;
},
{
glyphname = Aacute;
lastChange = "2017-05-14 03:42:20 +0000";
layers = (
{
layerId = "7DC84FEC-FE63-4092-95B6-3924847BFAB0";
paths = (
{
closed = 1;
nodes = (
"185.02 250 LINE",
"309 563 LINE",
"432.42 250 LINE"
);
},
{
closed = 1;
nodes = (
"607 0 LINE",
"309 727 LINE",
"10 0 LINE",
"86 0 LINE",
"159.28 185 LINE",
"458.05 185 LINE",
"531 0 LINE"
);
},
{
closed = 1;
nodes = (
"444 893 LINE",
"358 893 LINE",
"278 750 LINE",
"334 750 LINE"
);
}
);
width = 617;
}
);
note = Aacute;
unicode = 00C1;
},
{
glyphname = Edieresis;
lastChange = "2017-05-14 03:42:20 +0000";
layers = (
{
layerId = "7DC84FEC-FE63-4092-95B6-3924847BFAB0";
paths = (
{
closed = 1;
nodes = (
"479 0 LINE",
"479 65 LINE",
"145 65 LINE",
"145 307 LINE",
"469 307 LINE",
"469 373 LINE",
"145 373 LINE",
"145 615 LINE",
"479 615 LINE",
"479 680 LINE",
"75 680 LINE",
"75 0 LINE"
);
},
{
closed = 1;
nodes = (
"392.33 834.67 OFFCURVE",
"381.67 839 OFFCURVE",
"369 839 CURVE SMOOTH",
"356.33 839 OFFCURVE",
"345.83 834.67 OFFCURVE",
"337.5 826 CURVE SMOOTH",
"329.17 817.33 OFFCURVE",
"325 806.83 OFFCURVE",
"325 794.5 CURVE SMOOTH",
"325 782.17 OFFCURVE",
"329.17 771.67 OFFCURVE",
"337.5 763 CURVE SMOOTH",
"345.83 754.33 OFFCURVE",
"356.33 750 OFFCURVE",
"369 750 CURVE SMOOTH",
"381.67 750 OFFCURVE",
"392.33 754.33 OFFCURVE",
"401 763 CURVE SMOOTH",
"409.67 771.67 OFFCURVE",
"414 782.17 OFFCURVE",
"414 794.5 CURVE SMOOTH",
"414 806.83 OFFCURVE",
"409.67 817.33 OFFCURVE",
"401 826 CURVE SMOOTH"
);
},
{
closed = 1;
nodes = (
"210.33 834.67 OFFCURVE",
"199.67 839 OFFCURVE",
"187 839 CURVE SMOOTH",
"174.33 839 OFFCURVE",
"163.83 834.67 OFFCURVE",
"155.5 826 CURVE SMOOTH",
"147.17 817.33 OFFCURVE",
"143 806.83 OFFCURVE",
"143 794.5 CURVE SMOOTH",
"143 782.17 OFFCURVE",
"147.17 771.67 OFFCURVE",
"155.5 763 CURVE SMOOTH",
"163.83 754.33 OFFCURVE",
"174.33 750 OFFCURVE",
"187 750 CURVE SMOOTH",
"199.67 750 OFFCURVE",
"210.33 754.33 OFFCURVE",
"219 763 CURVE SMOOTH",
"227.67 771.67 OFFCURVE",
"232 782.17 OFFCURVE",
"232 794.5 CURVE SMOOTH",
"232 806.83 OFFCURVE",
"227.67 817.33 OFFCURVE",
"219 826 CURVE SMOOTH"
);
}
);
width = 554;
}
);
note = Edieresis;
unicode = 00CB;
},
{
glyphname = Egrave;
lastChange = "2017-05-14 03:42:20 +0000";
layers = (
{
layerId = "7DC84FEC-FE63-4092-95B6-3924847BFAB0";
paths = (
{
closed = 1;
nodes = (
"479 0 LINE",
"479 65 LINE",
"145 65 LINE",
"145 307 LINE",
"469 307 LINE",
"469 373 LINE",
"145 373 LINE",
"145 615 LINE",
"479 615 LINE",
"479 680 LINE",
"75 680 LINE",
"75 0 LINE"
);
},
{
closed = 1;
nodes = (
"355 750 LINE",
"265 893 LINE",
"189 893 LINE",
"299 750 LINE"
);
}
);
width = 554;
}
);
note = Egrave;
unicode = 00C8;
},
{
glyphname = Iacute;
lastChange = "2017-05-14 03:42:20 +0000";
layers = (
{
layerId = "7DC84FEC-FE63-4092-95B6-3924847BFAB0";
paths = (
{
closed = 1;
nodes = (
"145 0 LINE",
"145 680 LINE",
"75 680 LINE",
"75 0 LINE"
);
},
{
closed = 1;
nodes = (
"254 893 LINE",
"168 893 LINE",
"88 750 LINE",
"144 750 LINE"
);
}
);
width = 220;
}
);
note = Iacute;
unicode = 00CD;
},
{
glyphname = Icircumflex;
lastChange = "2017-05-14 03:42:20 +0000";
layers = (
{
layerId = "7DC84FEC-FE63-4092-95B6-3924847BFAB0";
paths = (
{
closed = 1;
nodes = (
"145 0 LINE",
"145 680 LINE",
"75 680 LINE",
"75 0 LINE"
);
},
{
closed = 1;
nodes = (
"111 856 LINE",
"183 750 LINE",
"254 750 LINE",
"144 893 LINE",
"78 893 LINE",
"-32 750 LINE",
"39 750 LINE"
);
}
);
width = 220;
}
);
note = Icircumflex;
unicode = 00CE;
},
{
glyphname = Idieresis;
lastChange = "2017-05-14 03:42:20 +0000";
layers = (
{
layerId = "7DC84FEC-FE63-4092-95B6-3924847BFAB0";
paths = (
{
closed = 1;
nodes = (
"145 0 LINE",
"145 680 LINE",
"75 680 LINE",
"75 0 LINE"
);
},
{
closed = 1;
nodes = (
"225.33 834.67 OFFCURVE",
"214.67 839 OFFCURVE",
"202 839 CURVE SMOOTH",
"189.33 839 OFFCURVE",
"178.83 834.67 OFFCURVE",
"170.5 826 CURVE SMOOTH",
"162.17 817.33 OFFCURVE",
"158 806.83 OFFCURVE",
"158 794.5 CURVE SMOOTH",
"158 782.17 OFFCURVE",
"162.17 771.67 OFFCURVE",
"170.5 763 CURVE SMOOTH",
"178.83 754.33 OFFCURVE",
"189.33 750 OFFCURVE",
"202 750 CURVE SMOOTH",
"214.67 750 OFFCURVE",
"225.33 754.33 OFFCURVE",
"234 763 CURVE SMOOTH",
"242.67 771.67 OFFCURVE",
"247 782.17 OFFCURVE",
"247 794.5 CURVE SMOOTH",
"247 806.83 OFFCURVE",
"242.67 817.33 OFFCURVE",
"234 826 CURVE SMOOTH"
);
},
{
closed = 1;
nodes = (
"43.33 834.67 OFFCURVE",
"32.67 839 OFFCURVE",
"20 839 CURVE SMOOTH",
"7.33 839 OFFCURVE",
"-3.17 834.67 OFFCURVE",
"-11.5 826 CURVE SMOOTH",
"-19.83 817.33 OFFCURVE",
"-24 806.83 OFFCURVE",
"-24 794.5 CURVE SMOOTH",
"-24 782.17 OFFCURVE",
"-19.83 771.67 OFFCURVE",
"-11.5 763 CURVE SMOOTH",
"-3.17 754.33 OFFCURVE",
"7.33 750 OFFCURVE",
"20 750 CURVE SMOOTH",
"32.67 750 OFFCURVE",
"43.33 754.33 OFFCURVE",
"52 763 CURVE SMOOTH",
"60.67 771.67 OFFCURVE",
"65 782.17 OFFCURVE",
"65 794.5 CURVE SMOOTH",
"65 806.83 OFFCURVE",
"60.67 817.33 OFFCURVE",
"52 826 CURVE SMOOTH"
);
}
);
width = 220;
}
);
note = Idieresis;
unicode = 00CF;
},
{
glyphname = Igrave;
lastChange = "2017-05-14 03:42:20 +0000";
layers = (
{
layerId = "7DC84FEC-FE63-4092-95B6-3924847BFAB0";
paths = (
{
closed = 1;
nodes = (
"145 0 LINE",
"145 680 LINE",
"75 680 LINE",
"75 0 LINE"
);
},
{
closed = 1;
nodes = (
"147 750 LINE",
"57 893 LINE",
"-19 893 LINE",
"91 750 LINE"
);
}
);
width = 220;
}
);
note = Igrave;
unicode = 00CC;
},
{
glyphname = Oacute;
lastChange = "2017-05-14 03:42:20 +0000";
layers = (
{
layerId = "7DC84FEC-FE63-4092-95B6-3924847BFAB0";
paths = (
{
closed = 1;
nodes = (
"674 264.67 OFFCURVE",
"646.67 198.67 OFFCURVE",
"592 144 CURVE SMOOTH",
"537.33 89.33 OFFCURVE",
"471.33 62 OFFCURVE",
"394 62 CURVE SMOOTH",
"317.33 62 OFFCURVE",
"251.67 89.33 OFFCURVE",
"197 144 CURVE SMOOTH",
"142.33 198.67 OFFCURVE",
"115 264.67 OFFCURVE",
"115 342 CURVE SMOOTH",
"115 418.67 OFFCURVE",
"142.33 484.33 OFFCURVE",
"197 539 CURVE SMOOTH",
"251.67 593.67 OFFCURVE",
"317.33 621 OFFCURVE",
"394 621 CURVE SMOOTH",
"471.33 621 OFFCURVE",
"537.33 593.67 OFFCURVE",
"592 539 CURVE SMOOTH",
"646.67 484.33 OFFCURVE",
"674 418.67 OFFCURVE",
"674 342 CURVE SMOOTH"
);
},
{
closed = 1;
nodes = (
"744 390 OFFCURVE",
"734.83 435.33 OFFCURVE",
"716.5 478 CURVE SMOOTH",
"698.17 520.67 OFFCURVE",
"673.17 557.67 OFFCURVE",
"641.5 589 CURVE SMOOTH",
"609.83 620.33 OFFCURVE",
"572.67 645.17 OFFCURVE",
"530 663.5 CURVE SMOOTH",
"487.33 681.83 OFFCURVE",
"442 691 OFFCURVE",
"394 691 CURVE SMOOTH",
"346 691 OFFCURVE",
"300.83 681.83 OFFCURVE",
"258.5 663.5 CURVE SMOOTH",
"216.17 645.17 OFFCURVE",
"179.17 620.33 OFFCURVE",
"147.5 589 CURVE SMOOTH",
"115.83 557.67 OFFCURVE",
"90.83 520.67 OFFCURVE",
"72.5 478 CURVE SMOOTH",
"54.17 435.33 OFFCURVE",
"45 390 OFFCURVE",
"45 342 CURVE SMOOTH",
"45 294 OFFCURVE",
"54.17 248.67 OFFCURVE",
"72.5 206 CURVE SMOOTH",
"90.83 163.33 OFFCURVE",
"115.83 126.17 OFFCURVE",
"147.5 94.5 CURVE SMOOTH",
"179.17 62.83 OFFCURVE",
"216.17 37.83 OFFCURVE",
"258.5 19.5 CURVE SMOOTH",
"300.83 1.17 OFFCURVE",
"346 -8 OFFCURVE",
"394 -8 CURVE SMOOTH",
"442 -8 OFFCURVE",
"487.33 1.17 OFFCURVE",
"530 19.5 CURVE SMOOTH",
"572.67 37.83 OFFCURVE",
"609.83 62.83 OFFCURVE",
"641.5 94.5 CURVE SMOOTH",
"673.17 126.17 OFFCURVE",
"698.17 163.33 OFFCURVE",
"716.5 206 CURVE SMOOTH",
"734.83 248.67 OFFCURVE",
"744 294 OFFCURVE",
"744 342 CURVE SMOOTH"
);
},
{
closed = 1;
nodes = (
"532 893 LINE",
"446 893 LINE",
"366 750 LINE",
"422 750 LINE"
);
}
);
width = 789;
}
);
note = Oacute;
unicode = 00D3;
},
{
glyphname = Ocircumflex;
lastChange = "2017-05-14 03:42:20 +0000";
layers = (
{
layerId = "7DC84FEC-FE63-4092-95B6-3924847BFAB0";
paths = (
{
closed = 1;
nodes = (
"674 264.67 OFFCURVE",
"646.67 198.67 OFFCURVE",
"592 144 CURVE SMOOTH",
"537.33 89.33 OFFCURVE",
"471.33 62 OFFCURVE",
"394 62 CURVE SMOOTH",
"317.33 62 OFFCURVE",
"251.67 89.33 OFFCURVE",
"197 144 CURVE SMOOTH",
"142.33 198.67 OFFCURVE",
"115 264.67 OFFCURVE",
"115 342 CURVE SMOOTH",
"115 418.67 OFFCURVE",
"142.33 484.33 OFFCURVE",
"197 539 CURVE SMOOTH",
"251.67 593.67 OFFCURVE",
"317.33 621 OFFCURVE",
"394 621 CURVE SMOOTH",
"471.33 621 OFFCURVE",
"537.33 593.67 OFFCURVE",
"592 539 CURVE SMOOTH",
"646.67 484.33 OFFCURVE",
"674 418.67 OFFCURVE",
"674 342 CURVE SMOOTH"
);
},
{
closed = 1;
nodes = (
"744 390 OFFCURVE",
"734.83 435.33 OFFCURVE",
"716.5 478 CURVE SMOOTH",
"698.17 520.67 OFFCURVE",
"673.17 557.67 OFFCURVE",
"641.5 589 CURVE SMOOTH",
"609.83 620.33 OFFCURVE",
"572.67 645.17 OFFCURVE",
"530 663.5 CURVE SMOOTH",
"487.33 681.83 OFFCURVE",
"442 691 OFFCURVE",
"394 691 CURVE SMOOTH",
"346 691 OFFCURVE",
"300.83 681.83 OFFCURVE",
"258.5 663.5 CURVE SMOOTH",
"216.17 645.17 OFFCURVE",
"179.17 620.33 OFFCURVE",
"147.5 589 CURVE SMOOTH",
"115.83 557.67 OFFCURVE",
"90.83 520.67 OFFCURVE",
"72.5 478 CURVE SMOOTH",
"54.17 435.33 OFFCURVE",
"45 390 OFFCURVE",
"45 342 CURVE SMOOTH",
"45 294 OFFCURVE",
"54.17 248.67 OFFCURVE",
"72.5 206 CURVE SMOOTH",
"90.83 163.33 OFFCURVE",
"115.83 126.17 OFFCURVE",
"147.5 94.5 CURVE SMOOTH",
"179.17 62.83 OFFCURVE",
"216.17 37.83 OFFCURVE",
"258.5 19.5 CURVE SMOOTH",
"300.83 1.17 OFFCURVE",
"346 -8 OFFCURVE",
"394 -8 CURVE SMOOTH",
"442 -8 OFFCURVE",
"487.33 1.17 OFFCURVE",
"530 19.5 CURVE SMOOTH",
"572.67 37.83 OFFCURVE",
"609.83 62.83 OFFCURVE",
"641.5 94.5 CURVE SMOOTH",
"673.17 126.17 OFFCURVE",
"698.17 163.33 OFFCURVE",
"716.5 206 CURVE SMOOTH",
"734.83 248.67 OFFCURVE",
"744 294 OFFCURVE",
"744 342 CURVE SMOOTH"
);
},
{
closed = 1;
nodes = (
"394 856 LINE",
"466 750 LINE",
"537 750 LINE",
"427 893 LINE",
"361 893 LINE",
"251 750 LINE",
"322 750 LINE"
);
}
);
width = 789;
}
);
note = Ocircumflex;
unicode = 00D4;
},
{
glyphname = Ograve;
lastChange = "2017-05-14 03:42:20 +0000";
layers = (
{
layerId = "7DC84FEC-FE63-4092-95B6-3924847BFAB0";
paths = (
{
closed = 1;
nodes = (
"674 264.67 OFFCURVE",
"646.67 198.67 OFFCURVE",
"592 144 CURVE SMOOTH",
"537.33 89.33 OFFCURVE",
"471.33 62 OFFCURVE",
"394 62 CURVE SMOOTH",
"317.33 62 OFFCURVE",
"251.67 89.33 OFFCURVE",
"197 144 CURVE SMOOTH",
"142.33 198.67 OFFCURVE",
"115 264.67 OFFCURVE",
"115 342 CURVE SMOOTH",
"115 418.67 OFFCURVE",
"142.33 484.33 OFFCURVE",
"197 539 CURVE SMOOTH",
"251.67 593.67 OFFCURVE",
"317.33 621 OFFCURVE",
"394 621 CURVE SMOOTH",
"471.33 621 OFFCURVE",
"537.33 593.67 OFFCURVE",
"592 539 CURVE SMOOTH",
"646.67 484.33 OFFCURVE",
"674 418.67 OFFCURVE",
"674 342 CURVE SMOOTH"
);
},
{
closed = 1;
nodes = (
"744 390 OFFCURVE",
"734.83 435.33 OFFCURVE",
"716.5 478 CURVE SMOOTH",
"698.17 520.67 OFFCURVE",
"673.17 557.67 OFFCURVE",
"641.5 589 CURVE SMOOTH",
"609.83 620.33 OFFCURVE",
"572.67 645.17 OFFCURVE",
"530 663.5 CURVE SMOOTH",
"487.33 681.83 OFFCURVE",
"442 691 OFFCURVE",
"394 691 CURVE SMOOTH",
"346 691 OFFCURVE",
"300.83 681.83 OFFCURVE",
"258.5 663.5 CURVE SMOOTH",
"216.17 645.17 OFFCURVE",
"179.17 620.33 OFFCURVE",
"147.5 589 CURVE SMOOTH",
"115.83 557.67 OFFCURVE",
"90.83 520.67 OFFCURVE",
"72.5 478 CURVE SMOOTH",
"54.17 435.33 OFFCURVE",
"45 390 OFFCURVE",
"45 342 CURVE SMOOTH",
"45 294 OFFCURVE",
"54.17 248.67 OFFCURVE",
"72.5 206 CURVE SMOOTH",
"90.83 163.33 OFFCURVE",
"115.83 126.17 OFFCURVE",
"147.5 94.5 CURVE SMOOTH",
"179.17 62.83 OFFCURVE",
"216.17 37.83 OFFCURVE",
"258.5 19.5 CURVE SMOOTH",
"300.83 1.17 OFFCURVE",
"346 -8 OFFCURVE",
"394 -8 CURVE SMOOTH",
"442 -8 OFFCURVE",
"487.33 1.17 OFFCURVE",
"530 19.5 CURVE SMOOTH",
"572.67 37.83 OFFCURVE",
"609.83 62.83 OFFCURVE",
"641.5 94.5 CURVE SMOOTH",
"673.17 126.17 OFFCURVE",
"698.17 163.33 OFFCURVE",
"716.5 206 CURVE SMOOTH",
"734.83 248.67 OFFCURVE",
"744 294 OFFCURVE",
"744 342 CURVE SMOOTH"
);
},
{
closed = 1;
nodes = (
"422 750 LINE",
"332 893 LINE",
"256 893 LINE",
"366 750 LINE"
);
}
);
width = 789;
}
);
note = Ograve;
unicode = 00D2;
},
{
glyphname = Uacute;
lastChange = "2017-05-14 03:42:20 +0000";
layers = (
{
layerId = "7DC84FEC-FE63-4092-95B6-3924847BFAB0";
paths = (
{
closed = 1;
nodes = (
"567 680 LINE",
"497 680 LINE",
"497 215 LINE SMOOTH",
"497 187.67 OFFCURVE",
"492 164.33 OFFCURVE",
"482 145 CURVE SMOOTH",
"453.03 89 OFFCURVE",
"397.03 61 OFFCURVE",
"314 61 CURVE SMOOTH",
"260.54 61 OFFCURVE",
"217.71 73 OFFCURVE",
"185.5 97 CURVE SMOOTH",
"148.5 124.57 OFFCURVE",
"130 163.9 OFFCURVE",
"130 215 CURVE SMOOTH",
"130 680 LINE",
"60 680 LINE",
"60 225 LINE SMOOTH",
"60 151.35 OFFCURVE",
"84 93.35 OFFCURVE",
"132 51 CURVE SMOOTH",
"177.33 11 OFFCURVE",
"238 -9 OFFCURVE",
"314 -9 CURVE SMOOTH",
"389.33 -9 OFFCURVE",
"449.67 11 OFFCURVE",
"495 51 CURVE SMOOTH",
"543 93.35 OFFCURVE",
"567 151.35 OFFCURVE",
"567 225 CURVE SMOOTH"
);
},
{
closed = 1;
nodes = (
"456 893 LINE",
"370 893 LINE",
"290 750 LINE",
"346 750 LINE"
);
}
);
width = 627;
}
);
note = Uacute;
unicode = 00DA;
},
{
glyphname = Ucircumflex;
lastChange = "2017-05-14 03:42:20 +0000";
layers = (
{
layerId = "7DC84FEC-FE63-4092-95B6-3924847BFAB0";
paths = (
{
closed = 1;
nodes = (
"567 680 LINE",
"497 680 LINE",
"497 215 LINE SMOOTH",
"497 187.67 OFFCURVE",
"492 164.33 OFFCURVE",
"482 145 CURVE SMOOTH",
"453.03 89 OFFCURVE",
"397.03 61 OFFCURVE",
"314 61 CURVE SMOOTH",
"260.54 61 OFFCURVE",
"217.71 73 OFFCURVE",
"185.5 97 CURVE SMOOTH",
"148.5 124.57 OFFCURVE",
"130 163.9 OFFCURVE",
"130 215 CURVE SMOOTH",
"130 680 LINE",
"60 680 LINE",
"60 225 LINE SMOOTH",
"60 151.35 OFFCURVE",
"84 93.35 OFFCURVE",
"132 51 CURVE SMOOTH",
"177.33 11 OFFCURVE",
"238 -9 OFFCURVE",
"314 -9 CURVE SMOOTH",
"389.33 -9 OFFCURVE",
"449.67 11 OFFCURVE",
"495 51 CURVE SMOOTH",
"543 93.35 OFFCURVE",
"567 151.35 OFFCURVE",
"567 225 CURVE SMOOTH"
);
},
{
closed = 1;
nodes = (
"314 856 LINE",
"386 750 LINE",
"457 750 LINE",
"347 893 LINE",
"281 893 LINE",
"171 750 LINE",
"242 750 LINE"
);
}
);
width = 627;
}
);
note = Ucircumflex;
unicode = 00DB;
},
{
glyphname = Ugrave;
lastChange = "2017-05-14 03:42:20 +0000";
layers = (
{
layerId = "7DC84FEC-FE63-4092-95B6-3924847BFAB0";
paths = (
{
closed = 1;
nodes = (
"567 680 LINE",
"497 680 LINE",
"497 215 LINE SMOOTH",
"497 187.67 OFFCURVE",
"492 164.33 OFFCURVE",
"482 145 CURVE SMOOTH",
"453.03 89 OFFCURVE",
"397.03 61 OFFCURVE",
"314 61 CURVE SMOOTH",
"260.54 61 OFFCURVE",
"217.71 73 OFFCURVE",
"185.5 97 CURVE SMOOTH",
"148.5 124.57 OFFCURVE",
"130 163.9 OFFCURVE",
"130 215 CURVE SMOOTH",
"130 680 LINE",
"60 680 LINE",
"60 225 LINE SMOOTH",
"60 151.35 OFFCURVE",
"84 93.35 OFFCURVE",
"132 51 CURVE SMOOTH",
"177.33 11 OFFCURVE",
"238 -9 OFFCURVE",
"314 -9 CURVE SMOOTH",
"389.33 -9 OFFCURVE",
"449.67 11 OFFCURVE",
"495 51 CURVE SMOOTH",
"543 93.35 OFFCURVE",
"567 151.35 OFFCURVE",
"567 225 CURVE SMOOTH"
);
},
{
closed = 1;
nodes = (
"352 750 LINE",
"262 893 LINE",
"186 893 LINE",
"296 750 LINE"
);
}
);
width = 627;
}
);
note = Ugrave;
unicode = 00D9;
},
